  0
SECTION
  2
HEADER
  9
$ACADVER
  1
AC1015
  9
$ACADMAINTVER
 70
     6
  9
$DWGCODEPAGE
  3
ANSI_1252
  9
$INSBASE
 10
0.0
 20
0.0
 30
0.0
  9
$EXTMIN
 10
0.0
 20
0.0
 30
0.0
  9
$EXTMAX
 10
279.4
 20
215.9
 30
0.0
  9
$LIMMIN
 10
0.0
 20
0.0
  9
$LIMMAX
 10
279.4
 20
215.9
  9
$ORTHOMODE
 70
     0
  9
$REGENMODE
 70
     1
  9
$FILLMODE
 70
     1
  9
$QTEXTMODE
 70
     0
  9
$MIRRTEXT
 70
     1
  9
$LTSCALE
 40
1.0
  9
$ATTMODE
 70
     1
  9
$TEXTSIZE
 40
6.35
  9
$TRACEWID
 40
1.0
  9
$TEXTSTYLE
  7
Standard
  9
$CLAYER
  8
0
  9
$CELTYPE
  6
ByLayer
  9
$CECOLOR
 62
   256
  9
$CELTSCALE
 40
1.0
  9
$DISPSILH
 70
     0
  9
$DIMSCALE
 40
1.0
  9
$DIMASZ
 40
5.9944
  9
$DIMEXO
 40
0.9906
  9
$DIMDLI
 40
3.75
  9
$DIMRND
 40
0.0
  9
$DIMDLE
 40
0.0
  9
$DIMEXE
 40
0.9906
  9
$DIMTP
 40
0.0
  9
$DIMTM
 40
0.0
  9
$DIMTXT
 40
6.35
  9
$DIMCEN
 40
2.5
  9
$DIMTSZ
 40
0.0
  9
$DIMTOL
 70
     0
  9
$DIMLIM
 70
     0
  9
$DIMTIH
 70
     1
  9
$DIMTOH
 70
     1
  9
$DIMSE1
 70
     0
  9
$DIMSE2
 70
     0
  9
$DIMTAD
 70
     1
  9
$DIMZIN
 70
     0
  9
$DIMBLK
  1

  9
$DIMASO
 70
     1
  9
$DIMSHO
 70
     1
  9
$DIMPOST
  1

  9
$DIMAPOST
  1

  9
$DIMALT
 70
     0
  9
$DIMALTD
 70
     3
  9
$DIMALTF
 40
0.0393700787
  9
$DIMLFAC
 40
5.0
  9
$DIMTOFL
 70
     1
  9
$DIMTVP
 40
0.0
  9
$DIMTIX
 70
     0
  9
$DIMSOXD
 70
     0
  9
$DIMSAH
 70
     0
  9
$DIMBLK1
  1

  9
$DIMBLK2
  1

  9
$DIMSTYLE
  2
ISO-25
  9
$DIMCLRD
 70
     0
  9
$DIMCLRE
 70
     0
  9
$DIMCLRT
 70
     0
  9
$DIMTFAC
 40
1.0
  9
$DIMGAP
 40
1.524
  9
$DIMJUST
 70
     0
  9
$DIMSD1
 70
     0
  9
$DIMSD2
 70
     0
  9
$DIMTOLJ
 70
     0
  9
$DIMTZIN
 70
     0
  9
$DIMALTZ
 70
     0
  9
$DIMALTTZ
 70
     0
  9
$DIMUPT
 70
     0
  9
$DIMDEC
 70
     2
  9
$DIMTDEC
 70
     2
  9
$DIMALTU
 70
     2
  9
$DIMALTTD
 70
     3
  9
$DIMTXSTY
  7
Standard
  9
$DIMAUNIT
 70
     0
  9
$DIMADEC
 70
     0
  9
$DIMALTRND
 40
0.0
  9
$DIMAZIN
 70
     0
  9
$DIMDSEP
 70
    44
  9
$DIMATFIT
 70
     3
  9
$DIMFRAC
 70
     0
  9
$DIMLDRBLK
  1

  9
$DIMLUNIT
 70
     2
  9
$DIMLWD
 70
    -2
  9
$DIMLWE
 70
    -2
  9
$DIMTMOVE
 70
     0
  9
$LUNITS
 70
     2
  9
$LUPREC
 70
     2
  9
$SKETCHINC
 40
1.0
  9
$FILLETRAD
 40
10.0
  9
$AUNITS
 70
     0
  9
$AUPREC
 70
     0
  9
$MENU
  1
.
  9
$ELEVATION
 40
0.0
  9
$PELEVATION
 40
0.0
  9
$THICKNESS
 40
0.0
  9
$LIMCHECK
 70
     0
  9
$CHAMFERA
 40
10.0
  9
$CHAMFERB
 40
10.0
  9
$CHAMFERC
 40
20.0
  9
$CHAMFERD
 40
0.0
  9
$SKPOLY
 70
     0
  9
$TDCREATE
 40
2455681.951164815
  9
$TDUCREATE
 40
2455681.867831482
  9
$TDUPDATE
 40
2455681.951164826
  9
$TDUUPDATE
 40
2455681.867831493
  9
$TDINDWG
 40
0.0000000116
  9
$TDUSRTIMER
 40
0.0000000116
  9
$USRTIMER
 70
     1
  9
$ANGBASE
 50
0.0
  9
$ANGDIR
 70
     0
  9
$PDMODE
 70
     0
  9
$PDSIZE
 40
-1.0
  9
$PLINEWID
 40
0.0
  9
$SPLFRAME
 70
     0
  9
$SPLINETYPE
 70
     6
  9
$SPLINESEGS
 70
     8
  9
$HANDSEED
  5
288
  9
$SURFTAB1
 70
     6
  9
$SURFTAB2
 70
     6
  9
$SURFTYPE
 70
     6
  9
$SURFU
 70
     6
  9
$SURFV
 70
     6
  9
$UCSBASE
  2

  9
$UCSNAME
  2

  9
$UCSORG
 10
0.0
 20
0.0
 30
0.0
  9
$UCSXDIR
 10
1.0
 20
0.0
 30
0.0
  9
$UCSYDIR
 10
0.0
 20
1.0
 30
0.0
  9
$UCSORTHOREF
  2

  9
$UCSORTHOVIEW
 70
     0
  9
$UCSORGTOP
 10
0.0
 20
0.0
 30
0.0
  9
$UCSORGBOTTOM
 10
0.0
 20
0.0
 30
0.0
  9
$UCSORGLEFT
 10
0.0
 20
0.0
 30
0.0
  9
$UCSORGRIGHT
 10
0.0
 20
0.0
 30
0.0
  9
$UCSORGFRONT
 10
0.0
 20
0.0
 30
0.0
  9
$UCSORGBACK
 10
0.0
 20
0.0
 30
0.0
  9
$PUCSBASE
  2

  9
$PUCSNAME
  2

  9
$PUCSORG
 10
0.0
 20
0.0
 30
0.0
  9
$PUCSXDIR
 10
1.0
 20
0.0
 30
0.0
  9
$PUCSYDIR
 10
0.0
 20
1.0
 30
0.0
  9
$PUCSORTHOREF
  2

  9
$PUCSORTHOVIEW
 70
     0
  9
$PUCSORGTOP
 10
0.0
 20
0.0
 30
0.0
  9
$PUCSORGBOTTOM
 10
0.0
 20
0.0
 30
0.0
  9
$PUCSORGLEFT
 10
0.0
 20
0.0
 30
0.0
  9
$PUCSORGRIGHT
 10
0.0
 20
0.0
 30
0.0
  9
$PUCSORGFRONT
 10
0.0
 20
0.0
 30
0.0
  9
$PUCSORGBACK
 10
0.0
 20
0.0
 30
0.0
  9
$USERI1
 70
     0
  9
$USERI2
 70
     0
  9
$USERI3
 70
     0
  9
$USERI4
 70
     0
  9
$USERI5
 70
     0
  9
$USERR1
 40
0.0
  9
$USERR2
 40
0.0
  9
$USERR3
 40
0.0
  9
$USERR4
 40
0.0
  9
$USERR5
 40
0.0
  9
$WORLDVIEW
 70
     1
  9
$SHADEDGE
 70
     3
  9
$SHADEDIF
 70
    70
  9
$TILEMODE
 70
     1
  9
$MAXACTVP
 70
    64
  9
$PINSBASE
 10
0.0
 20
0.0
 30
0.0
  9
$PLIMCHECK
 70
     0
  9
$PEXTMIN
 10
1.0000000000E+20
 20
1.0000000000E+20
 30
1.0000000000E+20
  9
$PEXTMAX
 10
-1.0000000000E+20
 20
-1.0000000000E+20
 30
-1.0000000000E+20
  9
$PLIMMIN
 10
0.0
 20
0.0
  9
$PLIMMAX
 10
420.0
 20
297.0
  9
$UNITMODE
 70
     0
  9
$VISRETAIN
 70
     1
  9
$PLINEGEN
 70
     0
  9
$PSLTSCALE
 70
     1
  9
$TREEDEPTH
 70
  3020
  9
$CMLSTYLE
  2
Standard
  9
$CMLJUST
 70
     0
  9
$CMLSCALE
 40
20.0
  9
$PROXYGRAPHICS
 70
     1
  9
$MEASUREMENT
 70
     1
  9
$CELWEIGHT
370
    -1
  9
$ENDCAPS
280
     0
  9
$JOINSTYLE
280
     0
  9
$LWDISPLAY
290
     1
  9
$INSUNITS
 70
     4
  9
$HYPERLINKBASE
  1

  9
$STYLESHEET
  1

  9
$XEDIT
290
     1
  9
$CEPSNTYPE
380
     0
  9
$PSTYLEMODE
290
     1
  9
$FINGERPRINTGUID
  2
{A019969C-8AFF-42D2-92F3-9E35F0E78E66}
  9
$VERSIONGUID
  2
{FAEB1C32-E019-11D5-929B-00C0DF256EC4}
  9
$EXTNAMES
290
     1
  9
$PSVPSCALE
 40
0.0
  9
$OLESTARTUP
290
     0
  0
ENDSEC
  0
SECTION
  2
CLASSES
  0
CLASS
  1
ACDBDICTIONARYWDFLT
  2
AcDbDictionaryWithDefault
  3
ObjectDBX Classes
 90
        0
280
     0
281
     0
  0
CLASS
  1
VISUALSTYLE
  2
AcDbVisualStyle
  3
ObjectDBX Classes
 90
     4095
280
     0
281
     0
  0
CLASS
  1
DICTIONARYVAR
  2
AcDbDictionaryVar
  3
ObjectDBX Classes
 90
        0
280
     0
281
     0
  0
CLASS
  1
ACDBPLACEHOLDER
  2
AcDbPlaceHolder
  3
ObjectDBX Classes
 90
        0
280
     0
281
     0
  0
CLASS
  1
LAYOUT
  2
AcDbLayout
  3
ObjectDBX Classes
 90
        0
280
     0
281
     0
  0
ENDSEC
  0
SECTION
  2
TABLES
  0
TABLE
  2
VPORT
  5
8
330
0
100
AcDbSymbolTable
 70
     1
  0
VPORT
  5
29
330
8
100
AcDbSymbolTableRecord
100
AcDbViewportTableRecord
  2
*Active
 70
     0
 10
0.0
 20
0.0
 11
1.0
 21
1.0
 12
139.7
 22
107.95
 13
0.0
 23
0.0
 14
10.0
 24
10.0
 15
10.0
 25
10.0
 16
0.0
 26
0.0
 36
1.0
 17
0.0
 27
0.0
 37
0.0
 40
215.9
 41
1.2941176471
 42
50.0
 43
0.0
 44
0.0
 50
0.0
 51
0.0
 71
     0
 72
  2000
 73
     1
 74
     3
 75
     0
 76
     0
 77
     0
 78
     0
281
     0
 65
     1
110
0.0
120
0.0
130
0.0
111
1.0
121
0.0
131
0.0
112
0.0
122
1.0
132
0.0
 79
     0
146
0.0
  0
ENDTAB
  0
TABLE
  2
LTYPE
  5
5
330
0
100
AcDbSymbolTable
 70
     6
  0
LTYPE
  5
14
330
5
100
AcDbSymbolTableRecord
100
AcDbLinetypeTableRecord
  2
ByBlock
 70
     0
  3

 72
    65
 73
     0
 40
0.0
  0
LTYPE
  5
15
330
5
100
AcDbSymbolTableRecord
100
AcDbLinetypeTableRecord
  2
ByLayer
 70
     0
  3

 72
    65
 73
     0
 40
0.0
  0
LTYPE
  5
16
330
5
100
AcDbSymbolTableRecord
100
AcDbLinetypeTableRecord
  2
Continuous
 70
     0
  3
Solid line
 72
    65
 73
     0
 40
0.0
  0
LTYPE
  5
3B
330
5
100
AcDbSymbolTableRecord
100
AcDbLinetypeTableRecord
  2
HIDDEN
 70
     0
  3
Hidden __ __ __ __ __ __ __ __ __ __ __ __ __ __
 72
    65
 73
     2
 40
1.905
 49
1.27
 74
     0
 49
-0.635
 74
     0
  0
LTYPE
  5
3C
330
5
100
AcDbSymbolTableRecord
100
AcDbLinetypeTableRecord
  2
PHANTOM
 70
     0
  3
Phantom ______  __  __  ______  __  __  ______
 72
    65
 73
     6
 40
12.7
 49
6.35
 74
     0
 49
-1.27
 74
     0
 49
1.27
 74
     0
 49
-1.27
 74
     0
 49
1.27
 74
     0
 49
-1.27
 74
     0
  0
LTYPE
  5
3D
330
5
100
AcDbSymbolTableRecord
100
AcDbLinetypeTableRecord
  2
CENTER
 70
     0
  3
Center ____ _ ____ _ ____ _ ____ _ ____ _ ____
 72
    65
 73
     4
 40
10.16
 49
6.35
 74
     0
 49
-1.27
 74
     0
 49
1.27
 74
     0
 49
-1.27
 74
     0
  0
LTYPE
  5
3E
330
5
100
AcDbSymbolTableRecord
100
AcDbLinetypeTableRecord
  2
CENTERX2
 70
     0
  3
Center (2x) ________  __  ________  __  _____
 72
    65
 73
     4
 40
20.32
 49
12.7
 74
     0
 49
-2.54
 74
     0
 49
2.54
 74
     0
 49
-2.54
 74
     0
  0
LTYPE
  5
3F
330
5
100
AcDbSymbolTableRecord
100
AcDbLinetypeTableRecord
  2
DOT2
 70
     0
  3
Dot (.5x) ........................................
 72
    65
 73
     2
 40
0.635
 49
0.0
 74
     0
 49
-0.635
 74
     0
  0
ENDTAB
  0
TABLE
  2
LAYER
  5
2
330
0
100
AcDbSymbolTable
 70
     2
  0
LAYER
  5
10
330
2
100
AcDbSymbolTableRecord
100
AcDbLayerTableRecord
  2
0
 70
     0
 62
     7
  6
Continuous
370
    -3
390
F
  0
LAYER
  5
40
330
2
100
AcDbSymbolTableRecord
100
AcDbLayerTableRecord
  2
FORMAT
 70
     0
 62
     7
  6
Continuous
370
    -3
390
F
  0
ENDTAB
  0
TABLE
  2
STYLE
  5
3
330
0
100
AcDbSymbolTable
 70
     2
  0
STYLE
  5
11
330
3
100
AcDbSymbolTableRecord
100
AcDbTextStyleTableRecord
  2
Standard
 70
     0
 40
0.0
 41
1.0
 50
0.0
 71
     0
 42
2.5
  3
txt
  4

  0
STYLE
  5
67
330
3
100
AcDbSymbolTableRecord
100
AcDbTextStyleTableRecord
  2
SLDTEXTSTYLE0
 70
     0
 40
0.0
 41
0.75
 50
0.0
 71
     0
 42
0.2
  3
TXT
  4

  0
ENDTAB
  0
TABLE
  2
VIEW
  5
6
330
0
100
AcDbSymbolTable
 70
     0
  0
ENDTAB
  0
TABLE
  2
UCS
  5
7
330
0
100
AcDbSymbolTable
 70
     0
  0
ENDTAB
  0
TABLE
  2
APPID
  5
9
330
0
100
AcDbSymbolTable
 70
     1
  0
APPID
  5
12
330
9
100
AcDbSymbolTableRecord
100
AcDbRegAppTableRecord
  2
ACAD
 70
     0
  0
ENDTAB
  0
TABLE
  2
DIMSTYLE
  5
A
330
0
100
AcDbSymbolTable
 70
     4
100
AcDbDimStyleTable
  0
DIMSTYLE
105
27
330
A
100
AcDbSymbolTableRecord
100
AcDbDimStyleTableRecord
  2
ISO-25
 70
     0
 41
2.5
 42
0.625
 43
3.75
 44
1.25
 73
     0
 74
     0
 77
     1
 78
     8
140
2.5
141
2.5
143
0.0393700787
147
0.625
171
     3
172
     1
271
     2
272
     2
274
     3
278
    44
283
     0
284
     8
340
11
  0
DIMSTYLE
105
B5
102
{ACAD_REACTORS
330
B4
330
136
330
144
330
15D
330
16A
330
178
330
192
102
}
330
A
100
AcDbSymbolTableRecord
100
AcDbDimStyleTableRecord
  2
SLDDIMSTYLE0
 70
     0
 41
5.9944
 44
0.0
 73
     0
 77
     1
 78
    12
140
6.35
144
2.0
147
1.5875
173
     1
271
     2
272
     2
284
    12
340
11
341
B6
343
B6
344
B6
  0
DIMSTYLE
105
FA
102
{ACAD_REACTORS
330
F9
330
106
330
112
330
11E
330
12A
330
152
102
}
330
A
100
AcDbSymbolTableRecord
100
AcDbDimStyleTableRecord
  2
SLDDIMSTYLE1
 70
     0
 41
5.9944
 44
0.0
 73
     0
 77
     1
 78
    12
140
6.35
144
2.0
147
1.5875
173
     1
271
     2
272
     2
284
    12
340
11
341
B6
343
B6
344
B6
  0
DIMSTYLE
105
187
102
{ACAD_REACTORS
330
186
102
}
330
A
100
AcDbSymbolTableRecord
100
AcDbDimStyleTableRecord
  2
SLDDIMSTYLE2
 70
     0
 41
5.9944
 44
0.0
 73
     0
 77
     1
 78
    12
140
6.35
144
2.0
147
1.5875
172
     1
173
     1
271
     2
272
     2
284
    12
289
     2
340
11
341
B6
343
B6
344
B6
  0
ENDTAB
  0
TABLE
  2
BLOCK_RECORD
  5
1
330
0
100
AcDbSymbolTable
 70
    37
  0
BLOCK_RECORD
  5
1F
330
1
100
AcDbSymbolTableRecord
100
AcDbBlockTableRecord
  2
*Model_Space
340
22
  0
BLOCK_RECORD
  5
1B
330
1
100
AcDbSymbolTableRecord
100
AcDbBlockTableRecord
  2
*Paper_Space
340
1E
  0
BLOCK_RECORD
  5
23
330
1
100
AcDbSymbolTableRecord
100
AcDbBlockTableRecord
  2
*Paper_Space0
340
26
  0
BLOCK_RECORD
  5
76
330
1
100
AcDbSymbolTableRecord
100
AcDbBlockTableRecord
  2
SW_NOTE_0
340
0
102
{BLKREFS
331
85
102
}
  0
BLOCK_RECORD
  5
90
330
1
100
AcDbSymbolTableRecord
100
AcDbBlockTableRecord
  2
SW_NOTE_1
340
0
102
{BLKREFS
331
9A
102
}
  0
BLOCK_RECORD
  5
B6
330
1
100
AcDbSymbolTableRecord
100
AcDbBlockTableRecord
  2
_CLOSED
340
0
102
{BLKREFS
331
C2
331
C3
331
100
331
101
331
10C
331
10D
331
118
331
119
331
124
331
125
331
130
331
131
331
13C
331
13D
331
14A
331
14B
331
158
331
159
331
163
331
164
331
170
331
171
331
17E
331
17F
331
18D
331
198
331
199
102
}
  0
BLOCK_RECORD
  5
BD
330
1
100
AcDbSymbolTableRecord
100
AcDbBlockTableRecord
  2
*D4
340
0
  0
BLOCK_RECORD
  5
FB
330
1
100
AcDbSymbolTableRecord
100
AcDbBlockTableRecord
  2
*D5
340
0
  0
BLOCK_RECORD
  5
107
330
1
100
AcDbSymbolTableRecord
100
AcDbBlockTableRecord
  2
*D6
340
0
  0
BLOCK_RECORD
  5
113
330
1
100
AcDbSymbolTableRecord
100
AcDbBlockTableRecord
  2
*D7
340
0
  0
BLOCK_RECORD
  5
11F
330
1
100
AcDbSymbolTableRecord
100
AcDbBlockTableRecord
  2
*D8
340
0
  0
BLOCK_RECORD
  5
12B
330
1
100
AcDbSymbolTableRecord
100
AcDbBlockTableRecord
  2
*D9
340
0
  0
BLOCK_RECORD
  5
137
330
1
100
AcDbSymbolTableRecord
100
AcDbBlockTableRecord
  2
*D10
340
0
  0
BLOCK_RECORD
  5
145
330
1
100
AcDbSymbolTableRecord
100
AcDbBlockTableRecord
  2
*D11
340
0
  0
BLOCK_RECORD
  5
153
330
1
100
AcDbSymbolTableRecord
100
AcDbBlockTableRecord
  2
*D12
340
0
  0
BLOCK_RECORD
  5
15E
330
1
100
AcDbSymbolTableRecord
100
AcDbBlockTableRecord
  2
*D13
340
0
  0
BLOCK_RECORD
  5
16B
330
1
100
AcDbSymbolTableRecord
100
AcDbBlockTableRecord
  2
*D14
340
0
  0
BLOCK_RECORD
  5
179
330
1
100
AcDbSymbolTableRecord
100
AcDbBlockTableRecord
  2
*D15
340
0
  0
BLOCK_RECORD
  5
188
330
1
100
AcDbSymbolTableRecord
100
AcDbBlockTableRecord
  2
*D16
340
0
  0
BLOCK_RECORD
  5
193
330
1
100
AcDbSymbolTableRecord
100
AcDbBlockTableRecord
  2
*D17
340
0
  0
BLOCK_RECORD
  5
1A0
330
1
100
AcDbSymbolTableRecord
100
AcDbBlockTableRecord
  2
SW_CENTERMARKSYMBOL_0
340
0
102
{BLKREFS
331
1AB
102
}
  0
BLOCK_RECORD
  5
1AC
330
1
100
AcDbSymbolTableRecord
100
AcDbBlockTableRecord
  2
SW_CENTERMARKSYMBOL_1
340
0
102
{BLKREFS
331
1B7
102
}
  0
BLOCK_RECORD
  5
1B8
330
1
100
AcDbSymbolTableRecord
100
AcDbBlockTableRecord
  2
SW_CENTERMARKSYMBOL_2
340
0
102
{BLKREFS
331
1C3
102
}
  0
BLOCK_RECORD
  5
1C4
330
1
100
AcDbSymbolTableRecord
100
AcDbBlockTableRecord
  2
SW_CENTERMARKSYMBOL_3
340
0
102
{BLKREFS
331
1CF
102
}
  0
BLOCK_RECORD
  5
1D0
330
1
100
AcDbSymbolTableRecord
100
AcDbBlockTableRecord
  2
SW_CENTERMARKSYMBOL_4
340
0
102
{BLKREFS
331
1DB
102
}
  0
BLOCK_RECORD
  5
1DC
330
1
100
AcDbSymbolTableRecord
100
AcDbBlockTableRecord
  2
SW_CENTERMARKSYMBOL_5
340
0
102
{BLKREFS
331
1E7
102
}
  0
BLOCK_RECORD
  5
1E8
330
1
100
AcDbSymbolTableRecord
100
AcDbBlockTableRecord
  2
SW_CENTERMARKSYMBOL_6
340
0
102
{BLKREFS
331
1F3
102
}
  0
BLOCK_RECORD
  5
1F4
330
1
100
AcDbSymbolTableRecord
100
AcDbBlockTableRecord
  2
SW_CENTERMARKSYMBOL_7
340
0
102
{BLKREFS
331
1FF
102
}
  0
BLOCK_RECORD
  5
200
330
1
100
AcDbSymbolTableRecord
100
AcDbBlockTableRecord
  2
SW_CENTERMARKSYMBOL_8
340
0
102
{BLKREFS
331
20B
102
}
  0
BLOCK_RECORD
  5
20C
330
1
100
AcDbSymbolTableRecord
100
AcDbBlockTableRecord
  2
SW_CENTERMARKSYMBOL_9
340
0
102
{BLKREFS
331
217
102
}
  0
BLOCK_RECORD
  5
218
330
1
100
AcDbSymbolTableRecord
100
AcDbBlockTableRecord
  2
SW_CENTERMARKSYMBOL_10
340
0
102
{BLKREFS
331
223
102
}
  0
BLOCK_RECORD
  5
224
330
1
100
AcDbSymbolTableRecord
100
AcDbBlockTableRecord
  2
SW_CENTERMARKSYMBOL_11
340
0
102
{BLKREFS
331
22F
102
}
  0
BLOCK_RECORD
  5
230
330
1
100
AcDbSymbolTableRecord
100
AcDbBlockTableRecord
  2
SW_CENTERMARKSYMBOL_12
340
0
102
{BLKREFS
331
23B
102
}
  0
BLOCK_RECORD
  5
23C
330
1
100
AcDbSymbolTableRecord
100
AcDbBlockTableRecord
  2
SW_CENTERMARKSYMBOL_13
340
0
102
{BLKREFS
331
247
102
}
  0
BLOCK_RECORD
  5
248
330
1
100
AcDbSymbolTableRecord
100
AcDbBlockTableRecord
  2
SW_CENTERMARKSYMBOL_14
340
0
102
{BLKREFS
331
253
102
}
  0
BLOCK_RECORD
  5
254
330
1
100
AcDbSymbolTableRecord
100
AcDbBlockTableRecord
  2
SW_CENTERMARKSYMBOL_15
340
0
102
{BLKREFS
331
25F
102
}
  0
BLOCK_RECORD
  5
260
330
1
100
AcDbSymbolTableRecord
100
AcDbBlockTableRecord
  2
SW_CENTERMARKSYMBOL_16
340
0
102
{BLKREFS
331
26B
102
}
  0
BLOCK_RECORD
  5
26C
330
1
100
AcDbSymbolTableRecord
100
AcDbBlockTableRecord
  2
SW_CENTERMARKSYMBOL_17
340
0
102
{BLKREFS
331
277
102
}
  0
BLOCK_RECORD
  5
278
330
1
100
AcDbSymbolTableRecord
100
AcDbBlockTableRecord
  2
SW_CENTERMARKSYMBOL_18
340
0
102
{BLKREFS
331
283
102
}
  0
ENDTAB
  0
ENDSEC
  0
SECTION
  2
BLOCKS
  0
BLOCK
  5
20
330
1F
100
AcDbEntity
  8
0
100
AcDbBlockBegin
  2
*Model_Space
 70
     0
 71
     0
 10
0.0
 20
0.0
 30
0.0
  3
*Model_Space
  1

  0
ENDBLK
  5
21
330
1F
100
AcDbEntity
  8
0
100
AcDbBlockEnd
  0
BLOCK
  5
1C
330
1B
100
AcDbEntity
 67
     1
  8
0
100
AcDbBlockBegin
  2
*Paper_Space
 70
     0
 71
     0
 10
0.0
 20
0.0
 30
0.0
  3
*Paper_Space
  1

  0
ENDBLK
  5
1D
330
1B
100
AcDbEntity
 67
     1
  8
0
100
AcDbBlockEnd
  0
BLOCK
  5
24
330
23
100
AcDbEntity
  8
0
100
AcDbBlockBegin
  2
*Paper_Space0
 70
     0
 71
     0
 10
0.0
 20
0.0
 30
0.0
  3
*Paper_Space0
  1

  0
ENDBLK
  5
25
330
23
100
AcDbEntity
  8
0
100
AcDbBlockEnd
  0
BLOCK
  5
77
330
76
100
AcDbEntity
  8
0
100
AcDbBlockBegin
  2
SW_NOTE_0
 70
     0
 71
     0
 10
0.0
 20
0.0
 30
0.0
  3
SW_NOTE_0
  1

  0
MTEXT
  5
79
330
76
100
AcDbEntity
  8
0
  6
Continuous
 62
     0
370
     0
100
AcDbMText
 10
0.0
 20
2.0463950369
 30
0.0
 40
1.5875
 41
0.0
 71
     1
 72
     1
  1
DIMENSIONS ARE IN INCHES
  7
SLDTEXTSTYLE0
 73
     1
 44
1.0
  0
MTEXT
  5
7A
330
76
100
AcDbEntity
  8
0
  6
Continuous
 62
     0
370
     0
100
AcDbMText
 10
0.0
 20
-0.5411049914
 30
0.0
 40
1.5875
 41
0.0
 71
     1
 72
     1
  1
TOLERANCES:
  7
SLDTEXTSTYLE0
 73
     1
 44
1.0
  0
MTEXT
  5
7B
330
76
100
AcDbEntity
  8
0
  6
Continuous
 62
     0
370
     0
100
AcDbMText
 10
0.0
 20
-3.1286050197
 30
0.0
 40
1.5875
 41
0.0
 71
     1
 72
     1
  1
FRACTIONAL
  7
SLDTEXTSTYLE0
 73
     1
 44
1.0
  0
MTEXT
  5
7C
330
76
100
AcDbEntity
  8
0
  6
Continuous
 62
     0
370
     0
100
AcDbMText
 10
12.6410201192
 20
-3.1286050197
 30
0.0
 40
1.5875
 41
0.0
 71
     1
 72
     1
  1
%%p
  7
SLDTEXTSTYLE0
 73
     1
 44
1.0
  0
MTEXT
  5
7D
330
76
100
AcDbEntity
  8
0
  6
Continuous
 62
     0
370
     0
100
AcDbMText
 10
0.0
 20
-5.716105048
 30
0.0
 40
1.5875
 41
0.0
 71
     1
 72
     1
  1
ANGULAR: MACH
  7
SLDTEXTSTYLE0
 73
     1
 44
1.0
  0
MTEXT
  5
7E
330
76
100
AcDbEntity
  8
0
  6
Continuous
 62
     0
370
     0
100
AcDbMText
 10
17.6670011133
 20
-5.716105048
 30
0.0
 40
1.5875
 41
0.0
 71
     1
 72
     1
  1
%%p
  7
SLDTEXTSTYLE0
 73
     1
 44
1.0
  0
MTEXT
  5
7F
330
76
100
AcDbEntity
  8
0
  6
Continuous
 62
     0
370
     0
100
AcDbMText
 10
19.1790945828
 20
-5.716105048
 30
0.0
 40
1.5875
 41
0.0
 71
     1
 72
     1
  1
     BEND 
  7
SLDTEXTSTYLE0
 73
     1
 44
1.0
  0
MTEXT
  5
80
330
76
100
AcDbEntity
  8
0
  6
Continuous
 62
     0
370
     0
100
AcDbMText
 10
28.033817187
 20
-5.716105048
 30
0.0
 40
1.5875
 41
0.0
 71
     1
 72
     1
  1
%%p
  7
SLDTEXTSTYLE0
 73
     1
 44
1.0
  0
MTEXT
  5
81
330
76
100
AcDbEntity
  8
0
  6
Continuous
 62
     0
370
     0
100
AcDbMText
 10
0.0
 20
-8.3036050764
 30
0.0
 40
1.5875
 41
0.0
 71
     1
 72
     1
  1
TWO PLACE DECIMAL    
  7
SLDTEXTSTYLE0
 73
     1
 44
1.0
  0
MTEXT
  5
82
330
76
100
AcDbEntity
  8
0
  6
Continuous
 62
     0
370
     0
100
AcDbMText
 10
23.9208135754
 20
-8.3036050764
 30
0.0
 40
1.5875
 41
0.0
 71
     1
 72
     1
  1
%%p
  7
SLDTEXTSTYLE0
 73
     1
 44
1.0
  0
MTEXT
  5
83
330
76
100
AcDbEntity
  8
0
  6
Continuous
 62
     0
370
     0
100
AcDbMText
 10
0.0
 20
-10.8911051047
 30
0.0
 40
1.5875
 41
0.0
 71
     1
 72
     1
  1
THREE PLACE DECIMAL  
  7
SLDTEXTSTYLE0
 73
     1
 44
1.0
  0
MTEXT
  5
84
330
76
100
AcDbEntity
  8
0
  6
Continuous
 62
     0
370
     0
100
AcDbMText
 10
23.7832851708
 20
-10.8911051047
 30
0.0
 40
1.5875
 41
0.0
 71
     1
 72
     1
  1
%%p
  7
SLDTEXTSTYLE0
 73
     1
 44
1.0
  0
ENDBLK
  5
78
330
76
100
AcDbEntity
  8
0
100
AcDbBlockEnd
  0
BLOCK
  5
91
330
90
100
AcDbEntity
  8
0
100
AcDbBlockBegin
  2
SW_NOTE_1
 70
     0
 71
     0
 10
0.0
 20
0.0
 30
0.0
  3
SW_NOTE_1
  1

  0
MTEXT
  5
93
330
90
100
AcDbEntity
  8
0
  6
Continuous
 62
     0
370
     0
100
AcDbMText
 10
0.0
 20
1.9645392354
 30
0.0
 40
1.524
 41
0.0
 71
     1
 72
     1
  1
THE INFORMATION CONTAINED IN THIS
  7
SLDTEXTSTYLE0
 73
     1
 44
1.0
  0
MTEXT
  5
94
330
90
100
AcDbEntity
  8
0
  6
Continuous
 62
     0
370
     0
100
AcDbMText
 10
0.0
 20
-0.5594606586
 30
0.0
 40
1.524
 41
0.0
 71
     1
 72
     1
  1
DRAWING IS THE SOLE PROPERTY OF
  7
SLDTEXTSTYLE0
 73
     1
 44
1.0
  0
MTEXT
  5
95
330
90
100
AcDbEntity
  8
0
  6
Continuous
 62
     0
370
     0
100
AcDbMText
 10
0.0
 20
-3.0834605527
 30
0.0
 40
1.524
 41
0.0
 71
     1
 72
     1
  1
<INSERT COMPANY NAME HERE>.  ANY 
  7
SLDTEXTSTYLE0
 73
     1
 44
1.0
  0
MTEXT
  5
96
330
90
100
AcDbEntity
  8
0
  6
Continuous
 62
     0
370
     0
100
AcDbMText
 10
0.0
 20
-5.6074604467
 30
0.0
 40
1.524
 41
0.0
 71
     1
 72
     1
  1
REPRODUCTION IN PART OR AS A WHOLE
  7
SLDTEXTSTYLE0
 73
     1
 44
1.0
  0
MTEXT
  5
97
330
90
100
AcDbEntity
  8
0
  6
Continuous
 62
     0
370
     0
100
AcDbMText
 10
0.0
 20
-8.1314603407
 30
0.0
 40
1.524
 41
0.0
 71
     1
 72
     1
  1
WITHOUT THE WRITTEN PERMISSION OF
  7
SLDTEXTSTYLE0
 73
     1
 44
1.0
  0
MTEXT
  5
98
330
90
100
AcDbEntity
  8
0
  6
Continuous
 62
     0
370
     0
100
AcDbMText
 10
0.0
 20
-10.6554602348
 30
0.0
 40
1.524
 41
0.0
 71
     1
 72
     1
  1
<INSERT COMPANY NAME HERE> IS 
  7
SLDTEXTSTYLE0
 73
     1
 44
1.0
  0
MTEXT
  5
99
330
90
100
AcDbEntity
  8
0
  6
Continuous
 62
     0
370
     0
100
AcDbMText
 10
0.0
 20
-13.1794601288
 30
0.0
 40
1.524
 41
0.0
 71
     1
 72
     1
  1
PROHIBITED.
  7
SLDTEXTSTYLE0
 73
     1
 44
1.0
  0
ENDBLK
  5
92
330
90
100
AcDbEntity
  8
0
100
AcDbBlockEnd
  0
BLOCK
  5
B7
330
B6
100
AcDbEntity
  8
0
100
AcDbBlockBegin
  2
_CLOSED
 70
     0
 71
     0
 10
0.0
 20
0.0
 30
0.0
  3
_CLOSED
  1

  0
LINE
  5
B9
330
B6
100
AcDbEntity
  8
0
  6
ByBlock
 62
     0
370
    -2
100
AcDbLine
 10
-1.0
 20
0.166667
 30
0.0
 11
0.0
 21
0.0
 31
0.0
  0
LINE
  5
BA
330
B6
100
AcDbEntity
  8
0
  6
ByBlock
 62
     0
370
    -2
100
AcDbLine
 10
0.0
 20
0.0
 30
0.0
 11
-1.0
 21
-0.166667
 31
0.0
  0
LINE
  5
BB
330
B6
100
AcDbEntity
  8
0
  6
ByBlock
 62
     0
370
    -2
100
AcDbLine
 10
-1.0
 20
0.166667
 30
0.0
 11
-1.0
 21
-0.166667
 31
0.0
  0
LINE
  5
BC
330
B6
100
AcDbEntity
  8
0
  6
ByBlock
 62
     0
370
    -2
100
AcDbLine
 10
0.0
 20
0.0
 30
0.0
 11
-1.0
 21
0.0
 31
0.0
  0
ENDBLK
  5
B8
330
B6
100
AcDbEntity
  8
0
100
AcDbBlockEnd
  0
BLOCK
  5
BE
330
BD
100
AcDbEntity
  8
0
100
AcDbBlockBegin
  2
*D4
 70
     1
 71
     0
 10
0.0
 20
0.0
 30
0.0
  3
*D4
  1

  0
ARC
  5
C0
330
BD
100
AcDbEntity
  8
FORMAT
100
AcDbCircle
 10
52.4891013324
 20
49.6755559596
 30
0.0
 40
11.26716199697139
100
AcDbArc
 50
243.4349488229
 51
296.5650511771
  0
ARC
  5
C1
330
BD
100
AcDbEntity
  8
FORMAT
100
AcDbCircle
 10
52.4891013324
 20
37.3861865299
 30
0.0
 40
11.2671619969714
100
AcDbArc
 50
63.4349488229
 51
116.5650511771
  0
INSERT
  5
C2
330
BD
100
AcDbEntity
  8
FORMAT
100
AcDbBlockReference
  2
_CLOSED
 10
57.5279293602
 20
56.5921691291
 30
52.55
 41
5.9944
 42
5.9944
 50
270.0
  0
INSERT
  5
C3
330
BD
100
AcDbEntity
  8
FORMAT
100
AcDbBlockReference
  2
_CLOSED
 10
57.5279293602
 20
55.0921691291
 30
52.55
 41
5.9944
 42
5.9944
 50
90.0
  0
LINE
  5
C4
330
BD
100
AcDbEntity
  8
FORMAT
100
AcDbLine
 10
59.3258647566
 20
56.5921691291
 30
0.0
 11
56.5373293602
 21
56.5921691291
 31
0.0
  0
LINE
  5
C5
330
BD
100
AcDbEntity
  8
FORMAT
100
AcDbLine
 10
59.3258647566
 20
55.0921691291
 30
0.0
 11
56.5373293602
 21
55.0921691291
 31
0.0
  0
LINE
  5
C6
330
BD
100
AcDbEntity
  8
FORMAT
100
AcDbLine
 10
57.5279293602
 20
56.5921691291
 30
0.0
 11
57.5279293602
 21
68.5809691291
 31
0.0
  0
LINE
  5
C7
330
BD
100
AcDbEntity
  8
FORMAT
100
AcDbLine
 10
57.5279293602
 20
56.5921691291
 30
0.0
 11
57.5279293602
 21
55.0921691291
 31
0.0
  0
LINE
  5
C8
330
BD
100
AcDbEntity
  8
FORMAT
100
AcDbLine
 10
57.5279293602
 20
55.0921691291
 30
0.0
 11
57.5279293602
 21
38.0103999041
 31
0.0
  0
MTEXT
  5
C9
330
BD
100
AcDbEntity
  8
FORMAT
100
AcDbMText
 10
49.3423485141
 20
41.1853999041
 30
0.0
 40
6.35
 41
0.0
 71
     1
 72
     1
  1
3
  7
SLDTEXTSTYLE0
 11
-7.044195017643634E-15
 21
1.0
 31
0.0
 73
     1
 44
1.0
  0
ENDBLK
  5
BF
330
BD
100
AcDbEntity
  8
0
100
AcDbBlockEnd
  0
BLOCK
  5
FC
330
FB
100
AcDbEntity
  8
0
100
AcDbBlockBegin
  2
*D5
 70
     1
 71
     0
 10
0.0
 20
0.0
 30
0.0
  3
*D5
  1

  0
ARC
  5
FE
330
FB
100
AcDbEntity
  8
FORMAT
100
AcDbCircle
 10
143.4534034698
 20
208.5734809294
 30
0.0
 40
11.26716199697139
100
AcDbArc
 50
153.4349488229
 51
206.5650511771
  0
ARC
  5
FF
330
FB
100
AcDbEntity
  8
FORMAT
100
AcDbCircle
 10
140.5459194025
 20
208.5734809294
 30
0.0
 40
11.26716199697137
100
AcDbArc
 50
333.4349488229
 51
26.5650511771
  0
INSERT
  5
100
330
FB
100
AcDbEntity
  8
FORMAT
100
AcDbBlockReference
  2
_CLOSED
 10
60.3164647566
 20
203.5346529016
 30
-0.7
 41
5.9944
 42
5.9944
 50
180.0
  0
INSERT
  5
101
330
FB
100
AcDbEntity
  8
FORMAT
100
AcDbBlockReference
  2
_CLOSED
 10
225.3164647566
 20
203.5346529016
 30
-0.7
 41
5.9944
 42
5.9944
 50
360.0
  0
LINE
  5
102
330
FB
100
AcDbEntity
  8
FORMAT
100
AcDbLine
 10
60.3164647566
 20
184.5765299286
 30
0.0
 11
60.3164647566
 21
204.5252529016
 31
0.0
  0
LINE
  5
103
330
FB
100
AcDbEntity
  8
FORMAT
100
AcDbLine
 10
225.3164647566
 20
184.5765299286
 30
0.0
 11
225.3164647566
 21
204.5252529016
 31
0.0
  0
LINE
  5
104
330
FB
100
AcDbEntity
  8
FORMAT
100
AcDbLine
 10
60.3164647566
 20
203.5346529016
 30
0.0
 11
225.3164647566
 21
203.5346529016
 31
0.0
  0
MTEXT
  5
105
330
FB
100
AcDbEntity
  8
FORMAT
100
AcDbMText
 10
134.9632474143
 20
211.7202337477
 30
0.0
 40
6.35
 41
0.0
 71
     1
 72
     1
  1
330
  7
SLDTEXTSTYLE0
 73
     1
 44
1.0
  0
ENDBLK
  5
FD
330
FB
100
AcDbEntity
  8
0
100
AcDbBlockEnd
  0
BLOCK
  5
108
330
107
100
AcDbEntity
  8
0
100
AcDbBlockBegin
  2
*D6
 70
     1
 71
     0
 10
0.0
 20
0.0
 30
0.0
  3
*D6
  1

  0
ARC
  5
10A
330
107
100
AcDbEntity
  8
FORMAT
100
AcDbCircle
 10
248.2776367288
 20
154.6274474422
 30
0.0
 40
11.26716199697147
100
AcDbArc
 50
243.4349488229
 51
296.5650511771
  0
ARC
  5
10B
330
107
100
AcDbEntity
  8
FORMAT
100
AcDbCircle
 10
248.2776367288
 20
151.7199633749
 30
0.0
 40
11.26716199697147
100
AcDbArc
 50
63.4349488229
 51
116.5650511771
  0
INSERT
  5
10C
330
107
100
AcDbEntity
  8
FORMAT
100
AcDbBlockReference
  2
_CLOSED
 10
253.3164647566
 20
191.0859299286
 30
-0.7
 41
5.9944
 42
5.9944
 50
90.0
  0
INSERT
  5
10D
330
107
100
AcDbEntity
  8
FORMAT
100
AcDbBlockReference
  2
_CLOSED
 10
253.3164647566
 20
86.0859299286
 30
-0.7
 41
5.9944
 42
5.9944
 50
270.0
  0
LINE
  5
10E
330
107
100
AcDbEntity
  8
FORMAT
100
AcDbLine
 10
218.8070647566
 20
191.0859299286
 30
0.0
 11
254.3070647566
 21
191.0859299286
 31
0.0
  0
LINE
  5
10F
330
107
100
AcDbEntity
  8
FORMAT
100
AcDbLine
 10
218.8070647566
 20
86.0859299286
 30
0.0
 11
254.3070647566
 21
86.0859299286
 31
0.0
  0
LINE
  5
110
330
107
100
AcDbEntity
  8
FORMAT
100
AcDbLine
 10
253.3164647566
 20
191.0859299286
 30
0.0
 11
253.3164647566
 21
86.0859299286
 31
0.0
  0
MTEXT
  5
111
330
107
100
AcDbEntity
  8
FORMAT
100
AcDbMText
 10
245.1308839105
 20
146.1372913867
 30
0.0
 40
6.35
 41
0.0
 71
     1
 72
     1
  1
210
  7
SLDTEXTSTYLE0
 11
-5.267838178243384E-15
 21
1.0
 31
0.0
 73
     1
 44
1.0
  0
ENDBLK
  5
109
330
107
100
AcDbEntity
  8
0
100
AcDbBlockEnd
  0
BLOCK
  5
114
330
113
100
AcDbEntity
  8
0
100
AcDbBlockBegin
  2
*D7
 70
     1
 71
     0
 10
0.0
 20
0.0
 30
0.0
  3
*D7
  1

  0
ARC
  5
116
330
113
100
AcDbEntity
  8
FORMAT
100
AcDbCircle
 10
143.4534034698
 20
197.3041043265
 30
0.0
 40
11.26716199697137
100
AcDbArc
 50
153.4349488229
 51
206.5650511771
  0
ARC
  5
117
330
113
100
AcDbEntity
  8
FORMAT
100
AcDbCircle
 10
140.5459194025
 20
197.3041043265
 30
0.0
 40
11.26716199697137
100
AcDbArc
 50
333.4349488229
 51
26.5650511771
  0
INSERT
  5
118
330
113
100
AcDbEntity
  8
FORMAT
100
AcDbBlockReference
  2
_CLOSED
 10
67.8164647566
 20
192.2652762988
 30
-0.7
 41
5.9944
 42
5.9944
 50
180.0
  0
INSERT
  5
119
330
113
100
AcDbEntity
  8
FORMAT
100
AcDbBlockReference
  2
_CLOSED
 10
217.8164647566
 20
192.2652762988
 30
-0.7
 41
5.9944
 42
5.9944
 50
0.0
  0
LINE
  5
11A
330
113
100
AcDbEntity
  8
FORMAT
100
AcDbLine
 10
67.8164647566
 20
190.5765299286
 30
0.0
 11
67.8164647566
 21
193.2558762988
 31
0.0
  0
LINE
  5
11B
330
113
100
AcDbEntity
  8
FORMAT
100
AcDbLine
 10
217.8164647566
 20
190.5765299286
 30
0.0
 11
217.8164647566
 21
193.2558762988
 31
0.0
  0
LINE
  5
11C
330
113
100
AcDbEntity
  8
FORMAT
100
AcDbLine
 10
67.8164647566
 20
192.2652762988
 30
0.0
 11
217.8164647566
 21
192.2652762988
 31
0.0
  0
MTEXT
  5
11D
330
113
100
AcDbEntity
  8
FORMAT
100
AcDbMText
 10
134.9632474143
 20
200.4508571448
 30
0.0
 40
6.35
 41
0.0
 71
     1
 72
     1
  1
300
  7
SLDTEXTSTYLE0
 73
     1
 44
1.0
  0
ENDBLK
  5
115
330
113
100
AcDbEntity
  8
0
100
AcDbBlockEnd
  0
BLOCK
  5
120
330
11F
100
AcDbEntity
  8
0
100
AcDbBlockBegin
  2
*D8
 70
     1
 71
     0
 10
0.0
 20
0.0
 30
0.0
  3
*D8
  1

  0
ARC
  5
122
330
11F
100
AcDbEntity
  8
FORMAT
100
AcDbCircle
 10
143.4534034698
 20
137.5811202121
 30
0.0
 40
11.26716199697141
100
AcDbArc
 50
153.4349488229
 51
206.5650511771
  0
ARC
  5
123
330
11F
100
AcDbEntity
  8
FORMAT
100
AcDbCircle
 10
140.5459194025
 20
137.5811202121
 30
0.0
 40
11.26716199697138
100
AcDbArc
 50
333.4349488229
 51
26.5650511771
  0
INSERT
  5
124
330
11F
100
AcDbEntity
  8
FORMAT
100
AcDbBlockReference
  2
_CLOSED
 10
72.3164647566
 20
132.5422921844
 30
-0.7
 41
5.9944
 42
5.9944
 50
180.0
  0
INSERT
  5
125
330
11F
100
AcDbEntity
  8
FORMAT
100
AcDbBlockReference
  2
_CLOSED
 10
213.3164647566
 20
132.5422921844
 30
-0.7
 41
5.9944
 42
5.9944
 50
0.0
  0
LINE
  5
126
330
11F
100
AcDbEntity
  8
FORMAT
100
AcDbLine
 10
72.3164647566
 20
143.5953299286
 30
0.0
 11
72.3164647566
 21
131.5516921844
 31
0.0
  0
LINE
  5
127
330
11F
100
AcDbEntity
  8
FORMAT
100
AcDbLine
 10
213.3164647566
 20
143.5953299286
 30
0.0
 11
213.3164647566
 21
131.5516921844
 31
0.0
  0
LINE
  5
128
330
11F
100
AcDbEntity
  8
FORMAT
100
AcDbLine
 10
72.3164647566
 20
132.5422921844
 30
0.0
 11
213.3164647566
 21
132.5422921844
 31
0.0
  0
MTEXT
  5
129
330
11F
100
AcDbEntity
  8
FORMAT
100
AcDbMText
 10
134.9632474143
 20
140.7278730304
 30
0.0
 40
6.35
 41
0.0
 71
     1
 72
     1
  1
282
  7
SLDTEXTSTYLE0
 73
     1
 44
1.0
  0
ENDBLK
  5
121
330
11F
100
AcDbEntity
  8
0
100
AcDbBlockEnd
  0
BLOCK
  5
12C
330
12B
100
AcDbEntity
  8
0
100
AcDbBlockBegin
  2
*D9
 70
     1
 71
     0
 10
0.0
 20
0.0
 30
0.0
  3
*D9
  1

  0
ARC
  5
12E
330
12B
100
AcDbEntity
  8
FORMAT
100
AcDbCircle
 10
52.5823531196
 20
168.4016779304
 30
0.0
 40
11.2671619969714
100
AcDbArc
 50
243.4349488229
 51
296.5650511771
  0
ARC
  5
12F
330
12B
100
AcDbEntity
  8
FORMAT
100
AcDbCircle
 10
52.5823531196
 20
160.803251182
 30
0.0
 40
11.26716199697138
100
AcDbArc
 50
63.4349488229
 51
116.5650511771
  0
INSERT
  5
130
330
12B
100
AcDbEntity
  8
FORMAT
100
AcDbBlockReference
  2
_CLOSED
 10
57.6211811473
 20
138.0859299286
 30
-0.7
 41
5.9944
 42
5.9944
 50
270.0
  0
INSERT
  5
131
330
12B
100
AcDbEntity
  8
FORMAT
100
AcDbBlockReference
  2
_CLOSED
 10
57.6211811473
 20
183.5859299286
 30
-0.7
 41
5.9944
 42
5.9944
 50
90.0
  0
LINE
  5
132
330
12B
100
AcDbEntity
  8
FORMAT
100
AcDbLine
 10
60.8258647566
 20
138.0859299286
 30
0.0
 11
56.6305811473
 21
138.0859299286
 31
0.0
  0
LINE
  5
133
330
12B
100
AcDbEntity
  8
FORMAT
100
AcDbLine
 10
60.8258647566
 20
183.5859299286
 30
0.0
 11
56.6305811473
 21
183.5859299286
 31
0.0
  0
LINE
  5
134
330
12B
100
AcDbEntity
  8
FORMAT
100
AcDbLine
 10
57.6211811473
 20
138.0859299286
 30
0.0
 11
57.6211811473
 21
183.5859299286
 31
0.0
  0
MTEXT
  5
135
330
12B
100
AcDbEntity
  8
FORMAT
100
AcDbMText
 10
49.4356003013
 20
159.911521875
 30
0.0
 40
6.35
 41
0.0
 71
     1
 72
     1
  1
91
  7
SLDTEXTSTYLE0
 11
-1.608122649676637E-16
 21
1.0
 31
0.0
 73
     1
 44
1.0
  0
ENDBLK
  5
12D
330
12B
100
AcDbEntity
  8
0
100
AcDbBlockEnd
  0
BLOCK
  5
138
330
137
100
AcDbEntity
  8
0
100
AcDbBlockBegin
  2
*D10
 70
     1
 71
     0
 10
0.0
 20
0.0
 30
0.0
  3
*D10
  1

  0
ARC
  5
13A
330
137
100
AcDbEntity
  8
FORMAT
100
AcDbCircle
 10
52.5823531196
 20
117.3332980034
 30
0.0
 40
11.2671619969714
100
AcDbArc
 50
243.4349488229
 51
296.5650511771
  0
ARC
  5
13B
330
137
100
AcDbEntity
  8
FORMAT
100
AcDbCircle
 10
52.5823531196
 20
109.7348712549
 30
0.0
 40
11.2671619969714
100
AcDbArc
 50
63.4349488229
 51
116.5650511771
  0
INSERT
  5
13C
330
137
100
AcDbEntity
  8
FORMAT
100
AcDbBlockReference
  2
_CLOSED
 10
57.6211811473
 20
93.5859299286
 30
-0.7
 41
5.9944
 42
5.9944
 50
90.0
  0
INSERT
  5
13D
330
137
100
AcDbEntity
  8
FORMAT
100
AcDbBlockReference
  2
_CLOSED
 10
57.6211811473
 20
133.0859299286
 30
-0.7
 41
5.9944
 42
5.9944
 50
270.0
  0
LINE
  5
13E
330
137
100
AcDbEntity
  8
FORMAT
100
AcDbLine
 10
60.8258647566
 20
93.5859299286
 30
0.0
 11
56.6305811473
 21
93.5859299286
 31
0.0
  0
LINE
  5
13F
330
137
100
AcDbEntity
  8
FORMAT
100
AcDbLine
 10
60.8258647566
 20
133.0859299286
 30
0.0
 11
56.6305811473
 21
133.0859299286
 31
0.0
  0
LINE
  5
140
330
137
100
AcDbEntity
  8
FORMAT
100
AcDbLine
 10
57.6211811473
 20
93.5859299286
 30
0.0
 11
57.6211811473
 21
81.5971299286
 31
0.0
  0
LINE
  5
141
330
137
100
AcDbEntity
  8
FORMAT
100
AcDbLine
 10
57.6211811473
 20
93.5859299286
 30
0.0
 11
57.6211811473
 21
133.0859299286
 31
0.0
  0
LINE
  5
142
330
137
100
AcDbEntity
  8
FORMAT
100
AcDbLine
 10
57.6211811473
 20
133.0859299286
 30
0.0
 11
57.6211811473
 21
145.0747299286
 31
0.0
  0
MTEXT
  5
143
330
137
100
AcDbEntity
  8
FORMAT
100
AcDbMText
 10
49.4356003013
 20
108.8431419479
 30
0.0
 40
6.35
 41
0.0
 71
     1
 72
     1
  1
79
  7
SLDTEXTSTYLE0
 11
6.123233995736766E-17
 21
1.0
 31
0.0
 73
     1
 44
1.0
  0
ENDBLK
  5
139
330
137
100
AcDbEntity
  8
0
100
AcDbBlockEnd
  0
BLOCK
  5
146
330
145
100
AcDbEntity
  8
0
100
AcDbBlockBegin
  2
*D11
 70
     1
 71
     0
 10
0.0
 20
0.0
 30
0.0
  3
*D11
  1

  0
ARC
  5
148
330
145
100
AcDbEntity
  8
FORMAT
100
AcDbCircle
 10
43.2631631159
 20
138.8244346617
 30
0.0
 40
11.26716199697136
100
AcDbArc
 50
243.4349488229
 51
296.5650511771
  0
ARC
  5
149
330
145
100
AcDbEntity
  8
FORMAT
100
AcDbCircle
 10
43.2631631159
 20
131.2260079132
 30
0.0
 40
11.26716199697139
100
AcDbArc
 50
63.4349488229
 51
116.5650511771
  0
INSERT
  5
14A
330
145
100
AcDbEntity
  8
FORMAT
100
AcDbBlockReference
  2
_CLOSED
 10
48.3019911436
 20
133.0859299286
 30
-0.7
 41
5.9944
 42
5.9944
 50
90.0
  0
INSERT
  5
14B
330
145
100
AcDbEntity
  8
FORMAT
100
AcDbBlockReference
  2
_CLOSED
 10
48.3019911436
 20
138.0859299286
 30
-0.7
 41
5.9944
 42
5.9944
 50
270.0
  0
LINE
  5
14C
330
145
100
AcDbEntity
  8
FORMAT
100
AcDbLine
 10
59.3258647566
 20
133.0859299286
 30
0.0
 11
47.3113911436
 21
133.0859299286
 31
0.0
  0
LINE
  5
14D
330
145
100
AcDbEntity
  8
FORMAT
100
AcDbLine
 10
59.3258647566
 20
138.0859299286
 30
0.0
 11
47.3113911436
 21
138.0859299286
 31
0.0
  0
LINE
  5
14E
330
145
100
AcDbEntity
  8
FORMAT
100
AcDbLine
 10
48.3019911436
 20
133.0859299286
 30
0.0
 11
48.3019911436
 21
121.0971299286
 31
0.0
  0
LINE
  5
14F
330
145
100
AcDbEntity
  8
FORMAT
100
AcDbLine
 10
48.3019911436
 20
133.0859299286
 30
0.0
 11
48.3019911436
 21
138.0859299286
 31
0.0
  0
LINE
  5
150
330
145
100
AcDbEntity
  8
FORMAT
100
AcDbLine
 10
48.3019911436
 20
138.0859299286
 30
0.0
 11
48.3019911436
 21
150.0747299286
 31
0.0
  0
MTEXT
  5
151
330
145
100
AcDbEntity
  8
FORMAT
100
AcDbMText
 10
40.1164102976
 20
130.3342786062
 30
0.0
 40
6.35
 41
0.0
 71
     1
 72
     1
  1
10
  7
SLDTEXTSTYLE0
 11
6.123233995736766E-17
 21
1.0
 31
0.0
 73
     1
 44
1.0
  0
ENDBLK
  5
147
330
145
100
AcDbEntity
  8
0
100
AcDbBlockEnd
  0
BLOCK
  5
154
330
153
100
AcDbEntity
  8
0
100
AcDbBlockBegin
  2
*D12
 70
     1
 71
     0
 10
0.0
 20
0.0
 30
0.0
  3
*D12
  1

  0
ARC
  5
156
330
153
100
AcDbEntity
  8
FORMAT
100
AcDbCircle
 10
201.144539608
 20
119.9413228573
 30
0.0
 40
11.26716199697141
100
AcDbArc
 50
243.4349488229
 51
296.5650511771
  0
ARC
  5
157
330
153
100
AcDbEntity
  8
FORMAT
100
AcDbCircle
 10
201.144539608
 20
117.0338387901
 30
0.0
 40
11.26716199697137
100
AcDbArc
 50
63.4349488229
 51
116.5650511771
  0
INSERT
  5
158
330
153
100
AcDbEntity
  8
FORMAT
100
AcDbBlockReference
  2
_CLOSED
 10
206.1833676358
 20
144.5859299286
 30
-0.7
 41
5.9944
 42
5.9944
 50
90.0
  0
INSERT
  5
159
330
153
100
AcDbEntity
  8
FORMAT
100
AcDbBlockReference
  2
_CLOSED
 10
206.1833676358
 20
86.0859299286
 30
-0.7
 41
5.9944
 42
5.9944
 50
270.0
  0
LINE
  5
15A
330
153
100
AcDbEntity
  8
FORMAT
100
AcDbLine
 10
212.3258647566
 20
86.0859299286
 30
0.0
 11
205.1927676358
 21
86.0859299286
 31
0.0
  0
LINE
  5
15B
330
153
100
AcDbEntity
  8
FORMAT
100
AcDbLine
 10
206.1833676358
 20
144.5859299286
 30
0.0
 11
206.1833676358
 21
86.0859299286
 31
0.0
  0
MTEXT
  5
15C
330
153
100
AcDbEntity
  8
FORMAT
100
AcDbMText
 10
197.9977867897
 20
111.4511668018
 30
0.0
 40
6.35
 41
0.0
 71
     1
 72
     1
  1
117
  7
SLDTEXTSTYLE0
 11
-7.044195017643634E-15
 21
1.0
 31
0.0
 73
     1
 44
1.0
  0
ENDBLK
  5
155
330
153
100
AcDbEntity
  8
0
100
AcDbBlockEnd
  0
BLOCK
  5
15F
330
15E
100
AcDbEntity
  8
0
100
AcDbBlockBegin
  2
*D13
 70
     1
 71
     0
 10
0.0
 20
0.0
 30
0.0
  3
*D13
  1

  0
ARC
  5
161
330
15E
100
AcDbEntity
  8
FORMAT
100
AcDbCircle
 10
242.2594878068
 20
140.1998630661
 30
0.0
 40
11.26716199697137
100
AcDbArc
 50
153.4349488229
 51
206.5650511771
  0
ARC
  5
162
330
15E
100
AcDbEntity
  8
FORMAT
100
AcDbCircle
 10
229.970118377
 20
140.1998630661
 30
0.0
 40
11.26716199697137
100
AcDbArc
 50
333.4349488229
 51
26.5650511771
  0
INSERT
  5
163
330
15E
100
AcDbEntity
  8
FORMAT
100
AcDbBlockReference
  2
_CLOSED
 10
225.3164647566
 20
135.1610350384
 30
-0.7
 41
5.9944
 42
5.9944
 50
180.0
  0
INSERT
  5
164
330
15E
100
AcDbEntity
  8
FORMAT
100
AcDbBlockReference
  2
_CLOSED
 10
223.8164647566
 20
135.1610350384
 30
-0.7
 41
5.9944
 42
5.9944
 50
360.0
  0
LINE
  5
165
330
15E
100
AcDbEntity
  8
FORMAT
100
AcDbLine
 10
223.8164647566
 20
137.0953299286
 30
0.0
 11
223.8164647566
 21
134.1704350384
 31
0.0
  0
LINE
  5
166
330
15E
100
AcDbEntity
  8
FORMAT
100
AcDbLine
 10
225.3164647566
 20
135.1610350384
 30
0.0
 11
241.6352744325
 21
135.1610350384
 31
0.0
  0
LINE
  5
167
330
15E
100
AcDbEntity
  8
FORMAT
100
AcDbLine
 10
225.3164647566
 20
135.1610350384
 30
0.0
 11
223.8164647566
 21
135.1610350384
 31
0.0
  0
LINE
  5
168
330
15E
100
AcDbEntity
  8
FORMAT
100
AcDbLine
 10
223.8164647566
 20
135.1610350384
 30
0.0
 11
211.8276647566
 21
135.1610350384
 31
0.0
  0
MTEXT
  5
169
330
15E
100
AcDbEntity
  8
FORMAT
100
AcDbMText
 10
233.7693317513
 20
143.3466158844
 30
0.0
 40
6.35
 41
0.0
 71
     1
 72
     1
  1
3
  7
SLDTEXTSTYLE0
 73
     1
 44
1.0
  0
ENDBLK
  5
160
330
15E
100
AcDbEntity
  8
0
100
AcDbBlockEnd
  0
BLOCK
  5
16C
330
16B
100
AcDbEntity
  8
0
100
AcDbBlockBegin
  2
*D14
 70
     1
 71
     0
 10
0.0
 20
0.0
 30
0.0
  3
*D14
  1

  0
ARC
  5
16E
330
16B
100
AcDbEntity
  8
FORMAT
100
AcDbCircle
 10
52.5823531196
 20
92.4672581305
 30
0.0
 40
11.26716199697136
100
AcDbArc
 50
243.4349488229
 51
296.5650511771
  0
ARC
  5
16F
330
16B
100
AcDbEntity
  8
FORMAT
100
AcDbCircle
 10
52.5823531196
 20
84.8688313821
 30
0.0
 40
11.26716199697139
100
AcDbArc
 50
63.4349488229
 51
116.5650511771
  0
INSERT
  5
170
330
16B
100
AcDbEntity
  8
FORMAT
100
AcDbBlockReference
  2
_CLOSED
 10
57.6211811473
 20
93.5859299286
 30
-0.7
 41
5.9944
 42
5.9944
 50
270.0
  0
INSERT
  5
171
330
16B
100
AcDbEntity
  8
FORMAT
100
AcDbBlockReference
  2
_CLOSED
 10
57.6211811473
 20
86.0859299286
 30
-0.7
 41
5.9944
 42
5.9944
 50
90.0
  0
LINE
  5
172
330
16B
100
AcDbEntity
  8
FORMAT
100
AcDbLine
 10
59.3258647566
 20
93.5859299286
 30
0.0
 11
56.6305811473
 21
93.5859299286
 31
0.0
  0
LINE
  5
173
330
16B
100
AcDbEntity
  8
FORMAT
100
AcDbLine
 10
66.8258647566
 20
86.0859299286
 30
0.0
 11
56.6305811473
 21
86.0859299286
 31
0.0
  0
LINE
  5
174
330
16B
100
AcDbEntity
  8
FORMAT
100
AcDbLine
 10
57.6211811473
 20
93.5859299286
 30
0.0
 11
57.6211811473
 21
105.5747299286
 31
0.0
  0
LINE
  5
175
330
16B
100
AcDbEntity
  8
FORMAT
100
AcDbLine
 10
57.6211811473
 20
93.5859299286
 30
0.0
 11
57.6211811473
 21
86.0859299286
 31
0.0
  0
LINE
  5
176
330
16B
100
AcDbEntity
  8
FORMAT
100
AcDbLine
 10
57.6211811473
 20
86.0859299286
 30
0.0
 11
57.6211811473
 21
74.0971299286
 31
0.0
  0
MTEXT
  5
177
330
16B
100
AcDbEntity
  8
FORMAT
100
AcDbMText
 10
49.4356003013
 20
83.9771020751
 30
0.0
 40
6.35
 41
0.0
 71
     1
 72
     1
  1
15
  7
SLDTEXTSTYLE0
 11
-7.044195017643634E-15
 21
1.0
 31
0.0
 73
     1
 44
1.0
  0
ENDBLK
  5
16D
330
16B
100
AcDbEntity
  8
0
100
AcDbBlockEnd
  0
BLOCK
  5
17A
330
179
100
AcDbEntity
  8
0
100
AcDbBlockBegin
  2
*D15
 70
     1
 71
     0
 10
0.0
 20
0.0
 30
0.0
  3
*D15
  1

  0
ARC
  5
17C
330
179
100
AcDbEntity
  8
FORMAT
100
AcDbCircle
 10
71.5191268767
 20
75.1247579563
 30
0.0
 40
11.26716199697137
100
AcDbArc
 50
153.4349488229
 51
206.5650511771
  0
ARC
  5
17D
330
179
100
AcDbEntity
  8
FORMAT
100
AcDbCircle
 10
63.9207001282
 20
75.1247579563
 30
0.0
 40
11.26716199697136
100
AcDbArc
 50
333.4349488229
 51
26.5650511771
  0
INSERT
  5
17E
330
179
100
AcDbEntity
  8
FORMAT
100
AcDbBlockReference
  2
_CLOSED
 10
61.8164647566
 20
70.0859299286
 30
-0.7
 41
5.9944
 42
5.9944
 50
0.0
  0
INSERT
  5
17F
330
179
100
AcDbEntity
  8
FORMAT
100
AcDbBlockReference
  2
_CLOSED
 10
72.3164647566
 20
70.0859299286
 30
-0.7
 41
5.9944
 42
5.9944
 50
180.0
  0
LINE
  5
180
330
179
100
AcDbEntity
  8
FORMAT
100
AcDbLine
 10
61.8164647566
 20
92.5953299286
 30
0.0
 11
61.8164647566
 21
69.0953299286
 31
0.0
  0
LINE
  5
181
330
179
100
AcDbEntity
  8
FORMAT
100
AcDbLine
 10
72.3164647566
 20
85.0953299286
 30
0.0
 11
72.3164647566
 21
69.0953299286
 31
0.0
  0
LINE
  5
182
330
179
100
AcDbEntity
  8
FORMAT
100
AcDbLine
 10
61.8164647566
 20
70.0859299286
 30
0.0
 11
49.8276647566
 21
70.0859299286
 31
0.0
  0
LINE
  5
183
330
179
100
AcDbEntity
  8
FORMAT
100
AcDbLine
 10
61.8164647566
 20
70.0859299286
 30
0.0
 11
72.3164647566
 21
70.0859299286
 31
0.0
  0
LINE
  5
184
330
179
100
AcDbEntity
  8
FORMAT
100
AcDbLine
 10
72.3164647566
 20
70.0859299286
 30
0.0
 11
84.3052647566
 21
70.0859299286
 31
0.0
  0
MTEXT
  5
185
330
179
100
AcDbEntity
  8
FORMAT
100
AcDbMText
 10
63.0289708212
 20
78.2715107746
 30
0.0
 40
6.35
 41
0.0
 71
     1
 72
     1
  1
21
  7
SLDTEXTSTYLE0
 73
     1
 44
1.0
  0
ENDBLK
  5
17B
330
179
100
AcDbEntity
  8
0
100
AcDbBlockEnd
  0
BLOCK
  5
189
330
188
100
AcDbEntity
  8
0
100
AcDbBlockBegin
  2
*D16
 70
     1
 71
     0
 10
0.0
 20
0.0
 30
0.0
  3
*D16
  1

  0
ARC
  5
18B
330
188
100
AcDbEntity
  8
FORMAT
100
AcDbCircle
 10
240.1435653085
 20
78.2534431196
 30
0.0
 40
11.26716199697136
100
AcDbArc
 50
108.4349488284
 51
161.5650511825
  0
ARC
  5
18C
330
188
100
AcDbEntity
  8
FORMAT
100
AcDbCircle
 10
238.4060063098
 20
79.991002118
 30
0.0
 40
11.26716199697136
100
AcDbArc
 50
288.4349488284
 51
341.5650511825
  0
INSERT
  5
18D
330
188
100
AcDbEntity
  8
FORMAT
100
AcDbBlockReference
  2
_CLOSED
 10
223.119765616
 20
88.2826290702
 30
-0.7
 41
5.9944
 42
5.9944
 50
135.0000000055
  0
LINE
  5
18E
330
188
100
AcDbEntity
  8
FORMAT
100
AcDbLine
 10
223.119765616
 20
88.2826290702
 30
0.0
 11
243.1572103917
 21
68.2451842983
 31
0.0
  0
LINE
  5
18F
330
188
100
AcDbEntity
  8
FORMAT
100
AcDbLine
 10
223.119765616
 20
88.2826290702
 30
0.0
 11
217.8164647566
 21
93.5859299286
 31
0.0
  0
MTEXT
  5
190
330
188
100
AcDbEntity
  8
FORMAT
100
AcDbMText
 10
236.3652086441
 20
86.4819802959
 30
0.0
 40
6.35
 41
0.0
 71
     1
 72
     1
  1
R
  7
SLDTEXTSTYLE0
 11
0.7071067812540079
 21
-0.7071067811190871
 31
0.0
 73
     1
 44
1.0
  0
MTEXT
  5
191
330
188
100
AcDbEntity
  8
FORMAT
100
AcDbMText
 10
240.0005487261
 20
82.8466402146
 30
0.0
 40
6.35
 41
0.0
 71
     1
 72
     1
  1
15
  7
SLDTEXTSTYLE0
 11
0.7071067812540079
 21
-0.7071067811190871
 31
0.0
 73
     1
 44
1.0
  0
ENDBLK
  5
18A
330
188
100
AcDbEntity
  8
0
100
AcDbBlockEnd
  0
BLOCK
  5
194
330
193
100
AcDbEntity
  8
0
100
AcDbBlockBegin
  2
*D17
 70
     1
 71
     0
 10
0.0
 20
0.0
 30
0.0
  3
*D17
  1

  0
ARC
  5
196
330
193
100
AcDbEntity
  8
FORMAT
100
AcDbCircle
 10
231.0759750641
 20
205.2268028028
 30
0.0
 40
11.26716199697138
100
AcDbArc
 50
243.4349488229
 51
296.5650511771
  0
ARC
  5
197
330
193
100
AcDbEntity
  8
FORMAT
100
AcDbCircle
 10
231.0759750641
 20
192.9374333731
 30
0.0
 40
11.26716199697138
100
AcDbArc
 50
63.4349488229
 51
116.5650511771
  0
INSERT
  5
198
330
193
100
AcDbEntity
  8
FORMAT
100
AcDbBlockReference
  2
_CLOSED
 10
236.1148030919
 20
189.5859299286
 30
-0.7
 41
5.9944
 42
5.9944
 50
90.0
  0
INSERT
  5
199
330
193
100
AcDbEntity
  8
FORMAT
100
AcDbBlockReference
  2
_CLOSED
 10
236.1148030919
 20
191.0859299286
 30
-0.7
 41
5.9944
 42
5.9944
 50
270.0
  0
LINE
  5
19A
330
193
100
AcDbEntity
  8
FORMAT
100
AcDbLine
 10
218.8070647566
 20
189.5859299286
 30
0.0
 11
237.1054030919
 21
189.5859299286
 31
0.0
  0
LINE
  5
19B
330
193
100
AcDbEntity
  8
FORMAT
100
AcDbLine
 10
218.8070647566
 20
191.0859299286
 30
0.0
 11
237.1054030919
 21
191.0859299286
 31
0.0
  0
LINE
  5
19C
330
193
100
AcDbEntity
  8
FORMAT
100
AcDbLine
 10
236.1148030919
 20
189.5859299286
 30
0.0
 11
236.1148030919
 21
177.5971299286
 31
0.0
  0
LINE
  5
19D
330
193
100
AcDbEntity
  8
FORMAT
100
AcDbLine
 10
236.1148030919
 20
189.5859299286
 30
0.0
 11
236.1148030919
 21
191.0859299286
 31
0.0
  0
LINE
  5
19E
330
193
100
AcDbEntity
  8
FORMAT
100
AcDbLine
 10
236.1148030919
 20
191.0859299286
 30
0.0
 11
236.1148030919
 21
204.6025894285
 31
0.0
  0
MTEXT
  5
19F
330
193
100
AcDbEntity
  8
FORMAT
100
AcDbMText
 10
227.9292222458
 20
196.7366467473
 30
0.0
 40
6.35
 41
0.0
 71
     1
 72
     1
  1
3
  7
SLDTEXTSTYLE0
 11
6.123233995736766E-17
 21
1.0
 31
0.0
 73
     1
 44
1.0
  0
ENDBLK
  5
195
330
193
100
AcDbEntity
  8
0
100
AcDbBlockEnd
  0
BLOCK
  5
1A1
330
1A0
100
AcDbEntity
  8
0
100
AcDbBlockBegin
  2
SW_CENTERMARKSYMBOL_0
 70
     0
 71
     0
 10
0.0
 20
0.0
 30
0.0
  3
SW_CENTERMARKSYMBOL_0
  1

  0
LINE
  5
1A3
330
1A0
100
AcDbEntity
  8
0
  6
Continuous
 62
     0
370
     0
100
AcDbLine
 10
0.0
 20
0.0
 30
0.0
 11
0.0
 21
1.25
 31
0.0
  0
LINE
  5
1A4
330
1A0
100
AcDbEntity
  8
0
  6
Continuous
 62
     0
370
     0
100
AcDbLine
 10
0.0
 20
0.0
 30
0.0
 11
-1.25
 21
0.0
 31
0.0
  0
LINE
  5
1A5
330
1A0
100
AcDbEntity
  8
0
  6
Continuous
 62
     0
370
     0
100
AcDbLine
 10
0.0
 20
0.0
 30
0.0
 11
0.0
 21
-1.25
 31
0.0
  0
LINE
  5
1A6
330
1A0
100
AcDbEntity
  8
0
  6
Continuous
 62
     0
370
     0
100
AcDbLine
 10
0.0
 20
0.0
 30
0.0
 11
1.25
 21
0.0
 31
0.0
  0
LINE
  5
1A7
330
1A0
100
AcDbEntity
  8
0
  6
Continuous
 62
     0
370
     0
100
AcDbLine
 10
0.0
 20
2.5
 30
0.0
 11
0.0
 21
5.75
 31
0.0
  0
LINE
  5
1A8
330
1A0
100
AcDbEntity
  8
0
  6
Continuous
 62
     0
370
     0
100
AcDbLine
 10
-2.5
 20
0.0
 30
0.0
 11
-5.75
 21
0.0
 31
0.0
  0
LINE
  5
1A9
330
1A0
100
AcDbEntity
  8
0
  6
Continuous
 62
     0
370
     0
100
AcDbLine
 10
0.0
 20
-2.5
 30
0.0
 11
0.0
 21
-5.75
 31
0.0
  0
LINE
  5
1AA
330
1A0
100
AcDbEntity
  8
0
  6
Continuous
 62
     0
370
     0
100
AcDbLine
 10
2.5
 20
0.0
 30
0.0
 11
5.75
 21
0.0
 31
0.0
  0
ENDBLK
  5
1A2
330
1A0
100
AcDbEntity
  8
0
100
AcDbBlockEnd
  0
BLOCK
  5
1AD
330
1AC
100
AcDbEntity
  8
0
100
AcDbBlockBegin
  2
SW_CENTERMARKSYMBOL_1
 70
     0
 71
     0
 10
0.0
 20
0.0
 30
0.0
  3
SW_CENTERMARKSYMBOL_1
  1

  0
LINE
  5
1AF
330
1AC
100
AcDbEntity
  8
0
  6
Continuous
 62
     0
370
     0
100
AcDbLine
 10
0.0
 20
0.0
 30
0.0
 11
0.0
 21
1.25
 31
0.0
  0
LINE
  5
1B0
330
1AC
100
AcDbEntity
  8
0
  6
Continuous
 62
     0
370
     0
100
AcDbLine
 10
0.0
 20
0.0
 30
0.0
 11
-1.25
 21
0.0
 31
0.0
  0
LINE
  5
1B1
330
1AC
100
AcDbEntity
  8
0
  6
Continuous
 62
     0
370
     0
100
AcDbLine
 10
0.0
 20
0.0
 30
0.0
 11
0.0
 21
-1.25
 31
0.0
  0
LINE
  5
1B2
330
1AC
100
AcDbEntity
  8
0
  6
Continuous
 62
     0
370
     0
100
AcDbLine
 10
0.0
 20
0.0
 30
0.0
 11
1.25
 21
0.0
 31
0.0
  0
LINE
  5
1B3
330
1AC
100
AcDbEntity
  8
0
  6
Continuous
 62
     0
370
     0
100
AcDbLine
 10
0.0
 20
1.25
 30
0.0
 11
0.0
 21
2.5
 31
0.0
  0
LINE
  5
1B4
330
1AC
100
AcDbEntity
  8
0
  6
Continuous
 62
     0
370
     0
100
AcDbLine
 10
-1.25
 20
0.0
 30
0.0
 11
-2.5
 21
0.0
 31
0.0
  0
LINE
  5
1B5
330
1AC
100
AcDbEntity
  8
0
  6
Continuous
 62
     0
370
     0
100
AcDbLine
 10
0.0
 20
-1.25
 30
0.0
 11
0.0
 21
-2.5
 31
0.0
  0
LINE
  5
1B6
330
1AC
100
AcDbEntity
  8
0
  6
Continuous
 62
     0
370
     0
100
AcDbLine
 10
1.25
 20
0.0
 30
0.0
 11
2.5
 21
0.0
 31
0.0
  0
ENDBLK
  5
1AE
330
1AC
100
AcDbEntity
  8
0
100
AcDbBlockEnd
  0
BLOCK
  5
1B9
330
1B8
100
AcDbEntity
  8
0
100
AcDbBlockBegin
  2
SW_CENTERMARKSYMBOL_2
 70
     0
 71
     0
 10
0.0
 20
0.0
 30
0.0
  3
SW_CENTERMARKSYMBOL_2
  1

  0
LINE
  5
1BB
330
1B8
100
AcDbEntity
  8
0
  6
Continuous
 62
     0
370
     0
100
AcDbLine
 10
0.0
 20
0.0
 30
0.0
 11
0.0
 21
1.25
 31
0.0
  0
LINE
  5
1BC
330
1B8
100
AcDbEntity
  8
0
  6
Continuous
 62
     0
370
     0
100
AcDbLine
 10
0.0
 20
0.0
 30
0.0
 11
-1.25
 21
0.0
 31
0.0
  0
LINE
  5
1BD
330
1B8
100
AcDbEntity
  8
0
  6
Continuous
 62
     0
370
     0
100
AcDbLine
 10
0.0
 20
0.0
 30
0.0
 11
0.0
 21
-1.25
 31
0.0
  0
LINE
  5
1BE
330
1B8
100
AcDbEntity
  8
0
  6
Continuous
 62
     0
370
     0
100
AcDbLine
 10
0.0
 20
0.0
 30
0.0
 11
1.25
 21
0.0
 31
0.0
  0
LINE
  5
1BF
330
1B8
100
AcDbEntity
  8
0
  6
Continuous
 62
     0
370
     0
100
AcDbLine
 10
0.0
 20
1.25
 30
0.0
 11
0.0
 21
2.5
 31
0.0
  0
LINE
  5
1C0
330
1B8
100
AcDbEntity
  8
0
  6
Continuous
 62
     0
370
     0
100
AcDbLine
 10
-1.25
 20
0.0
 30
0.0
 11
-2.5
 21
0.0
 31
0.0
  0
LINE
  5
1C1
330
1B8
100
AcDbEntity
  8
0
  6
Continuous
 62
     0
370
     0
100
AcDbLine
 10
0.0
 20
-1.25
 30
0.0
 11
0.0
 21
-2.5
 31
0.0
  0
LINE
  5
1C2
330
1B8
100
AcDbEntity
  8
0
  6
Continuous
 62
     0
370
     0
100
AcDbLine
 10
1.25
 20
0.0
 30
0.0
 11
2.5
 21
0.0
 31
0.0
  0
ENDBLK
  5
1BA
330
1B8
100
AcDbEntity
  8
0
100
AcDbBlockEnd
  0
BLOCK
  5
1C5
330
1C4
100
AcDbEntity
  8
0
100
AcDbBlockBegin
  2
SW_CENTERMARKSYMBOL_3
 70
     0
 71
     0
 10
0.0
 20
0.0
 30
0.0
  3
SW_CENTERMARKSYMBOL_3
  1

  0
LINE
  5
1C7
330
1C4
100
AcDbEntity
  8
0
  6
Continuous
 62
     0
370
     0
100
AcDbLine
 10
0.0
 20
0.0
 30
0.0
 11
0.0
 21
1.25
 31
0.0
  0
LINE
  5
1C8
330
1C4
100
AcDbEntity
  8
0
  6
Continuous
 62
     0
370
     0
100
AcDbLine
 10
0.0
 20
0.0
 30
0.0
 11
-1.25
 21
0.0
 31
0.0
  0
LINE
  5
1C9
330
1C4
100
AcDbEntity
  8
0
  6
Continuous
 62
     0
370
     0
100
AcDbLine
 10
0.0
 20
0.0
 30
0.0
 11
0.0
 21
-1.25
 31
0.0
  0
LINE
  5
1CA
330
1C4
100
AcDbEntity
  8
0
  6
Continuous
 62
     0
370
     0
100
AcDbLine
 10
0.0
 20
0.0
 30
0.0
 11
1.25
 21
0.0
 31
0.0
  0
LINE
  5
1CB
330
1C4
100
AcDbEntity
  8
0
  6
Continuous
 62
     0
370
     0
100
AcDbLine
 10
0.0
 20
1.25
 30
0.0
 11
0.0
 21
2.5
 31
0.0
  0
LINE
  5
1CC
330
1C4
100
AcDbEntity
  8
0
  6
Continuous
 62
     0
370
     0
100
AcDbLine
 10
-1.25
 20
0.0
 30
0.0
 11
-2.5
 21
0.0
 31
0.0
  0
LINE
  5
1CD
330
1C4
100
AcDbEntity
  8
0
  6
Continuous
 62
     0
370
     0
100
AcDbLine
 10
0.0
 20
-1.25
 30
0.0
 11
0.0
 21
-2.5
 31
0.0
  0
LINE
  5
1CE
330
1C4
100
AcDbEntity
  8
0
  6
Continuous
 62
     0
370
     0
100
AcDbLine
 10
1.25
 20
0.0
 30
0.0
 11
2.5
 21
0.0
 31
0.0
  0
ENDBLK
  5
1C6
330
1C4
100
AcDbEntity
  8
0
100
AcDbBlockEnd
  0
BLOCK
  5
1D1
330
1D0
100
AcDbEntity
  8
0
100
AcDbBlockBegin
  2
SW_CENTERMARKSYMBOL_4
 70
     0
 71
     0
 10
0.0
 20
0.0
 30
0.0
  3
SW_CENTERMARKSYMBOL_4
  1

  0
LINE
  5
1D3
330
1D0
100
AcDbEntity
  8
0
  6
Continuous
 62
     0
370
     0
100
AcDbLine
 10
0.0
 20
0.0
 30
0.0
 11
0.0
 21
1.25
 31
0.0
  0
LINE
  5
1D4
330
1D0
100
AcDbEntity
  8
0
  6
Continuous
 62
     0
370
     0
100
AcDbLine
 10
0.0
 20
0.0
 30
0.0
 11
-1.25
 21
0.0
 31
0.0
  0
LINE
  5
1D5
330
1D0
100
AcDbEntity
  8
0
  6
Continuous
 62
     0
370
     0
100
AcDbLine
 10
0.0
 20
0.0
 30
0.0
 11
0.0
 21
-1.25
 31
0.0
  0
LINE
  5
1D6
330
1D0
100
AcDbEntity
  8
0
  6
Continuous
 62
     0
370
     0
100
AcDbLine
 10
0.0
 20
0.0
 30
0.0
 11
1.25
 21
0.0
 31
0.0
  0
LINE
  5
1D7
330
1D0
100
AcDbEntity
  8
0
  6
Continuous
 62
     0
370
     0
100
AcDbLine
 10
0.0
 20
1.25
 30
0.0
 11
0.0
 21
2.5
 31
0.0
  0
LINE
  5
1D8
330
1D0
100
AcDbEntity
  8
0
  6
Continuous
 62
     0
370
     0
100
AcDbLine
 10
-1.25
 20
0.0
 30
0.0
 11
-2.5
 21
0.0
 31
0.0
  0
LINE
  5
1D9
330
1D0
100
AcDbEntity
  8
0
  6
Continuous
 62
     0
370
     0
100
AcDbLine
 10
0.0
 20
-1.25
 30
0.0
 11
0.0
 21
-2.5
 31
0.0
  0
LINE
  5
1DA
330
1D0
100
AcDbEntity
  8
0
  6
Continuous
 62
     0
370
     0
100
AcDbLine
 10
1.25
 20
0.0
 30
0.0
 11
2.5
 21
0.0
 31
0.0
  0
ENDBLK
  5
1D2
330
1D0
100
AcDbEntity
  8
0
100
AcDbBlockEnd
  0
BLOCK
  5
1DD
330
1DC
100
AcDbEntity
  8
0
100
AcDbBlockBegin
  2
SW_CENTERMARKSYMBOL_5
 70
     0
 71
     0
 10
0.0
 20
0.0
 30
0.0
  3
SW_CENTERMARKSYMBOL_5
  1

  0
LINE
  5
1DF
330
1DC
100
AcDbEntity
  8
0
  6
Continuous
 62
     0
370
     0
100
AcDbLine
 10
0.0
 20
0.0
 30
0.0
 11
0.0
 21
1.25
 31
0.0
  0
LINE
  5
1E0
330
1DC
100
AcDbEntity
  8
0
  6
Continuous
 62
     0
370
     0
100
AcDbLine
 10
0.0
 20
0.0
 30
0.0
 11
-1.25
 21
0.0
 31
0.0
  0
LINE
  5
1E1
330
1DC
100
AcDbEntity
  8
0
  6
Continuous
 62
     0
370
     0
100
AcDbLine
 10
0.0
 20
0.0
 30
0.0
 11
0.0
 21
-1.25
 31
0.0
  0
LINE
  5
1E2
330
1DC
100
AcDbEntity
  8
0
  6
Continuous
 62
     0
370
     0
100
AcDbLine
 10
0.0
 20
0.0
 30
0.0
 11
1.25
 21
0.0
 31
0.0
  0
LINE
  5
1E3
330
1DC
100
AcDbEntity
  8
0
  6
Continuous
 62
     0
370
     0
100
AcDbLine
 10
0.0
 20
1.25
 30
0.0
 11
0.0
 21
2.25
 31
0.0
  0
LINE
  5
1E4
330
1DC
100
AcDbEntity
  8
0
  6
Continuous
 62
     0
370
     0
100
AcDbLine
 10
-1.25
 20
0.0
 30
0.0
 11
-2.25
 21
0.0
 31
0.0
  0
LINE
  5
1E5
330
1DC
100
AcDbEntity
  8
0
  6
Continuous
 62
     0
370
     0
100
AcDbLine
 10
0.0
 20
-1.25
 30
0.0
 11
0.0
 21
-2.25
 31
0.0
  0
LINE
  5
1E6
330
1DC
100
AcDbEntity
  8
0
  6
Continuous
 62
     0
370
     0
100
AcDbLine
 10
1.25
 20
0.0
 30
0.0
 11
2.25
 21
0.0
 31
0.0
  0
ENDBLK
  5
1DE
330
1DC
100
AcDbEntity
  8
0
100
AcDbBlockEnd
  0
BLOCK
  5
1E9
330
1E8
100
AcDbEntity
  8
0
100
AcDbBlockBegin
  2
SW_CENTERMARKSYMBOL_6
 70
     0
 71
     0
 10
0.0
 20
0.0
 30
0.0
  3
SW_CENTERMARKSYMBOL_6
  1

  0
LINE
  5
1EB
330
1E8
100
AcDbEntity
  8
0
  6
Continuous
 62
     0
370
     0
100
AcDbLine
 10
0.0
 20
0.0
 30
0.0
 11
0.0
 21
1.25
 31
0.0
  0
LINE
  5
1EC
330
1E8
100
AcDbEntity
  8
0
  6
Continuous
 62
     0
370
     0
100
AcDbLine
 10
0.0
 20
0.0
 30
0.0
 11
-1.25
 21
0.0
 31
0.0
  0
LINE
  5
1ED
330
1E8
100
AcDbEntity
  8
0
  6
Continuous
 62
     0
370
     0
100
AcDbLine
 10
0.0
 20
0.0
 30
0.0
 11
0.0
 21
-1.25
 31
0.0
  0
LINE
  5
1EE
330
1E8
100
AcDbEntity
  8
0
  6
Continuous
 62
     0
370
     0
100
AcDbLine
 10
0.0
 20
0.0
 30
0.0
 11
1.25
 21
0.0
 31
0.0
  0
LINE
  5
1EF
330
1E8
100
AcDbEntity
  8
0
  6
Continuous
 62
     0
370
     0
100
AcDbLine
 10
0.0
 20
1.25
 30
0.0
 11
0.0
 21
2.25
 31
0.0
  0
LINE
  5
1F0
330
1E8
100
AcDbEntity
  8
0
  6
Continuous
 62
     0
370
     0
100
AcDbLine
 10
-1.25
 20
0.0
 30
0.0
 11
-2.25
 21
0.0
 31
0.0
  0
LINE
  5
1F1
330
1E8
100
AcDbEntity
  8
0
  6
Continuous
 62
     0
370
     0
100
AcDbLine
 10
0.0
 20
-1.25
 30
0.0
 11
0.0
 21
-2.25
 31
0.0
  0
LINE
  5
1F2
330
1E8
100
AcDbEntity
  8
0
  6
Continuous
 62
     0
370
     0
100
AcDbLine
 10
1.25
 20
0.0
 30
0.0
 11
2.25
 21
0.0
 31
0.0
  0
ENDBLK
  5
1EA
330
1E8
100
AcDbEntity
  8
0
100
AcDbBlockEnd
  0
BLOCK
  5
1F5
330
1F4
100
AcDbEntity
  8
0
100
AcDbBlockBegin
  2
SW_CENTERMARKSYMBOL_7
 70
     0
 71
     0
 10
0.0
 20
0.0
 30
0.0
  3
SW_CENTERMARKSYMBOL_7
  1

  0
LINE
  5
1F7
330
1F4
100
AcDbEntity
  8
0
  6
Continuous
 62
     0
370
     0
100
AcDbLine
 10
0.0
 20
0.0
 30
0.0
 11
0.0
 21
1.25
 31
0.0
  0
LINE
  5
1F8
330
1F4
100
AcDbEntity
  8
0
  6
Continuous
 62
     0
370
     0
100
AcDbLine
 10
0.0
 20
0.0
 30
0.0
 11
-1.25
 21
0.0
 31
0.0
  0
LINE
  5
1F9
330
1F4
100
AcDbEntity
  8
0
  6
Continuous
 62
     0
370
     0
100
AcDbLine
 10
0.0
 20
0.0
 30
0.0
 11
0.0
 21
-1.25
 31
0.0
  0
LINE
  5
1FA
330
1F4
100
AcDbEntity
  8
0
  6
Continuous
 62
     0
370
     0
100
AcDbLine
 10
0.0
 20
0.0
 30
0.0
 11
1.25
 21
0.0
 31
0.0
  0
LINE
  5
1FB
330
1F4
100
AcDbEntity
  8
0
  6
Continuous
 62
     0
370
     0
100
AcDbLine
 10
0.0
 20
1.25
 30
0.0
 11
0.0
 21
2.5
 31
0.0
  0
LINE
  5
1FC
330
1F4
100
AcDbEntity
  8
0
  6
Continuous
 62
     0
370
     0
100
AcDbLine
 10
-1.25
 20
0.0
 30
0.0
 11
-2.5
 21
0.0
 31
0.0
  0
LINE
  5
1FD
330
1F4
100
AcDbEntity
  8
0
  6
Continuous
 62
     0
370
     0
100
AcDbLine
 10
0.0
 20
-1.25
 30
0.0
 11
0.0
 21
-2.5
 31
0.0
  0
LINE
  5
1FE
330
1F4
100
AcDbEntity
  8
0
  6
Continuous
 62
     0
370
     0
100
AcDbLine
 10
1.25
 20
0.0
 30
0.0
 11
2.5
 21
0.0
 31
0.0
  0
ENDBLK
  5
1F6
330
1F4
100
AcDbEntity
  8
0
100
AcDbBlockEnd
  0
BLOCK
  5
201
330
200
100
AcDbEntity
  8
0
100
AcDbBlockBegin
  2
SW_CENTERMARKSYMBOL_8
 70
     0
 71
     0
 10
0.0
 20
0.0
 30
0.0
  3
SW_CENTERMARKSYMBOL_8
  1

  0
LINE
  5
203
330
200
100
AcDbEntity
  8
0
  6
Continuous
 62
     0
370
     0
100
AcDbLine
 10
0.0
 20
0.0
 30
0.0
 11
0.0
 21
1.25
 31
0.0
  0
LINE
  5
204
330
200
100
AcDbEntity
  8
0
  6
Continuous
 62
     0
370
     0
100
AcDbLine
 10
0.0
 20
0.0
 30
0.0
 11
-1.25
 21
0.0
 31
0.0
  0
LINE
  5
205
330
200
100
AcDbEntity
  8
0
  6
Continuous
 62
     0
370
     0
100
AcDbLine
 10
0.0
 20
0.0
 30
0.0
 11
0.0
 21
-1.25
 31
0.0
  0
LINE
  5
206
330
200
100
AcDbEntity
  8
0
  6
Continuous
 62
     0
370
     0
100
AcDbLine
 10
0.0
 20
0.0
 30
0.0
 11
1.25
 21
0.0
 31
0.0
  0
LINE
  5
207
330
200
100
AcDbEntity
  8
0
  6
Continuous
 62
     0
370
     0
100
AcDbLine
 10
0.0
 20
1.25
 30
0.0
 11
0.0
 21
2.5
 31
0.0
  0
LINE
  5
208
330
200
100
AcDbEntity
  8
0
  6
Continuous
 62
     0
370
     0
100
AcDbLine
 10
-1.25
 20
0.0
 30
0.0
 11
-2.5
 21
0.0
 31
0.0
  0
LINE
  5
209
330
200
100
AcDbEntity
  8
0
  6
Continuous
 62
     0
370
     0
100
AcDbLine
 10
0.0
 20
-1.25
 30
0.0
 11
0.0
 21
-2.5
 31
0.0
  0
LINE
  5
20A
330
200
100
AcDbEntity
  8
0
  6
Continuous
 62
     0
370
     0
100
AcDbLine
 10
1.25
 20
0.0
 30
0.0
 11
2.5
 21
0.0
 31
0.0
  0
ENDBLK
  5
202
330
200
100
AcDbEntity
  8
0
100
AcDbBlockEnd
  0
BLOCK
  5
20D
330
20C
100
AcDbEntity
  8
0
100
AcDbBlockBegin
  2
SW_CENTERMARKSYMBOL_9
 70
     0
 71
     0
 10
0.0
 20
0.0
 30
0.0
  3
SW_CENTERMARKSYMBOL_9
  1

  0
LINE
  5
20F
330
20C
100
AcDbEntity
  8
0
  6
Continuous
 62
     0
370
     0
100
AcDbLine
 10
0.0
 20
0.0
 30
0.0
 11
0.0
 21
1.25
 31
0.0
  0
LINE
  5
210
330
20C
100
AcDbEntity
  8
0
  6
Continuous
 62
     0
370
     0
100
AcDbLine
 10
0.0
 20
0.0
 30
0.0
 11
-1.25
 21
0.0
 31
0.0
  0
LINE
  5
211
330
20C
100
AcDbEntity
  8
0
  6
Continuous
 62
     0
370
     0
100
AcDbLine
 10
0.0
 20
0.0
 30
0.0
 11
0.0
 21
-1.25
 31
0.0
  0
LINE
  5
212
330
20C
100
AcDbEntity
  8
0
  6
Continuous
 62
     0
370
     0
100
AcDbLine
 10
0.0
 20
0.0
 30
0.0
 11
1.25
 21
0.0
 31
0.0
  0
LINE
  5
213
330
20C
100
AcDbEntity
  8
0
  6
Continuous
 62
     0
370
     0
100
AcDbLine
 10
0.0
 20
1.25
 30
0.0
 11
0.0
 21
2.5
 31
0.0
  0
LINE
  5
214
330
20C
100
AcDbEntity
  8
0
  6
Continuous
 62
     0
370
     0
100
AcDbLine
 10
-1.25
 20
0.0
 30
0.0
 11
-2.5
 21
0.0
 31
0.0
  0
LINE
  5
215
330
20C
100
AcDbEntity
  8
0
  6
Continuous
 62
     0
370
     0
100
AcDbLine
 10
0.0
 20
-1.25
 30
0.0
 11
0.0
 21
-2.5
 31
0.0
  0
LINE
  5
216
330
20C
100
AcDbEntity
  8
0
  6
Continuous
 62
     0
370
     0
100
AcDbLine
 10
1.25
 20
0.0
 30
0.0
 11
2.5
 21
0.0
 31
0.0
  0
ENDBLK
  5
20E
330
20C
100
AcDbEntity
  8
0
100
AcDbBlockEnd
  0
BLOCK
  5
219
330
218
100
AcDbEntity
  8
0
100
AcDbBlockBegin
  2
SW_CENTERMARKSYMBOL_10
 70
     0
 71
     0
 10
0.0
 20
0.0
 30
0.0
  3
SW_CENTERMARKSYMBOL_10
  1

  0
LINE
  5
21B
330
218
100
AcDbEntity
  8
0
  6
Continuous
 62
     0
370
     0
100
AcDbLine
 10
0.0
 20
0.0
 30
0.0
 11
0.0
 21
1.25
 31
0.0
  0
LINE
  5
21C
330
218
100
AcDbEntity
  8
0
  6
Continuous
 62
     0
370
     0
100
AcDbLine
 10
0.0
 20
0.0
 30
0.0
 11
-1.25
 21
0.0
 31
0.0
  0
LINE
  5
21D
330
218
100
AcDbEntity
  8
0
  6
Continuous
 62
     0
370
     0
100
AcDbLine
 10
0.0
 20
0.0
 30
0.0
 11
0.0
 21
-1.25
 31
0.0
  0
LINE
  5
21E
330
218
100
AcDbEntity
  8
0
  6
Continuous
 62
     0
370
     0
100
AcDbLine
 10
0.0
 20
0.0
 30
0.0
 11
1.25
 21
0.0
 31
0.0
  0
LINE
  5
21F
330
218
100
AcDbEntity
  8
0
  6
Continuous
 62
     0
370
     0
100
AcDbLine
 10
0.0
 20
1.25
 30
0.0
 11
0.0
 21
2.5
 31
0.0
  0
LINE
  5
220
330
218
100
AcDbEntity
  8
0
  6
Continuous
 62
     0
370
     0
100
AcDbLine
 10
-1.25
 20
0.0
 30
0.0
 11
-2.5
 21
0.0
 31
0.0
  0
LINE
  5
221
330
218
100
AcDbEntity
  8
0
  6
Continuous
 62
     0
370
     0
100
AcDbLine
 10
0.0
 20
-1.25
 30
0.0
 11
0.0
 21
-2.5
 31
0.0
  0
LINE
  5
222
330
218
100
AcDbEntity
  8
0
  6
Continuous
 62
     0
370
     0
100
AcDbLine
 10
1.25
 20
0.0
 30
0.0
 11
2.5
 21
0.0
 31
0.0
  0
ENDBLK
  5
21A
330
218
100
AcDbEntity
  8
0
100
AcDbBlockEnd
  0
BLOCK
  5
225
330
224
100
AcDbEntity
  8
0
100
AcDbBlockBegin
  2
SW_CENTERMARKSYMBOL_11
 70
     0
 71
     0
 10
0.0
 20
0.0
 30
0.0
  3
SW_CENTERMARKSYMBOL_11
  1

  0
LINE
  5
227
330
224
100
AcDbEntity
  8
0
  6
Continuous
 62
     0
370
     0
100
AcDbLine
 10
0.0
 20
0.0
 30
0.0
 11
0.0
 21
1.25
 31
0.0
  0
LINE
  5
228
330
224
100
AcDbEntity
  8
0
  6
Continuous
 62
     0
370
     0
100
AcDbLine
 10
0.0
 20
0.0
 30
0.0
 11
-1.25
 21
0.0
 31
0.0
  0
LINE
  5
229
330
224
100
AcDbEntity
  8
0
  6
Continuous
 62
     0
370
     0
100
AcDbLine
 10
0.0
 20
0.0
 30
0.0
 11
0.0
 21
-1.25
 31
0.0
  0
LINE
  5
22A
330
224
100
AcDbEntity
  8
0
  6
Continuous
 62
     0
370
     0
100
AcDbLine
 10
0.0
 20
0.0
 30
0.0
 11
1.25
 21
0.0
 31
0.0
  0
LINE
  5
22B
330
224
100
AcDbEntity
  8
0
  6
Continuous
 62
     0
370
     0
100
AcDbLine
 10
0.0
 20
1.25
 30
0.0
 11
0.0
 21
2.5
 31
0.0
  0
LINE
  5
22C
330
224
100
AcDbEntity
  8
0
  6
Continuous
 62
     0
370
     0
100
AcDbLine
 10
-1.25
 20
0.0
 30
0.0
 11
-2.5
 21
0.0
 31
0.0
  0
LINE
  5
22D
330
224
100
AcDbEntity
  8
0
  6
Continuous
 62
     0
370
     0
100
AcDbLine
 10
0.0
 20
-1.25
 30
0.0
 11
0.0
 21
-2.5
 31
0.0
  0
LINE
  5
22E
330
224
100
AcDbEntity
  8
0
  6
Continuous
 62
     0
370
     0
100
AcDbLine
 10
1.25
 20
0.0
 30
0.0
 11
2.5
 21
0.0
 31
0.0
  0
ENDBLK
  5
226
330
224
100
AcDbEntity
  8
0
100
AcDbBlockEnd
  0
BLOCK
  5
231
330
230
100
AcDbEntity
  8
0
100
AcDbBlockBegin
  2
SW_CENTERMARKSYMBOL_12
 70
     0
 71
     0
 10
0.0
 20
0.0
 30
0.0
  3
SW_CENTERMARKSYMBOL_12
  1

  0
LINE
  5
233
330
230
100
AcDbEntity
  8
0
  6
Continuous
 62
     0
370
     0
100
AcDbLine
 10
0.0
 20
0.0
 30
0.0
 11
0.0
 21
1.25
 31
0.0
  0
LINE
  5
234
330
230
100
AcDbEntity
  8
0
  6
Continuous
 62
     0
370
     0
100
AcDbLine
 10
0.0
 20
0.0
 30
0.0
 11
-1.25
 21
0.0
 31
0.0
  0
LINE
  5
235
330
230
100
AcDbEntity
  8
0
  6
Continuous
 62
     0
370
     0
100
AcDbLine
 10
0.0
 20
0.0
 30
0.0
 11
0.0
 21
-1.25
 31
0.0
  0
LINE
  5
236
330
230
100
AcDbEntity
  8
0
  6
Continuous
 62
     0
370
     0
100
AcDbLine
 10
0.0
 20
0.0
 30
0.0
 11
1.25
 21
0.0
 31
0.0
  0
LINE
  5
237
330
230
100
AcDbEntity
  8
0
  6
Continuous
 62
     0
370
     0
100
AcDbLine
 10
0.0
 20
1.25
 30
0.0
 11
0.0
 21
2.5
 31
0.0
  0
LINE
  5
238
330
230
100
AcDbEntity
  8
0
  6
Continuous
 62
     0
370
     0
100
AcDbLine
 10
-1.25
 20
0.0
 30
0.0
 11
-2.5
 21
0.0
 31
0.0
  0
LINE
  5
239
330
230
100
AcDbEntity
  8
0
  6
Continuous
 62
     0
370
     0
100
AcDbLine
 10
0.0
 20
-1.25
 30
0.0
 11
0.0
 21
-2.5
 31
0.0
  0
LINE
  5
23A
330
230
100
AcDbEntity
  8
0
  6
Continuous
 62
     0
370
     0
100
AcDbLine
 10
1.25
 20
0.0
 30
0.0
 11
2.5
 21
0.0
 31
0.0
  0
ENDBLK
  5
232
330
230
100
AcDbEntity
  8
0
100
AcDbBlockEnd
  0
BLOCK
  5
23D
330
23C
100
AcDbEntity
  8
0
100
AcDbBlockBegin
  2
SW_CENTERMARKSYMBOL_13
 70
     0
 71
     0
 10
0.0
 20
0.0
 30
0.0
  3
SW_CENTERMARKSYMBOL_13
  1

  0
LINE
  5
23F
330
23C
100
AcDbEntity
  8
0
  6
Continuous
 62
     0
370
     0
100
AcDbLine
 10
0.0
 20
0.0
 30
0.0
 11
0.0
 21
1.25
 31
0.0
  0
LINE
  5
240
330
23C
100
AcDbEntity
  8
0
  6
Continuous
 62
     0
370
     0
100
AcDbLine
 10
0.0
 20
0.0
 30
0.0
 11
-1.25
 21
0.0
 31
0.0
  0
LINE
  5
241
330
23C
100
AcDbEntity
  8
0
  6
Continuous
 62
     0
370
     0
100
AcDbLine
 10
0.0
 20
0.0
 30
0.0
 11
0.0
 21
-1.25
 31
0.0
  0
LINE
  5
242
330
23C
100
AcDbEntity
  8
0
  6
Continuous
 62
     0
370
     0
100
AcDbLine
 10
0.0
 20
0.0
 30
0.0
 11
1.25
 21
0.0
 31
0.0
  0
LINE
  5
243
330
23C
100
AcDbEntity
  8
0
  6
Continuous
 62
     0
370
     0
100
AcDbLine
 10
0.0
 20
1.25
 30
0.0
 11
0.0
 21
2.5
 31
0.0
  0
LINE
  5
244
330
23C
100
AcDbEntity
  8
0
  6
Continuous
 62
     0
370
     0
100
AcDbLine
 10
-1.25
 20
0.0
 30
0.0
 11
-2.5
 21
0.0
 31
0.0
  0
LINE
  5
245
330
23C
100
AcDbEntity
  8
0
  6
Continuous
 62
     0
370
     0
100
AcDbLine
 10
0.0
 20
-1.25
 30
0.0
 11
0.0
 21
-2.5
 31
0.0
  0
LINE
  5
246
330
23C
100
AcDbEntity
  8
0
  6
Continuous
 62
     0
370
     0
100
AcDbLine
 10
1.25
 20
0.0
 30
0.0
 11
2.5
 21
0.0
 31
0.0
  0
ENDBLK
  5
23E
330
23C
100
AcDbEntity
  8
0
100
AcDbBlockEnd
  0
BLOCK
  5
249
330
248
100
AcDbEntity
  8
0
100
AcDbBlockBegin
  2
SW_CENTERMARKSYMBOL_14
 70
     0
 71
     0
 10
0.0
 20
0.0
 30
0.0
  3
SW_CENTERMARKSYMBOL_14
  1

  0
LINE
  5
24B
330
248
100
AcDbEntity
  8
0
  6
Continuous
 62
     0
370
     0
100
AcDbLine
 10
0.0
 20
0.0
 30
0.0
 11
0.0
 21
1.25
 31
0.0
  0
LINE
  5
24C
330
248
100
AcDbEntity
  8
0
  6
Continuous
 62
     0
370
     0
100
AcDbLine
 10
0.0
 20
0.0
 30
0.0
 11
-1.25
 21
0.0
 31
0.0
  0
LINE
  5
24D
330
248
100
AcDbEntity
  8
0
  6
Continuous
 62
     0
370
     0
100
AcDbLine
 10
0.0
 20
0.0
 30
0.0
 11
0.0
 21
-1.25
 31
0.0
  0
LINE
  5
24E
330
248
100
AcDbEntity
  8
0
  6
Continuous
 62
     0
370
     0
100
AcDbLine
 10
0.0
 20
0.0
 30
0.0
 11
1.25
 21
0.0
 31
0.0
  0
LINE
  5
24F
330
248
100
AcDbEntity
  8
0
  6
Continuous
 62
     0
370
     0
100
AcDbLine
 10
0.0
 20
1.25
 30
0.0
 11
0.0
 21
2.5
 31
0.0
  0
LINE
  5
250
330
248
100
AcDbEntity
  8
0
  6
Continuous
 62
     0
370
     0
100
AcDbLine
 10
-1.25
 20
0.0
 30
0.0
 11
-2.5
 21
0.0
 31
0.0
  0
LINE
  5
251
330
248
100
AcDbEntity
  8
0
  6
Continuous
 62
     0
370
     0
100
AcDbLine
 10
0.0
 20
-1.25
 30
0.0
 11
0.0
 21
-2.5
 31
0.0
  0
LINE
  5
252
330
248
100
AcDbEntity
  8
0
  6
Continuous
 62
     0
370
     0
100
AcDbLine
 10
1.25
 20
0.0
 30
0.0
 11
2.5
 21
0.0
 31
0.0
  0
ENDBLK
  5
24A
330
248
100
AcDbEntity
  8
0
100
AcDbBlockEnd
  0
BLOCK
  5
255
330
254
100
AcDbEntity
  8
0
100
AcDbBlockBegin
  2
SW_CENTERMARKSYMBOL_15
 70
     0
 71
     0
 10
0.0
 20
0.0
 30
0.0
  3
SW_CENTERMARKSYMBOL_15
  1

  0
LINE
  5
257
330
254
100
AcDbEntity
  8
0
  6
Continuous
 62
     0
370
     0
100
AcDbLine
 10
0.0
 20
0.0
 30
0.0
 11
0.0
 21
1.25
 31
0.0
  0
LINE
  5
258
330
254
100
AcDbEntity
  8
0
  6
Continuous
 62
     0
370
     0
100
AcDbLine
 10
0.0
 20
0.0
 30
0.0
 11
-1.25
 21
0.0
 31
0.0
  0
LINE
  5
259
330
254
100
AcDbEntity
  8
0
  6
Continuous
 62
     0
370
     0
100
AcDbLine
 10
0.0
 20
0.0
 30
0.0
 11
0.0
 21
-1.25
 31
0.0
  0
LINE
  5
25A
330
254
100
AcDbEntity
  8
0
  6
Continuous
 62
     0
370
     0
100
AcDbLine
 10
0.0
 20
0.0
 30
0.0
 11
1.25
 21
0.0
 31
0.0
  0
LINE
  5
25B
330
254
100
AcDbEntity
  8
0
  6
Continuous
 62
     0
370
     0
100
AcDbLine
 10
0.0
 20
1.25
 30
0.0
 11
0.0
 21
2.5
 31
0.0
  0
LINE
  5
25C
330
254
100
AcDbEntity
  8
0
  6
Continuous
 62
     0
370
     0
100
AcDbLine
 10
-1.25
 20
0.0
 30
0.0
 11
-2.5
 21
0.0
 31
0.0
  0
LINE
  5
25D
330
254
100
AcDbEntity
  8
0
  6
Continuous
 62
     0
370
     0
100
AcDbLine
 10
0.0
 20
-1.25
 30
0.0
 11
0.0
 21
-2.5
 31
0.0
  0
LINE
  5
25E
330
254
100
AcDbEntity
  8
0
  6
Continuous
 62
     0
370
     0
100
AcDbLine
 10
1.25
 20
0.0
 30
0.0
 11
2.5
 21
0.0
 31
0.0
  0
ENDBLK
  5
256
330
254
100
AcDbEntity
  8
0
100
AcDbBlockEnd
  0
BLOCK
  5
261
330
260
100
AcDbEntity
  8
0
100
AcDbBlockBegin
  2
SW_CENTERMARKSYMBOL_16
 70
     0
 71
     0
 10
0.0
 20
0.0
 30
0.0
  3
SW_CENTERMARKSYMBOL_16
  1

  0
LINE
  5
263
330
260
100
AcDbEntity
  8
0
  6
Continuous
 62
     0
370
     0
100
AcDbLine
 10
0.0
 20
0.0
 30
0.0
 11
0.0
 21
1.25
 31
0.0
  0
LINE
  5
264
330
260
100
AcDbEntity
  8
0
  6
Continuous
 62
     0
370
     0
100
AcDbLine
 10
0.0
 20
0.0
 30
0.0
 11
-1.25
 21
0.0
 31
0.0
  0
LINE
  5
265
330
260
100
AcDbEntity
  8
0
  6
Continuous
 62
     0
370
     0
100
AcDbLine
 10
0.0
 20
0.0
 30
0.0
 11
0.0
 21
-1.25
 31
0.0
  0
LINE
  5
266
330
260
100
AcDbEntity
  8
0
  6
Continuous
 62
     0
370
     0
100
AcDbLine
 10
0.0
 20
0.0
 30
0.0
 11
1.25
 21
0.0
 31
0.0
  0
LINE
  5
267
330
260
100
AcDbEntity
  8
0
  6
Continuous
 62
     0
370
     0
100
AcDbLine
 10
0.0
 20
1.25
 30
0.0
 11
0.0
 21
2.5
 31
0.0
  0
LINE
  5
268
330
260
100
AcDbEntity
  8
0
  6
Continuous
 62
     0
370
     0
100
AcDbLine
 10
-1.25
 20
0.0
 30
0.0
 11
-2.5
 21
0.0
 31
0.0
  0
LINE
  5
269
330
260
100
AcDbEntity
  8
0
  6
Continuous
 62
     0
370
     0
100
AcDbLine
 10
0.0
 20
-1.25
 30
0.0
 11
0.0
 21
-2.5
 31
0.0
  0
LINE
  5
26A
330
260
100
AcDbEntity
  8
0
  6
Continuous
 62
     0
370
     0
100
AcDbLine
 10
1.25
 20
0.0
 30
0.0
 11
2.5
 21
0.0
 31
0.0
  0
ENDBLK
  5
262
330
260
100
AcDbEntity
  8
0
100
AcDbBlockEnd
  0
BLOCK
  5
26D
330
26C
100
AcDbEntity
  8
0
100
AcDbBlockBegin
  2
SW_CENTERMARKSYMBOL_17
 70
     0
 71
     0
 10
0.0
 20
0.0
 30
0.0
  3
SW_CENTERMARKSYMBOL_17
  1

  0
LINE
  5
26F
330
26C
100
AcDbEntity
  8
0
  6
Continuous
 62
     0
370
     0
100
AcDbLine
 10
0.0
 20
0.0
 30
0.0
 11
0.0
 21
1.25
 31
0.0
  0
LINE
  5
270
330
26C
100
AcDbEntity
  8
0
  6
Continuous
 62
     0
370
     0
100
AcDbLine
 10
0.0
 20
0.0
 30
0.0
 11
-1.25
 21
0.0
 31
0.0
  0
LINE
  5
271
330
26C
100
AcDbEntity
  8
0
  6
Continuous
 62
     0
370
     0
100
AcDbLine
 10
0.0
 20
0.0
 30
0.0
 11
0.0
 21
-1.25
 31
0.0
  0
LINE
  5
272
330
26C
100
AcDbEntity
  8
0
  6
Continuous
 62
     0
370
     0
100
AcDbLine
 10
0.0
 20
0.0
 30
0.0
 11
1.25
 21
0.0
 31
0.0
  0
LINE
  5
273
330
26C
100
AcDbEntity
  8
0
  6
Continuous
 62
     0
370
     0
100
AcDbLine
 10
0.0
 20
1.25
 30
0.0
 11
0.0
 21
2.5
 31
0.0
  0
LINE
  5
274
330
26C
100
AcDbEntity
  8
0
  6
Continuous
 62
     0
370
     0
100
AcDbLine
 10
-1.25
 20
0.0
 30
0.0
 11
-2.5
 21
0.0
 31
0.0
  0
LINE
  5
275
330
26C
100
AcDbEntity
  8
0
  6
Continuous
 62
     0
370
     0
100
AcDbLine
 10
0.0
 20
-1.25
 30
0.0
 11
0.0
 21
-2.5
 31
0.0
  0
LINE
  5
276
330
26C
100
AcDbEntity
  8
0
  6
Continuous
 62
     0
370
     0
100
AcDbLine
 10
1.25
 20
0.0
 30
0.0
 11
2.5
 21
0.0
 31
0.0
  0
ENDBLK
  5
26E
330
26C
100
AcDbEntity
  8
0
100
AcDbBlockEnd
  0
BLOCK
  5
279
330
278
100
AcDbEntity
  8
0
100
AcDbBlockBegin
  2
SW_CENTERMARKSYMBOL_18
 70
     0
 71
     0
 10
0.0
 20
0.0
 30
0.0
  3
SW_CENTERMARKSYMBOL_18
  1

  0
LINE
  5
27B
330
278
100
AcDbEntity
  8
0
  6
Continuous
 62
     0
370
     0
100
AcDbLine
 10
0.0
 20
0.0
 30
0.0
 11
0.0
 21
1.25
 31
0.0
  0
LINE
  5
27C
330
278
100
AcDbEntity
  8
0
  6
Continuous
 62
     0
370
     0
100
AcDbLine
 10
0.0
 20
0.0
 30
0.0
 11
-1.25
 21
0.0
 31
0.0
  0
LINE
  5
27D
330
278
100
AcDbEntity
  8
0
  6
Continuous
 62
     0
370
     0
100
AcDbLine
 10
0.0
 20
0.0
 30
0.0
 11
0.0
 21
-1.25
 31
0.0
  0
LINE
  5
27E
330
278
100
AcDbEntity
  8
0
  6
Continuous
 62
     0
370
     0
100
AcDbLine
 10
0.0
 20
0.0
 30
0.0
 11
1.25
 21
0.0
 31
0.0
  0
LINE
  5
27F
330
278
100
AcDbEntity
  8
0
  6
Continuous
 62
     0
370
     0
100
AcDbLine
 10
0.0
 20
1.25
 30
0.0
 11
0.0
 21
2.5
 31
0.0
  0
LINE
  5
280
330
278
100
AcDbEntity
  8
0
  6
Continuous
 62
     0
370
     0
100
AcDbLine
 10
-1.25
 20
0.0
 30
0.0
 11
-2.5
 21
0.0
 31
0.0
  0
LINE
  5
281
330
278
100
AcDbEntity
  8
0
  6
Continuous
 62
     0
370
     0
100
AcDbLine
 10
0.0
 20
-1.25
 30
0.0
 11
0.0
 21
-2.5
 31
0.0
  0
LINE
  5
282
330
278
100
AcDbEntity
  8
0
  6
Continuous
 62
     0
370
     0
100
AcDbLine
 10
1.25
 20
0.0
 30
0.0
 11
2.5
 21
0.0
 31
0.0
  0
ENDBLK
  5
27A
330
278
100
AcDbEntity
  8
0
100
AcDbBlockEnd
  0
ENDSEC
  0
SECTION
  2
ENTITIES
  0
LINE
  5
41
330
1F
100
AcDbEntity
  8
0
  6
Continuous
 62
     8
370
     0
100
AcDbLine
 10
8.3801458
 20
208.0786585366
 30
0.0
 11
270.0001458
 21
208.0786585366
 31
0.0
  0
LINE
  5
42
330
1F
100
AcDbEntity
  8
0
  6
Continuous
 62
     8
370
     0
100
AcDbLine
 10
8.3801458
 20
208.0786585366
 30
0.0
 11
8.3801458
 21
9.9586585366
 31
0.0
  0
LINE
  5
43
330
1F
100
AcDbEntity
  8
0
  6
Continuous
 62
     8
370
     0
100
AcDbLine
 10
270.0001458
 20
9.9586585366
 30
0.0
 11
8.3801458
 21
9.9586585366
 31
0.0
  0
LINE
  5
44
330
1F
100
AcDbEntity
  8
0
  6
Continuous
 62
     8
370
     0
100
AcDbLine
 10
270.0001458
 20
9.9586585366
 30
0.0
 11
270.0001458
 21
208.0786585366
 31
0.0
  0
LINE
  5
45
330
1F
100
AcDbEntity
  8
0
  6
Continuous
 62
     8
370
     0
100
AcDbLine
 10
143.0001458
 20
9.9586585366
 30
0.0
 11
143.0001458
 21
48.0586585366
 31
0.0
  0
LINE
  5
46
330
1F
100
AcDbEntity
  8
0
  6
Continuous
 62
     8
370
     0
100
AcDbLine
 10
143.0001458
 20
48.0586585366
 30
0.0
 11
270.0001458
 21
48.0586585366
 31
0.0
  0
LINE
  5
47
330
1F
100
AcDbEntity
  8
0
  6
Continuous
 62
     8
370
     0
100
AcDbLine
 10
176.4516579819
 20
48.0586585366
 30
0.0
 11
176.4516579819
 21
9.9586585366
 31
0.0
  0
LINE
  5
48
330
1F
100
AcDbEntity
  8
0
  6
Continuous
 62
     8
370
     0
100
AcDbLine
 10
211.1140303648
 20
48.0586585366
 30
0.0
 11
211.1140303648
 21
9.9586585366
 31
0.0
  0
LINE
  5
49
330
1F
100
AcDbEntity
  8
0
  6
Continuous
 62
     8
370
     0
100
AcDbLine
 10
211.1140303648
 20
13.1336585366
 30
0.0
 11
270.0001458
 21
13.1336585366
 31
0.0
  0
LINE
  5
4A
330
1F
100
AcDbEntity
  8
0
  6
Continuous
 62
     8
370
     0
100
AcDbLine
 10
211.1140303648
 20
19.4836585366
 30
0.0
 11
270.0001458
 21
19.4836585366
 31
0.0
  0
LINE
  5
4B
330
1F
100
AcDbEntity
  8
0
  6
Continuous
 62
     8
370
     0
100
AcDbLine
 10
176.4516579819
 20
25.1986585366
 30
0.0
 11
211.1140303648
 21
25.1986585366
 31
0.0
  0
LINE
  5
4C
330
1F
100
AcDbEntity
  8
0
  6
Continuous
 62
     8
370
     0
100
AcDbLine
 10
216.2120359495
 20
19.4836585366
 30
0.0
 11
216.2120359495
 21
13.1336585366
 31
0.0
  0
LINE
  5
4D
330
1F
100
AcDbEntity
  8
0
  6
Continuous
 62
     8
370
     0
100
AcDbLine
 10
252.6938254626
 20
13.1336585366
 30
0.0
 11
252.6938254626
 21
9.9586585366
 31
0.0
  0
LINE
  5
4E
330
1F
100
AcDbEntity
  8
0
  6
Continuous
 62
     8
370
     0
100
AcDbLine
 10
263.5695287515
 20
19.4836585366
 30
0.0
 11
263.5695287515
 21
13.1336585366
 31
0.0
  0
LINE
  5
4F
330
1F
100
AcDbEntity
  8
0
  6
Continuous
 62
     8
370
     0
100
AcDbLine
 10
222.990073301
 20
13.1336585366
 30
0.0
 11
222.990073301
 21
9.9586585366
 31
0.0
  0
LINE
  5
50
330
1F
100
AcDbEntity
  8
0
  6
Continuous
 62
     8
370
     0
100
AcDbLine
 10
199.3765949972
 20
48.0586585366
 30
0.0
 11
199.3765949972
 21
25.1986585366
 31
0.0
  0
LINE
  5
51
330
1F
100
AcDbEntity
  8
0
  6
Continuous
 62
     8
370
     0
100
AcDbLine
 10
143.0001458
 20
15.7358512153
 30
0.0
 11
176.4516579819
 21
15.7358512153
 31
0.0
  0
LINE
  5
52
330
1F
100
AcDbEntity
  8
0
  6
Continuous
 62
     8
370
     0
100
AcDbLine
 10
176.4516579819
 20
44.2486585366
 30
0.0
 11
211.1140303648
 21
44.2486585366
 31
0.0
  0
LINE
  5
53
330
1F
100
AcDbEntity
  8
0
  6
Continuous
 62
     8
370
     0
100
AcDbLine
 10
187.2851272337
 20
48.0586585366
 30
0.0
 11
187.2851272337
 21
25.1986585366
 31
0.0
  0
LINE
  5
54
330
1F
100
AcDbEntity
  8
0
  6
Continuous
 62
     8
370
     0
100
AcDbLine
 10
143.0001458
 20
22.0858512153
 30
0.0
 11
176.4516579819
 21
22.0858512153
 31
0.0
  0
LINE
  5
55
330
1F
100
AcDbEntity
  8
0
  6
Continuous
 62
     8
370
     0
100
AcDbLine
 10
176.4516579819
 20
28.3137757838
 30
0.0
 11
143.0001458
 21
28.3137757838
 31
0.0
  0
LINE
  5
56
330
1F
100
AcDbEntity
  8
0
  6
Continuous
 62
     8
370
     0
100
AcDbLine
 10
116.774944898
 20
9.9586585366
 30
0.0
 11
116.774944898
 21
48.0586585366
 31
0.0
  0
LINE
  5
57
330
1F
100
AcDbEntity
  8
0
  6
Continuous
 62
     8
370
     0
100
AcDbLine
 10
116.774944898
 20
48.0586585366
 30
0.0
 11
143.0001458
 21
48.0586585366
 31
0.0
  0
LINE
  5
58
330
1F
100
AcDbEntity
  8
0
  6
Continuous
 62
     8
370
     0
100
AcDbLine
 10
143.0001458
 20
15.7358512153
 30
0.0
 11
116.774944898
 21
15.7358512153
 31
0.0
  0
LINE
  5
59
330
1F
100
AcDbEntity
  8
0
  6
Continuous
 62
     8
370
     0
100
AcDbLine
 10
116.774944898
 20
32.8186585366
 30
0.0
 11
75.4398329509
 21
32.8186585366
 31
0.0
  0
LINE
  5
5A
330
1F
100
AcDbEntity
  8
0
  6
Continuous
 62
     8
370
     0
100
AcDbLine
 10
75.4398329509
 20
32.8186585366
 30
0.0
 11
75.4398329509
 21
9.9586585366
 31
0.0
  0
LINE
  5
5B
330
1F
100
AcDbEntity
  8
0
  6
Continuous
 62
     8
370
     0
100
AcDbLine
 10
130.026886898
 20
48.0586585366
 30
0.0
 11
130.026886898
 21
15.7358512153
 31
0.0
  0
LINE
  5
5C
330
1F
100
AcDbEntity
  8
0
  6
Continuous
 62
     8
370
     0
100
AcDbLine
 10
176.4516579819
 20
40.4386585366
 30
0.0
 11
270.0001458
 21
40.4386585366
 31
0.0
  0
LINE
  5
5D
330
1F
100
AcDbEntity
  8
0
  6
Continuous
 62
     8
370
     0
100
AcDbLine
 10
176.4516579819
 20
36.6286585366
 30
0.0
 11
211.1140303648
 21
36.6286585366
 31
0.0
  0
LINE
  5
5E
330
1F
100
AcDbEntity
  8
0
  6
Continuous
 62
     8
370
     0
100
AcDbLine
 10
176.4516579819
 20
32.8186585366
 30
0.0
 11
211.1140303648
 21
32.8186585366
 31
0.0
  0
LINE
  5
5F
330
1F
100
AcDbEntity
  8
0
  6
Continuous
 62
     8
370
     0
100
AcDbLine
 10
176.4516579819
 20
29.0086585366
 30
0.0
 11
211.1140303648
 21
29.0086585366
 31
0.0
  0
LINE
  5
60
330
1F
100
AcDbEntity
  8
0
  6
Continuous
 62
     8
370
     0
100
AcDbLine
 10
116.774944898
 20
44.2486585366
 30
0.0
 11
143.0001458
 21
44.2486585366
 31
0.0
  0
LINE
  5
61
330
1F
100
AcDbEntity
  8
0
  6
Continuous
 62
     8
370
     0
100
AcDbLine
 10
116.774944898
 20
40.4386585366
 30
0.0
 11
143.0001458
 21
40.4386585366
 31
0.0
  0
LINE
  5
62
330
1F
100
AcDbEntity
  8
0
  6
Continuous
 62
     8
370
     0
100
AcDbLine
 10
116.774944898
 20
36.6286585366
 30
0.0
 11
143.0001458
 21
36.6286585366
 31
0.0
  0
LINE
  5
63
330
1F
100
AcDbEntity
  8
0
  6
Continuous
 62
     8
370
     0
100
AcDbLine
 10
116.774944898
 20
32.8186585366
 30
0.0
 11
143.0001458
 21
32.8186585366
 31
0.0
  0
LINE
  5
64
330
1F
100
AcDbEntity
  8
0
  6
Continuous
 62
     8
370
     0
100
AcDbLine
 10
116.774944898
 20
29.0086585366
 30
0.0
 11
143.0001458
 21
29.0086585366
 31
0.0
  0
LINE
  5
65
330
1F
100
AcDbEntity
  8
0
  6
Continuous
 62
     8
370
     0
100
AcDbLine
 10
116.774944898
 20
25.1986585366
 30
0.0
 11
143.0001458
 21
25.1986585366
 31
0.0
  0
LINE
  5
66
330
1F
100
AcDbEntity
  8
0
  6
Continuous
 62
     8
370
     0
100
AcDbLine
 10
116.774944898
 20
21.3886585366
 30
0.0
 11
143.0001458
 21
21.3886585366
 31
0.0
  0
MTEXT
  5
68
330
1F
100
AcDbEntity
  8
0
  6
Continuous
 62
     8
370
     0
100
AcDbMText
 10
215.2254706525
 20
46.538780922
 30
0.0
 40
3.96875
 41
0.0
 71
     1
 72
     1
  1
<COMPANY NAME>
  7
SLDTEXTSTYLE0
 73
     1
 44
1.0
  0
MTEXT
  5
69
330
1F
100
AcDbEntity
  8
0
  6
Continuous
 62
     8
370
     0
100
AcDbMText
 10
211.7793376587
 20
12.287779388
 30
0.0
 40
1.3229166667
 41
0.0
 71
     1
 72
     1
  1
SCALE:1:5
  7
SLDTEXTSTYLE0
 73
     1
 44
1.0
  0
MTEXT
  5
6A
330
1F
100
AcDbEntity
  8
0
  6
Continuous
 62
     8
370
     0
100
AcDbMText
 10
211.9023496367
 20
18.9478116115
 30
0.0
 40
1.3229166667
 41
0.0
 71
     1
 72
     1
  1
SIZE
  7
SLDTEXTSTYLE0
 73
     1
 44
1.0
  0
MTEXT
  5
6B
330
1F
100
AcDbEntity
  8
0
  6
Continuous
 62
     8
370
     0
100
AcDbMText
 10
216.8536978539
 20
18.8439059874
 30
0.0
 40
1.3229166667
 41
0.0
 71
     1
 72
     1
  1
DWG.  NO.
  7
SLDTEXTSTYLE0
 73
     1
 44
1.0
  0
MTEXT
  5
6C
330
1F
100
AcDbEntity
  8
0
  6
Continuous
 62
     8
370
     0
100
AcDbMText
 10
212.3905251951
 20
16.9959962471
 30
0.0
 40
2.54
 41
0.0
 71
     1
 72
     1
  1
A
  7
SLDTEXTSTYLE0
 73
     1
 44
1.0
  0
MTEXT
  5
6D
330
1F
100
AcDbEntity
  8
0
  6
Continuous
 62
     8
370
     0
100
AcDbMText
 10
264.6045784572
 20
18.7653242907
 30
0.0
 40
1.3229166667
 41
0.0
 71
     1
 72
     1
  1
REV.
  7
SLDTEXTSTYLE0
 73
     1
 44
1.0
  0
MTEXT
  5
6E
330
1F
100
AcDbEntity
  8
0
  6
Continuous
 62
     8
370
     0
100
AcDbMText
 10
144.1376297307
 20
27.4692452041
 30
0.0
 40
1.3229166667
 41
0.0
 71
     1
 72
     1
  1
MATERIAL
  7
SLDTEXTSTYLE0
 73
     1
 44
1.0
  0
MTEXT
  5
6F
330
1F
100
AcDbEntity
  8
0
  6
Continuous
 62
     8
370
     0
100
AcDbMText
 10
144.107962828
 20
20.9903165296
 30
0.0
 40
1.3229166667
 41
0.0
 71
     1
 72
     1
  1
FINISH
  7
SLDTEXTSTYLE0
 73
     1
 44
1.0
  0
MTEXT
  5
70
330
1F
100
AcDbEntity
  8
0
  6
Continuous
 62
     8
370
     0
100
AcDbMText
 10
158.494379388
 20
26.8141189024
 30
0.0
 40
2.38125
 41
0.0
 71
     1
 72
     1
  1
--
  7
SLDTEXTSTYLE0
 73
     1
 44
1.0
  0
MTEXT
  5
71
330
1F
100
AcDbEntity
  8
0
  6
Continuous
 62
     8
370
     0
100
AcDbMText
 10
158.4300936069
 20
20.3772147063
 30
0.0
 40
2.38125
 41
0.0
 71
     1
 72
     1
  1
--
  7
SLDTEXTSTYLE0
 73
     1
 44
1.0
  0
MTEXT
  5
72
330
1F
100
AcDbEntity
  8
0
  6
Continuous
 62
     8
370
     0
100
AcDbMText
 10
146.1341158626
 20
13.6529556097
 30
0.0
 40
1.5875
 41
0.0
 71
     1
 72
     1
  1
DO  NOT  SCALE  DRAWING
  7
SLDTEXTSTYLE0
 73
     1
 44
1.0
  0
MTEXT
  5
73
330
1F
100
AcDbEntity
  8
0
  6
Continuous
 62
     8
370
     0
100
AcDbMText
 10
123.1373075583
 20
13.4423664803
 30
0.0
 40
1.5875
 41
0.0
 71
     1
 72
     1
  1
APPLICATION
  7
SLDTEXTSTYLE0
 73
     1
 44
1.0
  0
MTEXT
  5
74
330
1F
100
AcDbEntity
  8
0
  6
Continuous
 62
     8
370
     0
100
AcDbMText
 10
132.0022088559
 20
19.6077399289
 30
0.0
 40
1.5875
 41
0.0
 71
     1
 72
     1
  1
USED ON
  7
SLDTEXTSTYLE0
 73
     1
 44
1.0
  0
MTEXT
  5
75
330
1F
100
AcDbEntity
  8
0
  6
Continuous
 62
     8
370
     0
100
AcDbMText
 10
118.3327002182
 20
19.5541767099
 30
0.0
 40
1.5875
 41
0.0
 71
     1
 72
     1
  1
NEXT ASSY
  7
SLDTEXTSTYLE0
 73
     1
 44
1.0
  0
INSERT
  5
85
330
1F
100
AcDbEntity
  8
0
  6
Continuous
 62
     8
370
     0
100
AcDbBlockReference
  2
SW_NOTE_0
 10
144.3123020786
 20
44.0388576052
 30
0.0
  0
MTEXT
  5
86
330
1F
100
AcDbEntity
  8
0
  6
Continuous
 62
     8
370
     0
100
AcDbMText
 10
190.7830354534
 20
46.9111260877
 30
0.0
 40
1.3229166667
 41
0.0
 71
     1
 72
     1
  1
NAME
  7
SLDTEXTSTYLE0
 73
     1
 44
1.0
  0
MTEXT
  5
87
330
1F
100
AcDbEntity
  8
0
  6
Continuous
 62
     8
370
     0
100
AcDbMText
 10
203.0113593517
 20
46.8596896379
 30
0.0
 40
1.3229166667
 41
0.0
 71
     1
 72
     1
  1
DATE
  7
SLDTEXTSTYLE0
 73
     1
 44
1.0
  0
MTEXT
  5
88
330
1F
100
AcDbEntity
  8
0
  6
Continuous
 62
     8
370
     0
100
AcDbMText
 10
177.2844289847
 20
43.1662087989
 30
0.0
 40
1.3229166667
 41
0.0
 71
     1
 72
     1
  1
DRAWN
  7
SLDTEXTSTYLE0
 73
     1
 44
1.0
  0
MTEXT
  5
89
330
1F
100
AcDbEntity
  8
0
  6
Continuous
 62
     8
370
     0
100
AcDbMText
 10
177.3452511362
 20
39.1082779854
 30
0.0
 40
1.3229166667
 41
0.0
 71
     1
 72
     1
  1
CHECKED
  7
SLDTEXTSTYLE0
 73
     1
 44
1.0
  0
MTEXT
  5
8A
330
1F
100
AcDbEntity
  8
0
  6
Continuous
 62
     8
370
     0
100
AcDbMText
 10
177.3582907907
 20
35.4914942127
 30
0.0
 40
1.3229166667
 41
0.0
 71
     1
 72
     1
  1
ENG APPR.
  7
SLDTEXTSTYLE0
 73
     1
 44
1.0
  0
MTEXT
  5
8B
330
1F
100
AcDbEntity
  8
0
  6
Continuous
 62
     8
370
     0
100
AcDbMText
 10
177.3698846248
 20
31.7087450751
 30
0.0
 40
1.3229166667
 41
0.0
 71
     1
 72
     1
  1
MFG APPR.
  7
SLDTEXTSTYLE0
 73
     1
 44
1.0
  0
MTEXT
  5
8C
330
1F
100
AcDbEntity
  8
0
  6
Continuous
 62
     8
370
     0
100
AcDbMText
 10
177.4683412596
 20
27.9664834015
 30
0.0
 40
1.3229166667
 41
0.0
 71
     1
 72
     1
  1
Q.A.
  7
SLDTEXTSTYLE0
 73
     1
 44
1.0
  0
MTEXT
  5
8D
330
1F
100
AcDbEntity
  8
0
  6
Continuous
 62
     8
370
     0
100
AcDbMText
 10
253.207095084
 20
12.2932314478
 30
0.0
 40
1.27
 41
0.0
 71
     1
 72
     1
  1
SHEET 1 OF 1
  7
SLDTEXTSTYLE0
 73
     1
 44
1.0
  0
MTEXT
  5
8E
330
1F
100
AcDbEntity
  8
0
  6
Continuous
 62
     8
370
     0
100
AcDbMText
 10
223.7477120367
 20
12.1984788096
 30
0.0
 40
1.3229166667
 41
0.0
 71
     1
 72
     1
  1
WEIGHT:
  7
SLDTEXTSTYLE0
 73
     1
 44
1.0
  0
MTEXT
  5
8F
330
1F
100
AcDbEntity
  8
0
  6
Continuous
 62
     8
370
     0
100
AcDbMText
 10
177.5295819392
 20
24.4368224288
 30
0.0
 40
1.3229166667
 41
0.0
 71
     1
 72
     1
  1
COMMENTS:
  7
SLDTEXTSTYLE0
 73
     1
 44
1.0
  0
INSERT
  5
9A
330
1F
100
AcDbEntity
  8
0
  6
Continuous
 62
     8
370
     0
100
AcDbBlockReference
  2
SW_NOTE_1
 10
76.4054461413
 20
26.3388051665
 30
0.0
  0
MTEXT
  5
9B
330
1F
100
AcDbEntity
  8
0
  6
Continuous
 62
     8
370
     0
100
AcDbMText
 10
80.201927896
 20
31.3719365463
 30
0.0
 40
1.524
 41
0.0
 71
     1
 72
     1
  1
PROPRIETARY AND CONFIDENTIAL
  7
SLDTEXTSTYLE0
 73
     1
 44
1.0
  0
LINE
  5
9C
330
1F
100
AcDbEntity
  8
0
  6
Continuous
 62
     7
370
    15
100
AcDbLine
 10
67.8164647566
 20
56.5921691291
 30
0.0
 11
67.8164647566
 21
55.0921691291
 31
0.0
  0
LINE
  5
9D
330
1F
100
AcDbEntity
  8
0
  6
Continuous
 62
     7
370
    15
100
AcDbLine
 10
60.3164647566
 20
55.0921691291
 30
0.0
 11
60.3164647566
 21
56.5921691291
 31
0.0
  0
LINE
  5
9E
330
1F
100
AcDbEntity
  8
0
  6
Continuous
 62
     7
370
    15
100
AcDbLine
 10
67.8164647566
 20
55.0921691291
 30
0.0
 11
60.3164647566
 21
55.0921691291
 31
0.0
  0
LINE
  5
9F
330
1F
100
AcDbEntity
  8
0
  6
Continuous
 62
     7
370
    15
100
AcDbLine
 10
60.3164647566
 20
56.5921691291
 30
0.0
 11
67.8164647566
 21
56.5921691291
 31
0.0
  0
LINE
  5
A0
330
1F
100
AcDbEntity
  8
0
  6
Continuous
 62
     7
370
    15
100
AcDbLine
 10
72.3164647566
 20
56.5921691291
 30
0.0
 11
72.3164647566
 21
55.0921691291
 31
0.0
  0
LINE
  5
A1
330
1F
100
AcDbEntity
  8
0
  6
Continuous
 62
     7
370
    15
100
AcDbLine
 10
67.8164647566
 20
55.0921691291
 30
0.0
 11
72.3164647566
 21
55.0921691291
 31
0.0
  0
LINE
  5
A2
330
1F
100
AcDbEntity
  8
0
  6
Continuous
 62
     7
370
    15
100
AcDbLine
 10
67.8164647566
 20
56.5921691291
 30
0.0
 11
72.3164647566
 21
56.5921691291
 31
0.0
  0
LINE
  5
A3
330
1F
100
AcDbEntity
  8
0
  6
Continuous
 62
     7
370
    15
100
AcDbLine
 10
225.3164647566
 20
56.5921691291
 30
0.0
 11
225.3164647566
 21
55.0921691291
 31
0.0
  0
LINE
  5
A4
330
1F
100
AcDbEntity
  8
0
  6
Continuous
 62
     7
370
    15
100
AcDbLine
 10
217.8164647566
 20
55.0921691291
 30
0.0
 11
217.8164647566
 21
56.5921691291
 31
0.0
  0
LINE
  5
A5
330
1F
100
AcDbEntity
  8
0
  6
Continuous
 62
     7
370
    15
100
AcDbLine
 10
225.3164647566
 20
55.0921691291
 30
0.0
 11
217.8164647566
 21
55.0921691291
 31
0.0
  0
LINE
  5
A6
330
1F
100
AcDbEntity
  8
0
  6
Continuous
 62
     7
370
    15
100
AcDbLine
 10
217.8164647566
 20
56.5921691291
 30
0.0
 11
225.3164647566
 21
56.5921691291
 31
0.0
  0
LINE
  5
A7
330
1F
100
AcDbEntity
  8
0
  6
Continuous
 62
     7
370
    15
100
AcDbLine
 10
213.3164647566
 20
56.5921691291
 30
0.0
 11
213.3164647566
 21
55.0921691291
 31
0.0
  0
LINE
  5
A8
330
1F
100
AcDbEntity
  8
0
  6
Continuous
 62
     7
370
    15
100
AcDbLine
 10
213.3164647566
 20
55.0921691291
 30
0.0
 11
217.8164647566
 21
55.0921691291
 31
0.0
  0
LINE
  5
A9
330
1F
100
AcDbEntity
  8
0
  6
Continuous
 62
     7
370
    15
100
AcDbLine
 10
213.3164647566
 20
56.5921691291
 30
0.0
 11
217.8164647566
 21
56.5921691291
 31
0.0
  0
LINE
  5
AA
330
1F
100
AcDbEntity
  8
0
  6
Continuous
 62
     7
370
    15
100
AcDbLine
 10
225.3164647566
 20
55.0921691291
 30
0.0
 11
223.8164647566
 21
55.0921691291
 31
0.0
  0
LINE
  5
AB
330
1F
100
AcDbEntity
  8
0
  6
Continuous
 62
     7
370
    15
100
AcDbLine
 10
225.3164647566
 20
56.5921691291
 30
0.0
 11
223.8164647566
 21
56.5921691291
 31
0.0
  0
LINE
  5
AC
330
1F
100
AcDbEntity
  8
0
  6
Continuous
 62
     7
370
    15
100
AcDbLine
 10
61.8164647566
 20
55.0921691291
 30
0.0
 11
60.3164647566
 21
55.0921691291
 31
0.0
  0
LINE
  5
AD
330
1F
100
AcDbEntity
  8
0
  6
Continuous
 62
     7
370
    15
100
AcDbLine
 10
61.8164647566
 20
56.5921691291
 30
0.0
 11
60.3164647566
 21
56.5921691291
 31
0.0
  0
LINE
  5
AE
330
1F
100
AcDbEntity
  8
0
  6
Continuous
 62
     7
370
    15
100
AcDbLine
 10
72.3164647566
 20
55.0921691291
 30
0.0
 11
213.3164647566
 21
55.0921691291
 31
0.0
  0
LINE
  5
AF
330
1F
100
AcDbEntity
  8
0
  6
Continuous
 62
     7
370
    15
100
AcDbLine
 10
72.3164647566
 20
56.5921691291
 30
0.0
 11
213.3164647566
 21
56.5921691291
 31
0.0
  0
LINE
  5
B0
330
1F
100
AcDbEntity
  8
0
  6
Continuous
 62
     7
370
    15
100
AcDbLine
 10
225.3164647566
 20
55.0921691291
 30
0.0
 11
223.8164647566
 21
55.0921691291
 31
0.0
  0
LINE
  5
B1
330
1F
100
AcDbEntity
  8
0
  6
Continuous
 62
     7
370
    15
100
AcDbLine
 10
225.3164647566
 20
56.5921691291
 30
0.0
 11
223.8164647566
 21
56.5921691291
 31
0.0
  0
LINE
  5
B2
330
1F
100
AcDbEntity
  8
0
  6
Continuous
 62
     7
370
    15
100
AcDbLine
 10
61.8164647566
 20
55.0921691291
 30
0.0
 11
60.3164647566
 21
55.0921691291
 31
0.0
  0
LINE
  5
B3
330
1F
100
AcDbEntity
  8
0
  6
Continuous
 62
     7
370
    15
100
AcDbLine
 10
61.8164647566
 20
56.5921691291
 30
0.0
 11
60.3164647566
 21
56.5921691291
 31
0.0
  0
DIMENSION
  5
B4
330
1F
100
AcDbEntity
  8
FORMAT
100
AcDbDimension
  2
*D4
 10
57.5279293602
 20
55.0921691291
 30
0.0
 11
57.5279293602
 21
43.5308712448
 31
0.0
 70
   160
  1
(<>)
 71
     2
 42
-1.0
  3
SLDDIMSTYLE0
100
AcDbAlignedDimension
 13
60.3164647566
 23
56.5921691291
 33
0.0
 14
60.3164647566
 24
55.0921691291
 34
0.0
 50
90.0
100
AcDbRotatedDimension
  0
LINE
  5
CA
330
1F
100
AcDbEntity
  8
FORMAT
100
AcDbLine
 10
142.8164647566
 20
189.5859299286
 30
0.0
 11
142.8164647566
 21
75.0229289709
 31
0.0
  0
LINE
  5
CB
330
1F
100
AcDbEntity
  8
FORMAT
100
AcDbLine
 10
80.3164647566
 20
171.0859299286
 30
0.0
 11
80.3164647566
 21
151.0859299286
 31
0.0
  0
CIRCLE
  5
CC
330
1F
100
AcDbEntity
  8
0
  6
Continuous
 62
     7
370
    15
100
AcDbCircle
 10
220.3164647566
 20
91.0859299286
 30
0.0
 40
1.249999999999972
  0
CIRCLE
  5
CD
330
1F
100
AcDbEntity
  8
0
  6
Continuous
 62
     7
370
    15
100
AcDbCircle
 10
80.3164647566
 20
151.0859299286
 30
0.0
 40
1.0
  0
CIRCLE
  5
CE
330
1F
100
AcDbEntity
  8
0
  6
Continuous
 62
     7
370
    15
100
AcDbCircle
 10
220.3164647566
 20
135.5859299286
 30
0.0
 40
1.25
  0
CIRCLE
  5
CF
330
1F
100
AcDbEntity
  8
0
  6
Continuous
 62
     7
370
    15
100
AcDbCircle
 10
220.3164647566
 20
186.0859299286
 30
0.0
 40
1.25
  0
CIRCLE
  5
D0
330
1F
100
AcDbEntity
  8
0
  6
Continuous
 62
     7
370
    15
100
AcDbCircle
 10
80.3164647566
 20
171.0859299286
 30
0.0
 40
4.500000000000028
  0
LINE
  5
D1
330
1F
100
AcDbEntity
  8
0
  6
Continuous
 62
     7
370
    15
100
AcDbLine
 10
225.3164647566
 20
133.0859299286
 30
0.0
 11
223.8164647566
 21
133.0859299286
 31
0.0
  0
LINE
  5
D2
330
1F
100
AcDbEntity
  8
0
  6
Continuous
 62
     7
370
    15
100
AcDbLine
 10
223.8164647566
 20
133.0859299286
 30
0.0
 11
223.8164647566
 21
93.5859299286
 31
0.0
  0
LINE
  5
D3
330
1F
100
AcDbEntity
  8
0
  6
Continuous
 62
     7
370
    15
100
AcDbLine
 10
223.8164647566
 20
93.5859299286
 30
0.0
 11
225.3164647566
 21
93.5859299286
 31
0.0
  0
ARC
  5
D4
330
1F
100
AcDbEntity
  8
0
  6
Continuous
 62
     7
370
    15
100
AcDbCircle
 10
217.8164647566
 20
93.5859299286
 30
0.0
 40
7.5
100
AcDbArc
 50
270.0
 51
0.0
  0
LINE
  5
D5
330
1F
100
AcDbEntity
  8
0
  6
Continuous
 62
     7
370
    15
100
AcDbLine
 10
213.3164647566
 20
86.0859299286
 30
0.0
 11
217.8164647566
 21
86.0859299286
 31
0.0
  0
LINE
  5
D6
330
1F
100
AcDbEntity
  8
0
  6
Continuous
 62
     7
370
    15
100
AcDbLine
 10
213.3164647566
 20
144.5859299286
 30
0.0
 11
213.3164647566
 21
86.0859299286
 31
0.0
  0
LINE
  5
D7
330
1F
100
AcDbEntity
  8
0
  6
Continuous
 62
     7
370
    15
100
AcDbLine
 10
72.3164647566
 20
144.5859299286
 30
0.0
 11
213.3164647566
 21
144.5859299286
 31
0.0
  0
LINE
  5
D8
330
1F
100
AcDbEntity
  8
0
  6
Continuous
 62
     7
370
    15
100
AcDbLine
 10
72.3164647566
 20
86.0859299286
 30
0.0
 11
72.3164647566
 21
144.5859299286
 31
0.0
  0
LINE
  5
D9
330
1F
100
AcDbEntity
  8
0
  6
Continuous
 62
     7
370
    15
100
AcDbLine
 10
67.8164647566
 20
86.0859299286
 30
0.0
 11
72.3164647566
 21
86.0859299286
 31
0.0
  0
ARC
  5
DA
330
1F
100
AcDbEntity
  8
0
  6
Continuous
 62
     7
370
    15
100
AcDbCircle
 10
67.8164647566
 20
93.5859299286
 30
0.0
 40
7.5
100
AcDbArc
 50
180.0
 51
270.0
  0
LINE
  5
DB
330
1F
100
AcDbEntity
  8
0
  6
Continuous
 62
     7
370
    15
100
AcDbLine
 10
60.3164647566
 20
93.5859299286
 30
0.0
 11
61.8164647566
 21
93.5859299286
 31
0.0
  0
LINE
  5
DC
330
1F
100
AcDbEntity
  8
0
  6
Continuous
 62
     7
370
    15
100
AcDbLine
 10
61.8164647566
 20
93.5859299286
 30
0.0
 11
61.8164647566
 21
133.0859299286
 31
0.0
  0
LINE
  5
DD
330
1F
100
AcDbEntity
  8
0
  6
Continuous
 62
     7
370
    15
100
AcDbLine
 10
61.8164647566
 20
133.0859299286
 30
0.0
 11
60.3164647566
 21
133.0859299286
 31
0.0
  0
LINE
  5
DE
330
1F
100
AcDbEntity
  8
0
  6
Continuous
 62
     7
370
    15
100
AcDbLine
 10
60.3164647566
 20
138.0859299286
 30
0.0
 11
60.3164647566
 21
133.0859299286
 31
0.0
  0
LINE
  5
DF
330
1F
100
AcDbEntity
  8
0
  6
Continuous
 62
     7
370
    15
100
AcDbLine
 10
60.3164647566
 20
138.0859299286
 30
0.0
 11
61.8164647566
 21
138.0859299286
 31
0.0
  0
LINE
  5
E0
330
1F
100
AcDbEntity
  8
0
  6
Continuous
 62
     7
370
    15
100
AcDbLine
 10
61.8164647566
 20
138.0859299286
 30
0.0
 11
61.8164647566
 21
183.5859299286
 31
0.0
  0
LINE
  5
E1
330
1F
100
AcDbEntity
  8
0
  6
Continuous
 62
     7
370
    15
100
AcDbLine
 10
61.8164647566
 20
183.5859299286
 30
0.0
 11
60.3164647566
 21
183.5859299286
 31
0.0
  0
ARC
  5
E2
330
1F
100
AcDbEntity
  8
0
  6
Continuous
 62
     7
370
    15
100
AcDbCircle
 10
67.8164647566
 20
183.5859299286
 30
0.0
 40
7.5
100
AcDbArc
 50
90.0
 51
180.0
  0
LINE
  5
E3
330
1F
100
AcDbEntity
  8
0
  6
Continuous
 62
     7
370
    15
100
AcDbLine
 10
67.8164647566
 20
191.0859299286
 30
0.0
 11
67.8164647566
 21
189.5859299286
 31
0.0
  0
LINE
  5
E4
330
1F
100
AcDbEntity
  8
0
  6
Continuous
 62
     7
370
    15
100
AcDbLine
 10
67.8164647566
 20
189.5859299286
 30
0.0
 11
217.8164647566
 21
189.5859299286
 31
0.0
  0
LINE
  5
E5
330
1F
100
AcDbEntity
  8
0
  6
Continuous
 62
     7
370
    15
100
AcDbLine
 10
217.8164647566
 20
189.5859299286
 30
0.0
 11
217.8164647566
 21
191.0859299286
 31
0.0
  0
ARC
  5
E6
330
1F
100
AcDbEntity
  8
0
  6
Continuous
 62
     7
370
    15
100
AcDbCircle
 10
217.8164647566
 20
183.5859299286
 30
0.0
 40
7.5
100
AcDbArc
 50
0.0
 51
90.0
  0
LINE
  5
E7
330
1F
100
AcDbEntity
  8
0
  6
Continuous
 62
     7
370
    15
100
AcDbLine
 10
225.3164647566
 20
183.5859299286
 30
0.0
 11
223.8164647566
 21
183.5859299286
 31
0.0
  0
LINE
  5
E8
330
1F
100
AcDbEntity
  8
0
  6
Continuous
 62
     7
370
    15
100
AcDbLine
 10
223.8164647566
 20
183.5859299286
 30
0.0
 11
223.8164647566
 21
138.0859299286
 31
0.0
  0
LINE
  5
E9
330
1F
100
AcDbEntity
  8
0
  6
Continuous
 62
     7
370
    15
100
AcDbLine
 10
223.8164647566
 20
138.0859299286
 30
0.0
 11
225.3164647566
 21
138.0859299286
 31
0.0
  0
LINE
  5
EA
330
1F
100
AcDbEntity
  8
0
  6
Continuous
 62
     7
370
    15
100
AcDbLine
 10
225.3164647566
 20
133.0859299286
 30
0.0
 11
225.3164647566
 21
138.0859299286
 31
0.0
  0
CIRCLE
  5
EB
330
1F
100
AcDbEntity
  8
0
  6
Continuous
 62
     7
370
    15
100
AcDbCircle
 10
65.3164647566
 20
186.0859299286
 30
0.0
 40
1.250000000000028
  0
CIRCLE
  5
EC
330
1F
100
AcDbEntity
  8
0
  6
Continuous
 62
     7
370
    15
100
AcDbCircle
 10
65.3164647566
 20
135.5859299286
 30
0.0
 40
1.25
  0
CIRCLE
  5
ED
330
1F
100
AcDbEntity
  8
0
  6
Continuous
 62
     7
370
    15
100
AcDbCircle
 10
80.3164647566
 20
158.5859299286
 30
0.0
 40
1.0
  0
CIRCLE
  5
EE
330
1F
100
AcDbEntity
  8
0
  6
Continuous
 62
     7
370
    15
100
AcDbCircle
 10
65.3164647566
 20
91.0859299286
 30
0.0
 40
1.25
  0
CIRCLE
  5
EF
330
1F
100
AcDbEntity
  8
0
  6
Continuous
 62
     7
370
    15
100
AcDbCircle
 10
75.8164647566
 20
183.5859299286
 30
0.0
 40
1.25
  0
CIRCLE
  5
F0
330
1F
100
AcDbEntity
  8
0
  6
Continuous
 62
     7
370
    15
100
AcDbCircle
 10
67.8164647566
 20
175.5859299286
 30
0.0
 40
1.249999999999972
  0
CIRCLE
  5
F1
330
1F
100
AcDbEntity
  8
0
  6
Continuous
 62
     7
370
    15
100
AcDbCircle
 10
67.8164647566
 20
146.0859299286
 30
0.0
 40
1.249999999999972
  0
CIRCLE
  5
F2
330
1F
100
AcDbEntity
  8
0
  6
Continuous
 62
     7
370
    15
100
AcDbCircle
 10
67.8164647566
 20
125.0859299286
 30
0.0
 40
1.25
  0
CIRCLE
  5
F3
330
1F
100
AcDbEntity
  8
0
  6
Continuous
 62
     7
370
    15
100
AcDbCircle
 10
67.8164647566
 20
101.5859299286
 30
0.0
 40
1.25
  0
CIRCLE
  5
F4
330
1F
100
AcDbEntity
  8
0
  6
Continuous
 62
     7
370
    15
100
AcDbCircle
 10
209.8164647566
 20
183.5859299286
 30
0.0
 40
1.250000000000028
  0
CIRCLE
  5
F5
330
1F
100
AcDbEntity
  8
0
  6
Continuous
 62
     7
370
    15
100
AcDbCircle
 10
217.8164647566
 20
175.5859299286
 30
0.0
 40
1.25
  0
CIRCLE
  5
F6
330
1F
100
AcDbEntity
  8
0
  6
Continuous
 62
     7
370
    15
100
AcDbCircle
 10
217.8164647566
 20
146.0859299286
 30
0.0
 40
1.25
  0
CIRCLE
  5
F7
330
1F
100
AcDbEntity
  8
0
  6
Continuous
 62
     7
370
    15
100
AcDbCircle
 10
217.8164647566
 20
125.0859299286
 30
0.0
 40
1.249999999999972
  0
CIRCLE
  5
F8
330
1F
100
AcDbEntity
  8
0
  6
Continuous
 62
     7
370
    15
100
AcDbCircle
 10
217.8164647566
 20
101.5859299286
 30
0.0
 40
1.250000000000014
  0
DIMENSION
  5
F9
330
1F
100
AcDbEntity
  8
FORMAT
100
AcDbDimension
  2
*D5
 10
225.3164647566
 20
203.5346529016
 30
0.0
 11
141.9996614362
 21
203.5346529016
 31
0.0
 70
   160
  1
(<>)
 71
     2
 42
-1.0
  3
SLDDIMSTYLE1
100
AcDbAlignedDimension
 13
60.3164647566
 23
183.5859299286
 33
0.0
 14
225.3164647566
 24
183.5859299286
 34
0.0
 50
0.0
100
AcDbRotatedDimension
  0
DIMENSION
  5
106
330
1F
100
AcDbEntity
  8
FORMAT
100
AcDbDimension
  2
*D6
 10
253.3164647566
 20
86.0859299286
 30
0.0
 11
253.3164647566
 21
153.1737054085
 31
0.0
 70
   160
  1
(<>)
 71
     2
 42
-1.0
  3
SLDDIMSTYLE1
100
AcDbAlignedDimension
 13
217.8164647566
 23
191.0859299286
 33
0.0
 14
217.8164647566
 24
86.0859299286
 34
0.0
 50
90.0
100
AcDbRotatedDimension
  0
DIMENSION
  5
112
330
1F
100
AcDbEntity
  8
FORMAT
100
AcDbDimension
  2
*D7
 10
217.8164647566
 20
192.2652762988
 30
0.0
 11
141.9996614362
 21
192.2652762988
 31
0.0
 70
   160
  1
(<>)
 71
     2
 42
-1.0
  3
SLDDIMSTYLE1
100
AcDbAlignedDimension
 13
67.8164647566
 23
189.5859299286
 33
0.0
 14
217.8164647566
 24
189.5859299286
 34
0.0
100
AcDbRotatedDimension
  0
DIMENSION
  5
11E
330
1F
100
AcDbEntity
  8
FORMAT
100
AcDbDimension
  2
*D8
 10
213.3164647566
 20
132.5422921844
 30
0.0
 11
141.9996614362
 21
132.5422921844
 31
0.0
 70
   160
  1
(<>)
 71
     2
 42
-1.0
  3
SLDDIMSTYLE1
100
AcDbAlignedDimension
 13
72.3164647566
 23
144.5859299286
 33
0.0
 14
213.3164647566
 24
144.5859299286
 34
0.0
100
AcDbRotatedDimension
  0
DIMENSION
  5
12A
330
1F
100
AcDbEntity
  8
FORMAT
100
AcDbDimension
  2
*D9
 10
57.6211811473
 20
183.5859299286
 30
0.0
 11
57.6211811473
 21
164.6024645562
 31
0.0
 70
   160
  1
(<>)
 71
     2
 42
-1.0
  3
SLDDIMSTYLE1
100
AcDbAlignedDimension
 13
61.8164647566
 23
138.0859299286
 33
0.0
 14
61.8164647566
 24
183.5859299286
 34
0.0
 50
90.0
100
AcDbRotatedDimension
  0
DIMENSION
  5
136
330
1F
100
AcDbEntity
  8
FORMAT
100
AcDbDimension
  2
*D10
 10
57.6211811473
 20
133.0859299286
 30
0.0
 11
57.6211811473
 21
113.5340846292
 31
0.0
 70
   160
  1
(<>)
 71
     2
 42
-1.0
  3
SLDDIMSTYLE0
100
AcDbAlignedDimension
 13
61.8164647566
 23
93.5859299286
 33
0.0
 14
61.8164647566
 24
133.0859299286
 34
0.0
 50
90.0
100
AcDbRotatedDimension
  0
DIMENSION
  5
144
330
1F
100
AcDbEntity
  8
FORMAT
100
AcDbDimension
  2
*D11
 10
48.3019911436
 20
138.0859299286
 30
0.0
 11
48.3019911436
 21
135.0252212875
 31
0.0
 70
   160
  1
(<>)
 71
     2
 42
-1.0
  3
SLDDIMSTYLE0
100
AcDbAlignedDimension
 13
60.3164647566
 23
133.0859299286
 33
0.0
 14
60.3164647566
 24
138.0859299286
 34
0.0
 50
90.0
100
AcDbRotatedDimension
  0
DIMENSION
  5
152
330
1F
100
AcDbEntity
  8
FORMAT
100
AcDbDimension
  2
*D12
 10
206.1833676358
 20
86.0859299286
 30
0.0
 11
206.1833676358
 21
118.4875808237
 31
0.0
 70
   160
  1
(<>)
 71
     2
 42
-1.0
  3
SLDDIMSTYLE1
100
AcDbAlignedDimension
 13
213.3164647566
 23
144.5859299286
 33
0.0
 14
213.3164647566
 24
86.0859299286
 34
0.0
 50
90.0
100
AcDbRotatedDimension
  0
DIMENSION
  5
15D
330
1F
100
AcDbEntity
  8
FORMAT
100
AcDbDimension
  2
*D13
 10
223.8164647566
 20
135.1610350384
 30
0.0
 11
236.1148030919
 21
135.1610350384
 31
0.0
 70
   160
  1
(<>)
 71
     2
 42
-1.0
  3
SLDDIMSTYLE0
100
AcDbAlignedDimension
 13
225.3164647566
 23
133.0859299286
 33
0.0
 14
223.8164647566
 24
138.0859299286
 34
0.0
100
AcDbRotatedDimension
  0
DIMENSION
  5
16A
330
1F
100
AcDbEntity
  8
FORMAT
100
AcDbDimension
  2
*D14
 10
57.6211811473
 20
86.0859299286
 30
0.0
 11
57.6211811473
 21
88.6680447563
 31
0.0
 70
   160
  1
(<>)
 71
     2
 42
-1.0
  3
SLDDIMSTYLE0
100
AcDbAlignedDimension
 13
60.3164647566
 23
93.5859299286
 33
0.0
 14
67.8164647566
 24
86.0859299286
 34
0.0
 50
90.0
100
AcDbRotatedDimension
  0
DIMENSION
  5
178
330
1F
100
AcDbEntity
  8
FORMAT
100
AcDbDimension
  2
*D15
 10
72.3164647566
 20
70.0859299286
 30
0.0
 11
67.7199135024
 21
70.0859299286
 31
0.0
 70
   160
  1
(<>)
 71
     2
 42
-1.0
  3
SLDDIMSTYLE0
100
AcDbAlignedDimension
 13
61.8164647566
 23
93.5859299286
 33
0.0
 14
72.3164647566
 24
86.0859299286
 34
0.0
100
AcDbRotatedDimension
  0
DIMENSION
  5
186
330
1F
100
AcDbEntity
  8
FORMAT
100
AcDbDimension
  2
*D16
 10
217.8164647566
 20
93.5859299286
 30
0.0
 11
236.1148130919
 21
75.2876015968
 31
0.0
 70
   164
  1
(<>)
 71
     1
 42
-1.0
  3
SLDDIMSTYLE2
100
AcDbRadialDimension
 15
223.119765616
 25
88.2826290702
 35
0.0
 40
0.0
  0
DIMENSION
  5
192
330
1F
100
AcDbEntity
  8
FORMAT
100
AcDbDimension
  2
*D17
 10
236.1148030919
 20
191.0859299286
 30
0.0
 11
236.1148030919
 21
199.0821180879
 31
0.0
 70
   160
  1
(<>)
 71
     2
 42
-1.0
  3
SLDDIMSTYLE0
100
AcDbAlignedDimension
 13
217.8164647566
 23
189.5859299286
 33
0.0
 14
217.8164647566
 24
191.0859299286
 34
0.0
 50
90.0
100
AcDbRotatedDimension
  0
INSERT
  5
1AB
330
1F
100
AcDbEntity
  8
0
  6
Continuous
 62
     7
370
     0
100
AcDbBlockReference
  2
SW_CENTERMARKSYMBOL_0
 10
80.3164647566
 20
171.0859299286
 30
0.0
  0
INSERT
  5
1B7
330
1F
100
AcDbEntity
  8
0
  6
Continuous
 62
     7
370
     0
100
AcDbBlockReference
  2
SW_CENTERMARKSYMBOL_1
 10
65.3164647566
 20
186.0859299286
 30
0.0
  0
INSERT
  5
1C3
330
1F
100
AcDbEntity
  8
0
  6
Continuous
 62
     7
370
     0
100
AcDbBlockReference
  2
SW_CENTERMARKSYMBOL_2
 10
220.3164647566
 20
186.0859299286
 30
0.0
  0
INSERT
  5
1CF
330
1F
100
AcDbEntity
  8
0
  6
Continuous
 62
     7
370
     0
100
AcDbBlockReference
  2
SW_CENTERMARKSYMBOL_3
 10
65.3164647566
 20
135.5859299286
 30
0.0
  0
INSERT
  5
1DB
330
1F
100
AcDbEntity
  8
0
  6
Continuous
 62
     7
370
     0
100
AcDbBlockReference
  2
SW_CENTERMARKSYMBOL_4
 10
220.3164647566
 20
135.5859299286
 30
0.0
  0
INSERT
  5
1E7
330
1F
100
AcDbEntity
  8
0
  6
Continuous
 62
     7
370
     0
100
AcDbBlockReference
  2
SW_CENTERMARKSYMBOL_5
 10
80.3164647566
 20
158.5859299286
 30
0.0
  0
INSERT
  5
1F3
330
1F
100
AcDbEntity
  8
0
  6
Continuous
 62
     7
370
     0
100
AcDbBlockReference
  2
SW_CENTERMARKSYMBOL_6
 10
80.3164647566
 20
151.0859299286
 30
0.0
  0
INSERT
  5
1FF
330
1F
100
AcDbEntity
  8
0
  6
Continuous
 62
     7
370
     0
100
AcDbBlockReference
  2
SW_CENTERMARKSYMBOL_7
 10
65.3164647566
 20
91.0859299286
 30
0.0
  0
INSERT
  5
20B
330
1F
100
AcDbEntity
  8
0
  6
Continuous
 62
     7
370
     0
100
AcDbBlockReference
  2
SW_CENTERMARKSYMBOL_8
 10
220.3164647566
 20
91.0859299286
 30
0.0
  0
INSERT
  5
217
330
1F
100
AcDbEntity
  8
0
  6
Continuous
 62
     7
370
     0
100
AcDbBlockReference
  2
SW_CENTERMARKSYMBOL_9
 10
75.8164647566
 20
183.5859299286
 30
0.0
  0
INSERT
  5
223
330
1F
100
AcDbEntity
  8
0
  6
Continuous
 62
     7
370
     0
100
AcDbBlockReference
  2
SW_CENTERMARKSYMBOL_10
 10
67.8164647566
 20
175.5859299286
 30
0.0
  0
INSERT
  5
22F
330
1F
100
AcDbEntity
  8
0
  6
Continuous
 62
     7
370
     0
100
AcDbBlockReference
  2
SW_CENTERMARKSYMBOL_11
 10
67.8164647566
 20
146.0859299286
 30
0.0
  0
INSERT
  5
23B
330
1F
100
AcDbEntity
  8
0
  6
Continuous
 62
     7
370
     0
100
AcDbBlockReference
  2
SW_CENTERMARKSYMBOL_12
 10
67.8164647566
 20
125.0859299286
 30
0.0
  0
INSERT
  5
247
330
1F
100
AcDbEntity
  8
0
  6
Continuous
 62
     7
370
     0
100
AcDbBlockReference
  2
SW_CENTERMARKSYMBOL_13
 10
67.8164647566
 20
101.5859299286
 30
0.0
  0
INSERT
  5
253
330
1F
100
AcDbEntity
  8
0
  6
Continuous
 62
     7
370
     0
100
AcDbBlockReference
  2
SW_CENTERMARKSYMBOL_14
 10
209.8164647566
 20
183.5859299286
 30
0.0
  0
INSERT
  5
25F
330
1F
100
AcDbEntity
  8
0
  6
Continuous
 62
     7
370
     0
100
AcDbBlockReference
  2
SW_CENTERMARKSYMBOL_15
 10
217.8164647566
 20
175.5859299286
 30
0.0
  0
INSERT
  5
26B
330
1F
100
AcDbEntity
  8
0
  6
Continuous
 62
     7
370
     0
100
AcDbBlockReference
  2
SW_CENTERMARKSYMBOL_16
 10
217.8164647566
 20
146.0859299286
 30
0.0
  0
INSERT
  5
277
330
1F
100
AcDbEntity
  8
0
  6
Continuous
 62
     7
370
     0
100
AcDbBlockReference
  2
SW_CENTERMARKSYMBOL_17
 10
217.8164647566
 20
125.0859299286
 30
0.0
  0
INSERT
  5
283
330
1F
100
AcDbEntity
  8
0
  6
Continuous
 62
     7
370
     0
100
AcDbBlockReference
  2
SW_CENTERMARKSYMBOL_18
 10
217.8164647566
 20
101.5859299286
 30
0.0
  0
ENDSEC
  0
SECTION
  2
OBJECTS
  0
DICTIONARY
  5
C
330
0
100
AcDbDictionary
281
     1
  3
ACAD_GROUP
350
D
  3
ACAD_LAYOUT
350
1A
  3
ACAD_MLINESTYLE
350
17
  3
ACAD_PLOTSETTINGS
350
19
  3
ACAD_PLOTSTYLENAME
350
E
  3
ACAD_TABLESTYLE
350
284
  3
ACAD_VISUALSTYLE
350
2A
  3
AcDbVariableDictionary
350
285
  0
DICTIONARY
  5
D
102
{ACAD_REACTORS
330
C
102
}
330
C
100
AcDbDictionary
281
     1
  0
DICTIONARY
  5
1A
102
{ACAD_REACTORS
330
C
102
}
330
C
100
AcDbDictionary
281
     1
  3
Layout1
350
1E
  3
Layout2
350
26
  3
Model
350
22
  0
DICTIONARY
  5
17
102
{ACAD_REACTORS
330
C
102
}
330
C
100
AcDbDictionary
281
     1
  3
Standard
350
18
  0
DICTIONARY
  5
19
102
{ACAD_REACTORS
330
C
102
}
330
C
100
AcDbDictionary
281
     1
  0
ACDBDICTIONARYWDFLT
  5
E
102
{ACAD_REACTORS
330
C
102
}
330
C
100
AcDbDictionary
281
     1
  3
Normal
350
F
100
AcDbDictionaryWithDefault
340
F
  0
DICTIONARY
  5
284
102
{ACAD_REACTORS
330
C
102
}
330
C
100
AcDbDictionary
281
     1
  0
DICTIONARY
  5
2A
102
{ACAD_REACTORS
330
C
102
}
330
C
100
AcDbDictionary
281
     1
  3
2dWireframe
350
2F
  3
3D Hidden
350
31
  3
3dWireframe
350
30
  3
Basic
350
32
  3
Brighten
350
36
  3
ColorChange
350
3A
  3
Conceptual
350
34
  3
Dim
350
35
  3
Facepattern
350
39
  3
Flat
350
2B
  3
FlatWithEdges
350
2C
  3
Gouraud
350
2D
  3
GouraudWithEdges
350
2E
  3
Linepattern
350
38
  3
Realistic
350
33
  3
Thicken
350
37
  0
DICTIONARY
  5
285
102
{ACAD_REACTORS
330
C
102
}
330
C
100
AcDbDictionary
281
     1
  3
PSOLHEIGHT
350
287
  3
PSOLWIDTH
350
286
  0
LAYOUT
  5
1E
102
{ACAD_REACTORS
330
1A
102
}
330
1A
100
AcDbPlotSettings
  1

  2
none_device
  4

  6

 40
0.0
 41
0.0
 42
0.0
 43
0.0
 44
0.0
 45
0.0
 46
0.0
 47
0.0
 48
0.0
 49
0.0
140
0.0
141
0.0
142
1.0
143
1.0
 70
   688
 72
     0
 73
     0
 74
     5
  7

 75
    16
147
1.0
148
0.0
149
0.0
100
AcDbLayout
  1
Layout1
 70
     1
 71
     1
 10
0.0
 20
0.0
 11
420.0
 21
297.0
 12
0.0
 22
0.0
 32
0.0
 14
1.0000000000E+20
 24
1.0000000000E+20
 34
1.0000000000E+20
 15
-1.0000000000E+20
 25
-1.0000000000E+20
 35
-1.0000000000E+20
146
0.0
 13
0.0
 23
0.0
 33
0.0
 16
1.0
 26
0.0
 36
0.0
 17
0.0
 27
1.0
 37
0.0
 76
     0
330
1B
  0
LAYOUT
  5
26
102
{ACAD_REACTORS
330
1A
102
}
330
1A
100
AcDbPlotSettings
  1

  2
none_device
  4

  6

 40
0.0
 41
0.0
 42
0.0
 43
0.0
 44
0.0
 45
0.0
 46
0.0
 47
0.0
 48
0.0
 49
0.0
140
0.0
141
0.0
142
1.0
143
1.0
 70
   688
 72
     0
 73
     0
 74
     5
  7

 75
    16
147
1.0
148
0.0
149
0.0
100
AcDbLayout
  1
Layout2
 70
     1
 71
     2
 10
0.0
 20
0.0
 11
0.0
 21
0.0
 12
0.0
 22
0.0
 32
0.0
 14
0.0
 24
0.0
 34
0.0
 15
0.0
 25
0.0
 35
0.0
146
0.0
 13
0.0
 23
0.0
 33
0.0
 16
1.0
 26
0.0
 36
0.0
 17
0.0
 27
1.0
 37
0.0
 76
     0
330
23
  0
LAYOUT
  5
22
102
{ACAD_REACTORS
330
1A
102
}
330
1A
100
AcDbPlotSettings
  1

  2
none_device
  4

  6

 40
0.0
 41
0.0
 42
0.0
 43
0.0
 44
0.0
 45
0.0
 46
0.0
 47
0.0
 48
0.0
 49
0.0
140
0.0
141
0.0
142
1.0
143
1.0
 70
  1712
 72
     0
 73
     0
 74
     0
  7

 75
     0
147
1.0
148
0.0
149
0.0
100
AcDbLayout
  1
Model
 70
     1
 71
     0
 10
0.0
 20
0.0
 11
279.4
 21
215.9
 12
0.0
 22
0.0
 32
0.0
 14
0.0
 24
0.0
 34
0.0
 15
279.4
 25
215.9
 35
0.0
146
0.0
 13
0.0
 23
0.0
 33
0.0
 16
1.0
 26
0.0
 36
0.0
 17
0.0
 27
1.0
 37
0.0
 76
     0
330
1F
331
29
  0
MLINESTYLE
  5
18
102
{ACAD_REACTORS
330
17
102
}
330
17
100
AcDbMlineStyle
  2
Standard
 70
     0
  3

 62
   256
 51
90.0
 52
90.0
 71
     2
 49
0.5
 62
   256
  6
BYLAYER
 49
-0.5
 62
   256
  6
BYLAYER
  0
ACDBPLACEHOLDER
  5
F
102
{ACAD_REACTORS
330
E
102
}
330
E
  0
VISUALSTYLE
  5
2F
102
{ACAD_REACTORS
330
2A
102
}
330
2A
100
AcDbVisualStyle
  2
2dWireframe
 70
     4
 71
     0
 72
     2
 73
     0
 90
        0
 40
-0.6
 41
-30.0
 62
     5
 63
     7
 74
     1
 91
        4
 64
     7
 65
   257
 75
     1
175
     1
 42
1.0
 92
        0
 66
   257
 43
1.0
 76
     1
 77
     6
 78
     2
 67
     7
 79
     5
170
     0
171
     0
290
     0
174
     0
 93
        1
 44
0.0
173
     0
291
     0
 45
0.0
1001
ACAD
1000
AcDbSavedByObjectVersion
1070
     0
  0
VISUALSTYLE
  5
31
102
{ACAD_REACTORS
330
2A
102
}
330
2A
100
AcDbVisualStyle
  2
3D Hidden
 70
     6
 71
     1
 72
     2
 73
     2
 90
        0
 40
-0.6
 41
-30.0
 62
     5
 63
     7
 74
     2
 91
        2
 64
     7
 65
   257
 75
     2
175
     1
 42
40.0
 92
        0
 66
   257
 43
1.0
 76
     1
 77
     6
 78
     2
 67
     7
 79
     3
170
     0
171
     0
290
     0
174
     0
 93
        1
 44
0.0
173
     0
291
     0
 45
0.0
1001
ACAD
1000
AcDbSavedByObjectVersion
1070
     0
  0
VISUALSTYLE
  5
30
102
{ACAD_REACTORS
330
2A
102
}
330
2A
100
AcDbVisualStyle
  2
3dWireframe
 70
     5
 71
     0
 72
     2
 73
     0
 90
        0
 40
-0.6
 41
-30.0
 62
     5
 63
     7
 74
     1
 91
        4
 64
     7
 65
   257
 75
     1
175
     1
 42
1.0
 92
        0
 66
   257
 43
1.0
 76
     1
 77
     6
 78
     2
 67
     7
 79
     5
170
     0
171
     0
290
     0
174
     0
 93
        1
 44
0.0
173
     0
291
     0
 45
0.0
1001
ACAD
1000
AcDbSavedByObjectVersion
1070
     0
  0
VISUALSTYLE
  5
32
102
{ACAD_REACTORS
330
2A
102
}
330
2A
100
AcDbVisualStyle
  2
Basic
 70
     7
 71
     1
 72
     0
 73
     1
 90
        0
 40
-0.6
 41
-30.0
 62
     5
 63
     7
 74
     0
 91
        4
 64
     7
 65
   257
 75
     1
175
     1
 42
1.0
 92
        8
 66
     7
 43
1.0
 76
     1
 77
     6
 78
     2
 67
     7
 79
     5
170
     0
171
     0
290
     0
174
     0
 93
        1
 44
0.0
173
     0
291
     1
 45
0.0
1001
ACAD
1000
AcDbSavedByObjectVersion
1070
     0
  0
VISUALSTYLE
  5
36
102
{ACAD_REACTORS
330
2A
102
}
330
2A
100
AcDbVisualStyle
  2
Brighten
 70
    12
 71
     2
 72
     2
 73
     0
 90
        0
 40
-0.6
 41
-30.0
 62
     5
 63
     7
 74
     1
 91
        4
 64
     7
 65
   257
 75
     1
175
     1
 42
1.0
 92
        8
 66
     7
 43
1.0
 76
     1
 77
     6
 78
     2
 67
     7
 79
     5
170
     0
171
     0
290
     0
174
     0
 93
        1
 44
50.0
173
     0
291
     1
 45
0.0
1001
ACAD
1000
AcDbSavedByObjectVersion
1070
     0
  0
VISUALSTYLE
  5
3A
102
{ACAD_REACTORS
330
2A
102
}
330
2A
100
AcDbVisualStyle
  2
ColorChange
 70
    16
 71
     2
 72
     2
 73
     3
 90
        0
 40
-0.6
 41
-30.0
 62
     5
 63
     8
 74
     1
 91
        4
 64
     7
 65
   257
 75
     1
175
     1
 42
1.0
 92
        8
 66
     8
 43
1.0
 76
     1
 77
     6
 78
     2
 67
     7
 79
     5
170
     0
171
     0
290
     0
174
     0
 93
        1
 44
0.0
173
     0
291
     1
 45
0.0
1001
ACAD
1000
AcDbSavedByObjectVersion
1070
     0
  0
VISUALSTYLE
  5
34
102
{ACAD_REACTORS
330
2A
102
}
330
2A
100
AcDbVisualStyle
  2
Conceptual
 70
     9
 71
     3
 72
     2
 73
     0
 90
        0
 40
-0.6
 41
-30.0
 62
     5
 63
     7
 74
     2
 91
        2
 64
     7
 65
   257
 75
     1
175
     1
 42
40.0
 92
        8
 66
     7
 43
1.0
 76
     1
 77
     6
 78
     2
 67
     7
 79
     3
170
     0
171
     0
290
     0
174
     0
 93
        1
 44
0.0
173
     0
291
     0
 45
0.0
1001
ACAD
1000
AcDbSavedByObjectVersion
1070
     0
  0
VISUALSTYLE
  5
35
102
{ACAD_REACTORS
330
2A
102
}
330
2A
100
AcDbVisualStyle
  2
Dim
 70
    11
 71
     2
 72
     2
 73
     0
 90
        0
 40
-0.6
 41
-30.0
 62
     5
 63
     7
 74
     1
 91
        4
 64
     7
 65
   257
 75
     1
175
     1
 42
1.0
 92
        8
 66
     7
 43
1.0
 76
     1
 77
     6
 78
     2
 67
     7
 79
     5
170
     0
171
     0
290
     0
174
     0
 93
        1
 44
-50.0
173
     0
291
     1
 45
0.0
1001
ACAD
1000
AcDbSavedByObjectVersion
1070
     0
  0
VISUALSTYLE
  5
39
102
{ACAD_REACTORS
330
2A
102
}
330
2A
100
AcDbVisualStyle
  2
Facepattern
 70
    15
 71
     2
 72
     2
 73
     0
 90
        0
 40
-0.6
 41
-30.0
 62
     5
 63
     7
 74
     1
 91
        4
 64
     7
 65
   257
 75
     1
175
     1
 42
1.0
 92
        8
 66
     7
 43
1.0
 76
     1
 77
     6
 78
     2
 67
     7
 79
     5
170
     0
171
     0
290
     0
174
     0
 93
        1
 44
0.0
173
     0
291
     1
 45
0.0
1001
ACAD
1000
AcDbSavedByObjectVersion
1070
     0
  0
VISUALSTYLE
  5
2B
102
{ACAD_REACTORS
330
2A
102
}
330
2A
100
AcDbVisualStyle
  2
Flat
 70
     0
 71
     2
 72
     1
 73
     1
 90
        2
 40
-0.6
 41
30.0
 62
     5
 63
     7
 74
     0
 91
        4
 64
     7
 65
   257
 75
     1
175
     1
 42
1.0
 92
        8
 66
     7
 43
1.0
 76
     1
 77
     6
 78
     2
 67
     7
 79
     5
170
     0
171
     0
290
     0
174
     0
 93
       13
 44
0.0
173
     0
291
     1
 45
0.0
1001
ACAD
1000
AcDbSavedByObjectVersion
1070
     0
  0
VISUALSTYLE
  5
2C
102
{ACAD_REACTORS
330
2A
102
}
330
2A
100
AcDbVisualStyle
  2
FlatWithEdges
 70
     1
 71
     2
 72
     1
 73
     1
 90
        2
 40
-0.6
 41
30.0
 62
     5
 63
     7
 74
     1
 91
        4
 64
     7
 65
   257
 75
     1
175
     1
 42
1.0
 92
        0
 66
   257
 43
1.0
 76
     1
 77
     6
 78
     2
 67
     7
 79
     5
170
     0
171
     0
290
     0
174
     0
 93
       13
 44
0.0
173
     0
291
     1
 45
0.0
1001
ACAD
1000
AcDbSavedByObjectVersion
1070
     0
  0
VISUALSTYLE
  5
2D
102
{ACAD_REACTORS
330
2A
102
}
330
2A
100
AcDbVisualStyle
  2
Gouraud
 70
     2
 71
     2
 72
     2
 73
     1
 90
        2
 40
-0.6
 41
30.0
 62
     5
 63
     7
 74
     0
 91
        4
 64
     7
 65
   257
 75
     1
175
     1
 42
1.0
 92
        0
 66
     7
 43
1.0
 76
     1
 77
     6
 78
     2
 67
     7
 79
     5
170
     0
171
     0
290
     0
174
     0
 93
       13
 44
0.0
173
     0
291
     1
 45
0.0
1001
ACAD
1000
AcDbSavedByObjectVersion
1070
     0
  0
VISUALSTYLE
  5
2E
102
{ACAD_REACTORS
330
2A
102
}
330
2A
100
AcDbVisualStyle
  2
GouraudWithEdges
 70
     3
 71
     2
 72
     2
 73
     1
 90
        2
 40
-0.6
 41
30.0
 62
     5
 63
     7
 74
     1
 91
        4
 64
     7
 65
   257
 75
     1
175
     1
 42
1.0
 92
        0
 66
   257
 43
1.0
 76
     1
 77
     6
 78
     2
 67
     7
 79
     5
170
     0
171
     0
290
     0
174
     0
 93
       13
 44
0.0
173
     0
291
     1
 45
0.0
1001
ACAD
1000
AcDbSavedByObjectVersion
1070
     0
  0
VISUALSTYLE
  5
38
102
{ACAD_REACTORS
330
2A
102
}
330
2A
100
AcDbVisualStyle
  2
Linepattern
 70
    14
 71
     2
 72
     2
 73
     0
 90
        0
 40
-0.6
 41
-30.0
 62
     5
 63
     7
 74
     1
 91
        4
 64
     7
 65
   257
 75
     7
175
     7
 42
1.0
 92
        8
 66
     7
 43
1.0
 76
     1
 77
     6
 78
     2
 67
     7
 79
     5
170
     0
171
     0
290
     0
174
     0
 93
        1
 44
0.0
173
     0
291
     1
 45
0.0
1001
ACAD
1000
AcDbSavedByObjectVersion
1070
     0
  0
VISUALSTYLE
  5
33
102
{ACAD_REACTORS
330
2A
102
}
330
2A
100
AcDbVisualStyle
  2
Realistic
 70
     8
 71
     2
 72
     2
 73
     0
 90
        0
 40
-0.6
 41
-30.0
 62
     5
 63
     7
 74
     1
 91
        0
 64
     7
 65
   257
 75
     1
175
     1
 42
1.0
 92
        8
 66
     8
 43
1.0
 76
     1
 77
     6
 78
     2
 67
     7
 79
     5
170
     0
171
     0
290
     0
174
     0
 93
       13
 44
0.0
173
     0
291
     0
 45
0.0
1001
ACAD
1000
AcDbSavedByObjectVersion
1070
     0
  0
VISUALSTYLE
  5
37
102
{ACAD_REACTORS
330
2A
102
}
330
2A
100
AcDbVisualStyle
  2
Thicken
 70
    13
 71
     2
 72
     2
 73
     0
 90
        0
 40
-0.6
 41
-30.0
 62
     5
 63
     7
 74
     1
 91
        4
 64
     7
 65
   257
 75
     1
175
     1
 42
1.0
 92
       12
 66
     7
 43
1.0
 76
     1
 77
     6
 78
     2
 67
     7
 79
     5
170
     0
171
     0
290
     0
174
     0
 93
        1
 44
0.0
173
     0
291
     1
 45
0.0
1001
ACAD
1000
AcDbSavedByObjectVersion
1070
     0
  0
DICTIONARYVAR
  5
287
102
{ACAD_REACTORS
330
285
102
}
330
285
100
DictionaryVariables
280
     0
  1
80.000000
  0
DICTIONARYVAR
  5
286
102
{ACAD_REACTORS
330
285
102
}
330
285
100
DictionaryVariables
280
     0
  1
5.000000
  0
ENDSEC
  0
EOF
