M48
INCH
T01C0.0200
T02C0.0400
T03C0.1181
T04C0.0600
T05C0.0300
%
T01
X+005655Y+008267
X+003740Y+006692
X+003740Y+011370
X+004566Y+010370
X+004566Y+015559
X+007834Y+018582
X+004803Y+018582
X+006889Y+008267
X+006889Y+011417
X+006889Y+012598
X+006889Y+016732
X+005655Y+010669
T02
X+009834Y+008700
X+007834Y+009370
X+009834Y+010040
X+007834Y+010710
X+009834Y+011380
X+007834Y+012050
X+009834Y+012720
X+007834Y+013390
X+009834Y+014060
X+007834Y+014730
X+009834Y+015400
X+001716Y+011370
X+001716Y+010370
X+001716Y+009370
X+001716Y+008370
X+001716Y+007370
X+002716Y+007370
X+002716Y+008370
X+002716Y+009370
X+002716Y+010370
X+002716Y+011370
X+002440Y+019559
X+002440Y+018559
X+002440Y+017559
X+002440Y+016559
X+002440Y+015559
X+005905Y+022456
X+005905Y+021456
X+005905Y+020456
X+006889Y+004921
X+005889Y+004921
X+004889Y+004921
T03
X+001574Y+022047
X+009448Y+022047
X+001574Y+001574
X+009448Y+001574
T04
X+004896Y+001976
X+006866Y+001976
T05
X+008834Y+017125
X+009834Y+017125
X+008834Y+006889
X+009834Y+006889
X+006889Y+006692
X+005889Y+006692
X+002795Y+003881
X+002795Y+004881
X+005669Y+017913
X+005669Y+013913
M30
