**ABCDEFGHIJKLMNOPQRSTUVWXYZabcdefghijklmnopqrstuvwxyz**************************
**PARASOLID !"#$%&'()*+,-./:;<=>?@[\]^_`{|}~0123456789**************************
**PART1;
MC=x64/Windows NT;
MC_MODEL=genuineintel family 6 model 7 stepping 6, intel(r) core(tm)2 duo cpu     t8100  @ 2.10ghz;
MC_ID=darkflame;
OS=windows nt (x64);
OS_RELEASE=6.1 (workstation) (build 7601: service pack 1) ;
FRU=mdc_ugii_v7.0_djl_can_vrh;
APPL=unigraphics;
SITE=unknown;
USER=Hammerhead;
FORMAT=text;
GUISE=transmit;
KEY=1624TS;
FILE=E:\WORK\MISC\DI\MOTORS\2011-11-25\1624TS.x_t;
DATE=21-dec-2011;
**PART2;
SCH=SCH_2201175_20000;
USFLD_SIZE=0;
**PART3;
**END_OF_HEADER*****************************************************************
T51 : TRANSMIT FILE created by modeller version 220117523 SCH_2201175_20000_1300
6186 0 12 27 CCCCCCCCCCCCCCCCCCCCCCCA16 index_map_offset0 0 1 dA9 index_map82 0
 A17 node_id_index_map82 0 A20 schema_embedding_map82 0 Z1 1361 2 3 0 0 0 0 1e3
 1e-8 0 0 0 1 0 1 1 4 5 6 7 8 9 10 0 0 0 0 81 255 2 2 1252 11 1 0 0 0 0 12 13 70
 11 CI9 list_type0 0 1 uI10 notransmit0 0 1 lCCCDCCDI12 finger_index0 0 1 dI12 f
inger_block1012 0 CZ3 0 4 T1 0 0 3 20 1 14 14 13 255 4 91 0 1 0 15 0 0 16 0 50 2
55 5 90 0 17 18 0 0 +-.0091 -.001 .000750000000000015 1 867361737988405e-30 -134
6145417358002e-30 -1346145417358002e-30 0 -1 133 255 6 993 0 19 20 0 0 +21 -.005
3 -.001 .001 -.00793725393319377 -.001 .001000000000000014 0 .002637253933193775
 29 255 7 395 0 10 22 0 -.00793725393319377 .001 .001000000000000016 19 255 8 1
 0 1 16 0 23 V16 255 9 73 0 ?24 0 25 26 0 0 1 18 255 10 392 0 27 0 28 7 ?1 17 25
5 27 0 29 30 31 10 32 33 0 34 -18 28 388 0 35 10 36 22 ?1 17 35 0 29 37 38 28 39
 40 0 41 -18 36 383 0 31 28 42 43 ?1 29 22 391 0 28 43 7 -.00793725393319377 -.0
01 .001000000000000014 29 43 387 0 36 44 22 -.0079793091806246 .0005749999999999
89 .001000000000000016 29 44 382 0 42 45 43 -.0079793091806246 -.000575000000000
011 .001000000000000014 18 42 378 0 37 36 46 44 ?1 29 45 162 0 46 47 44 -.007 -.
00057500000000001 .000750000000000013 18 46 160 0 48 42 49 45 ?1 29 47 141 0 49
 50 45 -.007 -.00057500000000001 .001000000000000012 18 49 139 0 51 46 52 47 ?1
 29 50 67 0 53 54 47 -.0053 -.001 .001 18 53 54 0 55 56 57 50 1e-8 1 29 54 69 0
 57 58 50 -.0091 .001 .001000000000000018 18 57 58 0 30 53 59 54 ?1 29 58 70 0 5
9 60 54 -.0091 -.001 .001000000000000014 18 59 60 0 39 57 61 58 ?1 29 60 17 0 52
 62 58 -.0053 -.001 .00075000000000001 18 52 15 0 63 49 64 60 ?1 29 62 12 0 64 6
5 60 -.0053 .001 .000750000000000012 18 64 10 0 66 52 67 62 ?1 29 65 7 0 67 68 6
2 -.0091 .001 .000750000000000018 18 67 5 0 69 64 56 65 ?1 29 68 4 0 56 70 65 -.
0091 -.001 .000750000000000015 18 56 2 0 71 67 53 68 ?1 29 70 296 0 61 72 68 -.0
08 -.000575000000000011 .000749999999999987 18 61 244 0 73 59 74 70 ?1 29 72 297
 0 74 75 70 -.008 .000574999999999989 .000749999999999987 18 74 238 0 76 61 77 7
2 ?1 29 75 298 0 77 78 72 -.007 .00057499999999999 .000750000000000028 18 77 240
 0 79 74 80 75 ?1 29 78 300 0 80 81 75 -.008 .000574999999999989 .00100000000000
0016 18 80 241 0 82 77 83 78 ?1 29 81 301 0 83 84 78 -.007 .00057499999999999 .0
01000000000000014 18 83 243 0 85 80 86 81 ?1 29 84 302 0 86 87 81 -.008 -.000575
000000000011 .001000000000000014 18 86 239 0 88 83 89 84 ?1 29 87 955 0 89 90 84
 -.0053 .001 .001 18 89 651 0 91 86 92 87 1e-8 1 29 90 960 0 92 93 87 .0053 -.00
1 .001 18 92 661 0 94 89 95 90 1e-8 1 29 93 961 0 95 96 90 -.0053 -.003762977544
445365 .001 18 95 637 0 97 92 98 93 ?1 29 96 962 0 98 99 93 .0053 .0037629775444
45365 -757865992184748e-32 18 98 644 0 100 95 101 96 ?1 29 99 963 0 101 102 96 .
0053 .003762977544445365 .001 18 101 640 0 103 98 104 99 ?1 29 102 964 0 104 105
 99 .0053 -.00376297754444535 .001 18 104 638 0 106 101 107 102 ?1 29 105 965 0
 107 108 102 .0053 -.00376297754444535 -821877288448292e-32 18 107 648 0 109 104
 110 105 ?1 29 108 966 0 110 111 105 -.0053 .00376297754444535 .001 18 110 652 0
 112 107 113 108 ?1 29 111 967 0 113 114 108 -.0053 -.003762977544445365 6050368
5395119e-31 18 113 654 0 115 110 116 111 ?1 29 114 968 0 116 117 111 -.0053 .003
76297754444535 605036853951191e-32 18 116 653 0 118 113 119 114 ?1 29 117 969 0
 119 120 114 .00793725393319377 .001 .001000000000000016 18 119 660 0 121 116 12
2 117 ?1 29 120 970 0 122 123 117 .00793725393319377 -.001 .001000000000000014 1
8 122 647 0 124 119 125 120 ?1 29 123 971 0 125 126 120 .0079793091806246 .00057
4999999999989 .001000000000000016 18 125 655 0 127 122 128 123 ?1 29 126 972 0 1
28 129 123 .0079793091806246 -.000575000000000011 .001000000000000014 18 128 673
 0 130 125 131 126 ?1 29 129 973 0 131 132 126 .007 -.00057500000000001 .0007500
00000000013 18 131 669 0 133 128 134 129 ?1 29 132 974 0 134 135 129 .007 -.0005
7500000000001 .001000000000000012 18 134 672 0 136 131 137 132 ?1 29 135 975 0 1
38 139 132 .0053 .001 .001000000000000012 18 138 659 0 140 141 142 135 1e-8 1 29
 139 976 0 142 143 135 .0091 .001 .001000000000000018 18 142 658 0 144 138 145 1
39 ?1 29 143 977 0 145 146 139 .0091 -.001 .001000000000000014 18 145 657 0 147
 142 148 143 ?1 29 146 978 0 137 149 143 .0053 -.001 .00075000000000001 18 137 6
63 0 150 134 151 146 ?1 29 149 979 0 151 152 146 .0053 .001 .000750000000000012
 18 151 664 0 153 137 154 149 ?1 29 152 980 0 154 155 149 .0091 .001 .0007500000
00000018 18 154 665 0 156 151 141 152 ?1 29 155 981 0 141 157 152 .0091 -.001 .0
00750000000000015 18 141 662 0 158 154 138 155 ?1 29 157 982 0 148 159 155 .008
 -.000575000000000011 .000749999999999987 18 148 671 0 160 145 161 157 ?1 29 159
 983 0 161 162 157 .008 .000574999999999989 .000749999999999987 18 161 666 0 163
 148 164 159 ?1 29 162 984 0 164 165 159 .007 .00057499999999999 .00075000000000
0028 18 164 668 0 166 161 167 162 ?1 29 165 985 0 167 168 162 .008 .000574999999
999989 .001000000000000016 18 167 656 0 169 164 170 165 ?1 29 168 986 0 170 171
 165 .007 .00057499999999999 .001000000000000014 18 170 670 0 172 167 173 168 ?1
 29 171 987 0 173 174 168 .008 -.000575000000000011 .001000000000000014 18 173 6
67 0 175 170 176 171 ?1 29 174 1081 0 176 177 171 2882022034870085e-32 .005 .021
4094405976321 18 176 1062 0 178 173 179 174 ?1 29 177 1118 0 179 180 174 -.00433
012701892218 .0025 .0214094405976321 18 179 1099 0 181 176 182 177 ?1 29 180 115
1 0 182 183 177 -.00433012701892221 -.00249999999999997 .0214094405976321 18 182
 1132 0 184 179 185 180 ?1 29 183 1184 0 185 186 180 -307631106417949e-31 -.005
 .0214094405976321 18 185 1165 0 187 182 188 183 ?1 29 186 1217 0 188 189 183 .0
04330127018922175 -.0025 .0214094405976321 18 188 1198 0 190 185 191 186 ?1 29 1
89 1250 0 191 0 186 .00433012701892221 .002499999999999975 .0214094405976321 18
 191 1231 0 192 188 0 189 ?1 17 192 0 193 192 192 191 0 0 0 0 ?15 255 193 1235 0
 192 194 0 14 255 194 1232 195 ?196 197 198 4 199 -0 0 196 197 23 81 1 195 1359
 200 194 201 0 202 203 204 14 196 1239 203 ?0 194 205 4 206 -0 0 0 194 23 14 197
 1206 202 ?194 207 208 4 209 -0 0 194 207 23 15 198 1234 0 210 194 193 52 255 19
9 1247 0 194 0 206 0 +.00433012701892221 .002499999999999975 .0218 6194186158669
58e-30 -1134818923691876e-30 1 65e-5 .857167300702112 .515038074910054 .5 -.8660
25403784439 -129249132454596e-29 13 23 3 0 0 0 0 0 0 8 15 14 15 42 211 ?17 0 29
 4 212 -0 0 17 0 23 81 1 211 1259 200 15 213 0 0 214 215 14 17 82 214 ?216 15 21
7 4 5 -0 0 216 15 23 15 29 398 0 27 15 0 50 212 62 0 15 218 219 0 +-.0091 .001 .
001000000000000018 -148364507813806e-29 1301042606982602e-30 -1 -1 0 14836450781
3806e-29 50 218 25 0 220 221 212 0 +-.0091 .001 .000750000000000018 -14836450781
3806e-29 1301042606982602e-30 -1 -1 0 148364507813806e-29 50 219 87 0 222 212 18
 0 +-.0053 -.001 .00075000000000001 -1198328716957662e-30 1 161312471082105e-44
 -1 -1198328716957662e-30 0 14 222 76 223 ?220 216 224 4 219 -0 0 220 216 23 50
 18 89 0 216 219 5 0 +-.0091 .001 .000750000000000018 74182253906903e-29 -1 -998
601011460652e-45 1 74182253906903e-29 0 14 216 80 225 ?222 17 226 4 18 -0 0 222
 17 23 81 1 225 1263 200 216 227 0 214 223 228 15 226 79 0 34 216 0 17 34 0 226
 91 24 10 30 229 0 230 +17 91 0 226 231 34 89 230 232 0 233 +17 24 0 226 34 69 5
7 234 9 0 235 +17 30 0 29 38 27 57 34 229 0 24 -16 229 50 0 ?34 40 236 237 0 0 1
 17 230 0 238 239 240 10 91 232 0 241 -15 238 689 0 230 242 0 17 239 0 238 243 2
30 119 241 244 0 245 -17 240 0 238 230 246 89 112 247 0 0 +16 232 513 0 ?91 248
 249 250 0 0 1 17 241 0 251 32 245 10 239 244 0 0 +15 251 730 0 245 252 253 17 3
2 0 251 254 241 36 27 33 0 0 +17 245 0 251 241 255 119 127 256 0 0 +16 244 537 0
 ?241 256 33 257 256 258 1 16 256 533 0 ?245 259 244 257 260 244 1 16 33 539 0 ?
32 244 261 257 262 261 1 31 255 257 906 0 256 263 264 0 +1346145417358002e-33 0
 .001 1346145417358002e-30 0 1 1 0 -1346145417358002e-30 .008 16 258 551 0 ?265
 260 262 257 244 262 1 17 265 0 251 255 124 128 266 258 0 0 +16 260 549 0 ?124 2
67 258 257 267 256 1 16 262 555 0 ?255 258 268 257 258 33 1 17 255 0 251 245 265
 125 269 262 0 0 +16 268 473 0 ?246 262 270 263 270 270 1 17 246 0 238 240 103 1
10 271 268 0 0 +16 270 456 0 ?106 268 272 263 268 268 1 31 263 907 0 268 273 257
 0 +1346145417358002e-33 0 .001 1346145417358002e-30 0 1 1 0 -1346145417358002e-
30 .0065 31 273 908 0 272 274 263 0 +-597808654737814e-48 0 -4440892098500745e-3
4 1346145417358002e-30 0 1 1 0 -1346145417358002e-30 .0065 16 272 528 0 ?275 270
 276 273 276 276 1 31 274 909 0 277 278 273 0 +4428818423107825e-32 0 .0329 1346
145417358002e-30 0 1 1 0 -1346145417358002e-30 75e-5 16 277 560 0 ?279 276 280 2
74 0 0 1 31 278 910 0 280 281 274 0 +3621131172693025e-32 0 .0269 13461454173580
02e-30 0 1 1 0 -1346145417358002e-30 75e-5 16 280 562 0 ?282 277 283 278 0 0 1 3
1 281 911 0 283 284 278 0 +3621131172693025e-32 0 .0269 1346145417358002e-30 0 1
 1 0 -1346145417358002e-30 .00175 16 283 564 0 ?285 280 286 281 0 0 1 31 284 912
 0 286 287 281 0 +3513439539304385e-32 0 .0261 1346145417358002e-30 0 1 1 0 -134
6145417358002e-30 .00175 16 286 566 0 ?288 283 289 284 0 0 1 31 287 913 0 289 29
0 284 0 +3513439539304385e-32 0 .0261 1346145417358002e-30 0 1 1 0 -134614541735
8002e-30 .00145 16 289 568 0 ?291 286 292 287 0 0 1 31 290 914 0 292 293 287 0 +
3473055176783645e-32 0 .0258 1346145417358002e-30 0 1 1 0 -1346145417358002e-30
 .00145 16 292 570 0 ?294 289 295 290 0 0 1 31 293 915 0 295 296 290 0 +34730551
76783645e-32 0 .0258 1346145417358002e-30 0 1 1 0 -1346145417358002e-30 .003 16
 295 572 0 ?297 292 298 293 0 0 1 31 296 916 0 298 299 293 0 +3338440635047845e-
32 0 .0248 1346145417358002e-30 0 1 1 0 -1346145417358002e-30 .003 16 298 574 0
 ?300 295 301 296 0 0 1 31 299 917 0 301 302 296 0 +3338440635047845e-32 0 .0248
 1346145417358002e-30 0 1 1 0 -1346145417358002e-30 .00746698729810778 16 301 57
6 0 ?303 298 304 299 0 0 1 31 302 918 0 304 305 299 0 +3304786999613895e-32 0 .0
2455 1346145417358002e-30 0 1 1 0 -1346145417358002e-30 .0079 16 304 578 0 ?306
 301 307 302 0 0 1 31 305 919 0 307 308 302 0 +3042288643229085e-32 0 .0226 1346
145417358002e-30 0 1 1 0 -1346145417358002e-30 .0079 16 307 580 0 ?309 304 310 3
05 0 0 1 30 255 308 920 0 310 311 305 0 -.0053 -.00376297754444535 -702981419891
693e-47 1346145417358002e-30 0 1 16 310 487 0 ?312 307 313 308 0 0 1 30 311 921
 0 313 314 308 0 +.0053 .003762977544445365 702981419891693e-47 1346145417358002
e-30 0 1 16 313 493 0 ?315 310 316 311 0 0 1 30 314 922 0 317 318 311 0 +.0053 -
.0075 -821877288448293e-32 -1387778780781444e-30 1 154074395550979e-44 16 317 49
0 0 ?100 319 320 314 0 0 1 30 318 923 0 1 321 314 322 +.0053 -.0075 .001 -138777
8780781444e-30 1 154074395550979e-44 30 321 924 0 320 323 318 0 --.0053 .0037629
7754444535 702981419891694e-47 1346145417358002e-30 0 1 141 255 322 324 325 325
 318 133 324 903 0 319 326 327 0 +318 .0053 .001 .001 .0053 .003762977544445365
 .001 .0085 .01126297754444536 141 325 326 322 322 318 133 326 904 0 316 264 324
 0 +318 .0053 -.00376297754444535 .001 .0053 -.001 .001 .00373702245555465 .0065
 16 316 459 0 ?328 313 319 326 0 0 1 31 264 905 0 259 257 326 0 +304228864322908
5e-32 0 .0226 1346145417358002e-30 0 1 1 0 -1346145417358002e-30 .008 16 259 531
 0 ?329 330 256 264 0 0 1 17 329 0 331 329 329 0 332 259 0 0 +16 330 524 0 ?333
 249 259 334 335 335 1 17 333 0 336 337 269 134 130 330 0 0 +16 249 466 0 ?243 2
32 330 327 0 0 1 30 334 942 0 335 338 339 0 +.007 -.00057500000000001 .001000000
000000012 -1 1301042606982606e-30 -148364507813806e-29 16 335 598 0 ?340 341 342
 334 330 330 1 17 340 0 343 266 344 128 345 335 0 269 +16 341 516 0 ?337 346 335
 338 0 0 1 16 342 1060 0 ?347 335 348 349 0 0 1 17 347 0 350 347 347 0 351 342 0
 0 +16 348 1061 0 ?352 342 353 354 0 0 1 31 349 1080 0 342 355 354 0 +2934597009
84045e-31 .005 .0218 -1346145417358e-27 0 -1 -1 0 1346145417358e-27 65e-5 31 355
 1116 0 356 357 349 0 +-.004330127018922175 .0025 .0248 -726726801491042e-30 -11
9677333354819e-29 -1 -.5 -.866025403784439 1399799510170042e-30 65e-5 31 354 107
9 0 348 349 358 0 +333844063504785e-31 .005 .0248 -1346145417358e-27 0 -1 -1 0 1
346145417358e-27 65e-5 30 358 949 0 359 354 360 0 +.007 -.00057500000000001 .000
750000000000022 1 -1301042606982604e-30 1301042606982604e-30 16 359 626 0 ?361 3
62 363 358 0 0 1 31 360 948 0 362 358 364 0 +.007 -954791801177635e-32 .00074999
9999999987 0 0 1 1 0 0 575e-6 16 362 624 0 ?365 366 359 360 0 0 1 30 364 947 0 3
66 360 367 0 +.008 .000574999999999989 .00075000000000003 -1 1409462824231156e-3
0 -1409462824231156e-30 16 366 622 0 ?368 369 362 364 0 0 1 31 367 946 0 369 364
 370 0 +.008 -1110223024625156e-32 .000749999999999987 0 0 1 1 0 0 575e-6 16 369
 620 0 ?371 372 366 367 0 0 1 31 370 945 0 373 367 374 0 -.008 -1110223024625156
e-32 .001000000000000014 -148364507813806e-29 -1301042606982602e-30 1 1 0 148364
507813806e-29 575e-6 16 373 596 0 ?344 375 376 370 0 0 1 30 374 944 0 376 370 33
8 0 +.008 .000574999999999989 .001000000000000016 1 -1409462824231156e-30 148364
507813806e-29 16 376 520 0 ?377 373 346 374 346 346 1 31 338 943 0 341 374 334 0
 -.007 -954791801177635e-32 .001000000000000014 -148364507813806e-29 -1301042606
982602e-30 1 1 0 148364507813806e-29 575e-6 17 377 0 336 269 337 125 378 376 0 2
55 +16 346 594 0 ?169 376 341 374 376 376 1 17 169 0 343 344 127 167 379 346 0 3
80 +15 343 820 0 127 381 0 17 344 0 343 340 169 173 382 373 0 0 +17 127 0 343 16
9 383 125 245 256 0 379 -17 379 0 384 378 380 125 169 346 0 377 -17 380 0 384 37
9 385 167 163 375 0 382 -15 384 851 0 378 386 0 17 385 0 384 380 166 161 368 366
 0 371 -17 163 0 387 388 382 161 380 375 0 385 +16 375 628 0 ?163 389 373 339 0
 0 1 17 382 0 387 163 175 167 344 373 0 0 -15 387 846 0 382 390 0 17 175 0 387 3
82 388 173 160 363 0 345 -17 388 0 387 175 163 148 371 369 0 0 -17 160 0 391 392
 345 148 175 363 0 361 +16 363 634 0 ?160 359 393 394 0 0 1 17 345 0 391 160 130
 173 340 335 0 344 -15 391 861 0 345 395 0 17 130 0 391 345 136 128 333 330 0 34
0 -17 136 0 391 130 392 134 133 393 0 396 -17 392 0 391 136 160 131 361 359 0 36
5 -17 133 0 397 398 396 131 136 393 0 392 +16 393 632 0 ?133 363 389 399 0 0 1 1
7 396 0 397 133 172 134 337 341 0 333 -15 397 856 0 396 400 0 17 172 0 397 396 3
98 170 166 389 0 378 -17 337 0 336 377 333 170 396 341 0 0 +15 336 712 0 337 401
 0 14 401 706 402 ?403 404 336 4 405 +406 407 403 404 23 81 1 402 1285 200 401 4
08 0 409 410 411 14 403 713 410 ?412 401 413 4 414 +415 415 412 401 23 14 404 69
7 409 ?401 407 416 4 417 -0 0 401 407 23 50 405 866 0 406 414 418 0 +-1167596721
0622e-30 .008 .001 -1346145417358002e-30 0 -1 -1 0 1346145417358002e-30 14 406 6
76 419 ?242 420 421 4 405 +242 401 242 420 23 14 407 690 422 ?404 242 423 4 405
 +401 242 404 242 23 81 1 422 1281 200 407 424 0 425 409 426 14 242 683 425 ?407
 406 238 4 405 +407 406 407 406 23 15 423 696 0 427 407 0 17 427 0 423 428 429 8
3 430 431 0 0 -17 428 0 423 432 427 49 433 434 0 0 -17 429 0 423 427 432 36 254
 261 0 32 -17 430 0 435 82 85 36 427 431 0 429 +16 431 198 0 ?430 436 437 438 43
7 437 1 16 436 202 0 ?439 440 431 441 0 0 1 16 437 384 0 ?82 431 434 438 431 431
 1 30 438 290 0 431 441 442 0 +-.008 .000574999999999989 .001000000000000016 -1
 -1409462824231156e-30 148364507813806e-29 31 441 291 0 436 443 438 0 --.008 -11
10223024625156e-32 .001000000000000014 -148364507813806e-29 1301042606982602e-30
 -1 -1 0 148364507813806e-29 575e-6 31 442 289 0 434 438 444 0 --.007 -954791801
177635e-32 .001000000000000014 -148364507813806e-29 1301042606982602e-30 -1 -1 0
 148364507813806e-29 575e-6 16 434 210 0 ?433 437 445 442 0 0 1 30 444 288 0 445
 442 446 0 +-.007 -.00057500000000001 .001000000000000012 1 1301042606982606e-30
 -148364507813806e-29 16 445 206 0 ?447 434 248 444 248 248 1 30 446 287 0 440 4
44 448 0 +-.008 .000574999999999989 .003224999999999805 0 0 -1 16 440 214 0 ?76
 449 436 446 0 0 1 30 448 286 0 449 446 450 0 +-.007 .00057499999999999 .0032249
99999999845 0 0 -1 16 449 216 0 ?79 451 440 448 0 0 1 30 450 285 0 451 448 452 0
 +-.007 -.00057500000000001 .003224999999999805 0 0 -1 16 451 218 0 ?453 454 449
 450 0 0 1 30 452 284 0 454 450 455 0 +-.008 -.000575000000000011 .0032249999999
99805 0 0 -1 16 454 220 0 ?73 456 451 452 0 0 1 30 455 9 0 457 452 458 0 +-.0091
 -.001 .000750000000000015 -867361737988403e-30 1 1301042606982604e-30 16 457 6
 0 ?459 460 19 455 0 0 1 30 458 14 0 460 455 461 0 +-.0091 .001 .000750000000000
018 1 74182253906903e-29 -148364507813806e-29 16 460 11 0 ?66 462 457 458 0 0 1
 30 461 19 0 462 458 463 0 +-.0053 .001 .000750000000000012 1301042606982604e-30
 -1 -1301042606982604e-30 16 462 16 0 ?63 464 460 461 0 0 1 30 463 22 0 464 461
 465 0 +-.0053 -.001 .00075000000000001 -1 -1198328716957662e-30 148364507813806
e-29 16 464 20 0 ?71 466 462 463 0 0 1 30 465 66 0 236 463 237 0 +-.0091 -.001 .
001000000000000014 -867361737988403e-30 1 1301042606982604e-30 16 236 52 0 ?235
 229 467 465 0 0 1 30 237 65 0 229 465 21 468 +-.0091 .001 .001000000000000018 1
 74182253906903e-29 -148364507813806e-29 30 21 63 0 40 237 469 470 +-.0053 -.001
 .001 -1 -1198328716957662e-30 148364507813806e-29 141 468 250 468 468 237 133 2
50 894 0 232 471 472 0 +237 -.00793725393319377 .001 .001000000000000012 -.0053
 .001 .001000000000000012 .001162746066806226 .0038 133 471 895 0 473 474 250 0
 +475 -.0053 -.001 .001 -.0053 -.003762977544445365 .001 .0085 .0112629775444453
6 30 472 295 0 456 250 476 0 +-.007 -.00057500000000001 .000750000000000022 -1 -
1301042606982604e-30 1301042606982604e-30 16 456 234 0 ?477 478 454 472 0 0 1 31
 476 294 0 478 472 479 0 +-.007 -954791801177635e-32 .000749999999999987 0 0 -1
 -1 0 0 575e-6 16 478 230 0 ?48 480 456 476 0 0 1 30 479 293 0 480 476 443 0 +-.
008 .000574999999999989 .00075000000000003 1 1409462824231156e-30 -1409462824231
156e-30 16 480 226 0 ?481 467 478 479 0 0 1 31 443 292 0 467 479 441 0 +-.008 -1
110223024625156e-32 .000749999999999987 0 0 -1 -1 0 0 575e-6 16 467 222 0 ?482 2
36 480 443 0 0 1 17 482 0 483 484 73 74 485 467 0 486 +15 483 255 0 439 487 0 17
 484 0 483 439 482 80 76 440 0 488 -17 73 0 483 482 439 61 88 454 0 477 +17 485
 0 489 490 486 61 482 467 0 0 -17 486 0 489 485 491 74 481 480 0 0 -15 489 176 0
 485 220 492 17 491 0 489 486 490 77 48 478 0 0 -17 481 0 435 85 76 77 486 480 0
 491 +15 435 260 0 430 493 0 17 85 0 435 430 481 83 79 449 0 433 -17 76 0 435 48
1 82 74 484 440 0 482 +17 82 0 435 76 430 80 31 437 0 484 +17 31 0 29 27 488 36
 82 437 0 430 -17 488 0 29 31 494 80 439 436 0 0 -17 494 0 29 488 37 86 447 445
 0 0 -17 439 0 483 73 484 86 488 436 0 494 +17 37 0 29 494 35 42 495 267 0 447 -
17 447 0 496 51 88 42 494 445 0 432 +15 496 270 0 447 420 0 17 51 0 496 453 447
 49 432 248 0 497 +17 88 0 496 447 477 86 73 454 0 439 -17 432 0 423 429 428 42
 51 248 0 254 -16 248 379 0 ?51 445 232 444 445 445 1 17 254 0 251 495 32 42 429
 261 0 0 +17 495 0 251 124 254 28 37 267 0 0 +16 261 543 0 ?254 33 267 257 33 26
7 1 16 267 545 0 ?495 261 260 257 261 260 1 17 124 0 251 265 495 122 498 260 0 2
66 +17 498 0 421 499 500 28 124 260 0 495 -17 266 0 343 147 340 122 265 258 0 50
1 -17 147 0 343 502 266 145 501 503 0 504 +17 501 0 505 94 504 122 147 503 0 500
 -15 505 835 0 94 506 0 17 94 0 505 507 501 92 500 508 0 509 -17 504 0 505 501 1
58 145 510 511 0 512 +16 503 600 0 ?147 508 513 514 0 0 1 17 500 0 421 498 328 1
22 94 508 0 0 +15 421 682 0 499 406 0 17 328 0 421 500 106 92 515 316 0 0 +16 50
8 462 0 ?500 516 503 517 0 0 1 16 516 606 0 ?518 519 508 520 0 0 1 133 517 901 0
 508 327 521 0 +514 .0053 -.001 .001 .00793725393319377 -.001 .00100000000000001
4 607153216591882e-32 .002637253933193775 133 327 902 0 249 324 517 0 +522 .0079
3725393319377 .001 .001000000000000012 .0053 .001 .001000000000000012 .001162746
066806224 .0038 133 521 900 0 523 517 524 0 +525 .0053 -.001 .00075000000000001
 .0053 -.001 .001 0 .000249999999999982 30 514 931 0 503 522 525 526 +.0053 -.00
1 .001 1 -1198328716957662e-30 148364507813806e-29 30 522 932 0 513 527 514 528
 +.0091 .001 .001000000000000018 -1 74182253906903e-29 -148364507813806e-29 30 5
25 930 0 1 514 529 530 +.0053 -.001 .00075000000000001 -1346145417358002e-30 0 1
 141 526 517 526 526 514 30 529 929 0 531 525 532 0 +.0091 .001 .000750000000000
018 -1346145417358002e-30 0 1 141 530 521 530 530 525 16 531 608 0 ?144 533 534
 529 0 0 1 30 532 928 0 511 529 475 0 +.0091 -.001 .000750000000000015 -13461454
17358002e-30 0 1 16 511 618 0 ?504 523 535 532 0 0 1 30 475 927 0 1 532 536 537
 +-.0053 .0075 .001 1387778780781444e-30 -1 -1489385823659462e-45 30 536 926 0 5
33 475 323 0 +-.0053 .0075 605036853951192e-32 1387778780781444e-30 -1 -14893858
23659462e-45 141 537 471 538 538 475 141 538 474 537 537 475 133 474 896 0 247 5
39 471 0 +475 -.0053 .00376297754444535 .001 -.0053 .001 .001 .00373702245555465
 .0065 16 247 476 0 ?240 540 473 474 0 0 1 30 539 898 0 1 524 474 541 +.0053 .00
1 .000750000000000012 -1346145417358002e-30 0 1 133 524 899 0 534 521 539 0 +539
 .0053 .001 .000750000000000012 .0053 .001 .001000000000000012 0 25e-5 141 541 5
24 541 541 539 16 534 612 0 ?140 531 523 524 0 0 1 17 140 0 542 121 543 138 544
 534 0 243 +16 523 483 0 ?509 534 511 521 0 0 1 17 509 0 416 515 545 92 507 523
 0 328 +15 416 703 0 544 404 0 17 515 0 416 312 509 104 328 316 0 546 -17 545 0
 416 509 544 137 153 547 0 0 +17 507 0 505 158 94 137 509 523 0 545 -17 158 0 50
5 504 507 141 150 535 0 548 +17 150 0 549 153 548 137 158 535 0 507 -16 535 616
 0 ?158 511 547 550 0 0 1 17 548 0 549 150 156 141 518 516 0 510 -15 549 841 0 5
48 551 0 17 156 0 549 548 153 154 543 519 0 552 -17 518 0 553 144 510 154 548 51
6 0 0 +17 510 0 553 518 512 141 504 511 0 0 -15 553 825 0 512 554 0 17 512 0 553
 510 144 145 502 372 0 0 -17 144 0 553 512 518 142 552 531 0 555 +17 502 0 343 3
83 147 142 512 372 0 0 +16 372 602 0 ?502 513 369 527 0 0 1 16 513 604 0 ?383 50
3 372 522 0 0 1 30 527 933 0 372 550 522 0 +.0091 -.001 .001000000000000014 8673
61737988403e-30 1 1301042606982604e-30 30 550 934 0 535 556 527 0 +.0053 -.001 .
00075000000000001 1 -1198328716957662e-30 148364507813806e-29 30 556 935 0 547 5
57 550 0 +.0053 .001 .000750000000000012 -1301042606982604e-30 -1 -1301042606982
604e-30 16 547 479 0 ?545 535 519 556 0 0 1 30 557 936 0 519 520 556 0 +.0091 .0
01 .000750000000000018 -1 74182253906903e-29 -148364507813806e-29 16 519 610 0 ?
543 547 516 557 0 0 1 30 520 937 0 516 394 557 0 +.0091 -.001 .00075000000000001
5 867361737988403e-30 1 1301042606982604e-30 30 394 938 0 363 399 520 0 +.008 -.
000575000000000011 .003224999999999805 0 0 -1 30 399 939 0 393 558 394 0 +.007 -
.00057500000000001 .003224999999999805 0 0 -1 30 558 940 0 389 339 399 0 +.007 .
00057499999999999 .003224999999999845 0 0 -1 16 389 630 0 ?166 393 375 558 0 0 1
 30 339 941 0 375 334 558 0 +.008 .000574999999999989 .003224999999999805 0 0 -1
 17 166 0 384 385 378 164 172 389 0 398 +17 378 0 384 166 379 170 377 376 0 337
 -17 398 0 397 172 133 164 365 362 0 368 -17 365 0 559 361 368 131 398 362 0 0 +
17 368 0 559 365 371 164 385 366 0 0 +15 559 840 0 371 551 549 17 371 0 559 368
 361 161 388 369 0 0 +17 361 0 559 371 365 148 392 359 0 388 +14 551 836 560 ?39
0 506 559 4 561 +0 0 390 506 23 81 1 560 1329 200 551 562 0 563 564 565 14 390 8
42 564 ?386 551 387 4 566 -0 0 386 551 23 14 506 831 563 ?551 567 505 4 568 -0 0
 551 567 23 50 561 886 0 551 569 570 0 +.0091 .001 .000750000000000018 148364507
813806e-29 1301042606982602e-30 -1 1 0 148364507813806e-29 50 569 887 0 395 566
 561 0 +.007 -.00057500000000001 .00322499999999984 -1301042606982604e-30 -1 0 -
1 1301042606982606e-30 0 50 570 885 0 381 561 568 0 +.0091 .001 .001000000000000
018 148364507813806e-29 1301042606982602e-30 -1 1 0 148364507813806e-29 14 381 8
16 571 ?554 572 343 4 570 -0 0 554 572 23 50 568 884 0 506 570 573 0 +.0053 -.00
1 .00075000000000001 1198328716957662e-30 1 161312471082105e-44 1 -1198328716957
662e-30 0 50 573 883 0 567 568 574 0 +.0091 .001 .000750000000000018 -7418225390
6903e-29 -1 -998601011460652e-45 -1 74182253906903e-29 0 14 567 826 575 ?506 554
 542 4 573 -0 0 506 554 23 50 574 882 0 554 573 576 0 +.0091 -.001 .000750000000
000015 -1 867361737988405e-30 -1346145417358002e-30 1346145417358002e-30 0 -1 14
 554 821 577 ?567 381 553 4 574 -0 0 567 381 23 50 576 881 0 572 574 417 0 +-.00
53 .0075 .001 1 1387778780781444e-30 0 -1387778780781444e-30 1 0 14 572 809 578
 ?381 579 580 4 576 -0 0 381 579 23 50 417 880 0 404 576 581 0 +.0053 -.0075 .00
1 -1 -1387778780781444e-30 0 1387778780781444e-30 -1 0 51 255 581 879 0 579 417
 582 0 +0 0 0 1346145417358002e-30 0 1 .0079 1 0 -1346145417358002e-30 14 579 80
3 583 ?572 584 585 4 581 +0 0 572 584 23 52 582 878 0 584 581 586 0 +33384406350
47845e-32 0 .0248 -1346145417358002e-30 0 -1 .00746698729810778 .866025403784438
 .5 -1 0 1346145417358002e-30 14 584 797 587 ?579 588 589 4 582 +0 0 579 588 23
 50 586 877 0 588 582 590 0 +-178168883155799e-31 .003 .0248 1346145417358002e-3
0 0 1 1 0 -1346145417358002e-30 14 588 791 591 ?584 592 593 4 586 +0 0 584 592 2
3 51 590 876 0 592 586 594 0 +0 0 0 1346145417358002e-30 0 1 .003 1 0 -134614541
7358002e-30 14 592 785 595 ?588 596 597 4 590 +0 0 588 596 23 50 594 875 0 596 5
90 598 0 +-163721010433037e-31 .00145 .0258 1346145417358002e-30 0 1 1 0 -134614
5417358002e-30 14 596 779 599 ?592 600 601 4 594 +0 0 592 600 23 51 598 874 0 60
0 594 602 0 +0 0 0 1346145417358002e-30 0 1 .00145 1 0 -1346145417358002e-30 14
 600 773 603 ?596 604 605 4 598 +0 0 596 604 23 50 602 873 0 604 598 606 0 +-240
432673770385e-32 .00175 .0261 -1346145417358002e-30 0 -1 -1 0 1346145417358002e-
30 14 604 767 607 ?600 608 609 4 602 +0 0 600 608 23 51 606 872 0 608 602 610 0
 +0 0 0 1346145417358002e-30 0 1 .00175 1 0 -1346145417358002e-30 14 608 761 611
 ?604 612 613 4 606 +0 0 604 612 23 50 610 871 0 612 606 614 0 +-161636055417384
e-31 75e-5 .0269 1346145417358002e-30 0 1 1 0 -1346145417358002e-30 14 612 755 6
15 ?608 616 617 4 610 +0 0 608 616 23 51 614 870 0 616 610 618 0 +0 0 0 13461454
17358002e-30 0 1 75e-5 1 0 -1346145417358002e-30 14 616 749 619 ?612 620 621 4 6
14 +0 0 612 620 23 50 618 869 0 620 614 622 0 +-192417353980059e-31 0 .0329 1346
145417358002e-30 0 1 1 0 -1346145417358002e-30 14 620 744 623 ?616 624 625 4 618
 +0 0 616 624 23 50 622 868 0 624 618 414 0 +-893035645432861e-32 .0065 -6592219
64756017e-32 -1346145417358002e-30 0 -1 -1 0 1346145417358002e-30 14 624 739 626
 ?620 415 627 4 622 +0 0 620 415 23 51 414 867 0 415 622 405 0 +0 0 0 1346145417
358002e-30 0 1 .0065 1 0 -1346145417358002e-30 14 415 732 628 ?624 252 629 4 414
 +403 403 624 252 23 81 1 628 1293 200 415 630 0 631 626 632 14 252 726 631 ?415
 412 251 4 418 +0 0 415 412 23 15 629 738 0 633 415 0 17 633 0 629 109 634 113 6
35 540 0 636 -17 109 0 629 546 633 107 636 276 0 312 +17 634 0 629 633 546 95 10
6 270 0 0 -17 635 0 580 637 115 95 633 540 0 634 +16 540 591 0 ?635 320 247 323
 0 0 1 17 636 0 627 638 639 113 109 276 0 0 -15 627 743 0 638 624 0 17 638 0 627
 640 636 116 115 533 0 275 -17 639 0 627 636 640 107 100 317 0 0 -16 276 557 0 ?
109 272 277 273 272 272 1 17 640 0 627 639 638 98 275 272 0 0 -17 100 0 416 315
 312 98 639 317 0 641 +17 315 0 416 642 100 101 641 313 0 271 +17 312 0 416 100
 515 107 546 310 0 639 +17 641 0 413 275 271 98 315 313 0 640 -15 413 719 0 643
 403 0 17 275 0 413 643 641 116 640 272 0 0 +17 271 0 413 641 643 101 246 268 0
 0 -17 643 0 413 271 275 110 118 320 0 246 -17 118 0 580 115 112 116 643 320 0 6
38 +16 320 585 0 ?118 317 540 321 0 0 1 15 580 815 0 644 572 0 17 115 0 580 635
 118 113 638 533 0 633 +17 112 0 580 118 233 110 240 247 0 643 -17 233 0 580 112
 645 89 231 25 0 240 +17 645 0 580 233 644 64 63 462 0 0 -17 231 0 226 69 91 64
 233 25 0 645 -16 25 72 0 ?233 9 646 647 0 0 1 16 646 71 0 ?55 25 466 648 0 0 1
 133 647 989 0 25 649 648 0 +469 -.0053 .001 .000750000000000012 -.0053 .001 .00
1 0 .000249999999999994 30 649 86 0 466 26 647 0 +-.0091 -.001 .0007500000000000
15 1346145417358002e-30 0 1 133 648 991 0 646 647 20 0 +20 -.0053 -.001 .0007500
0000000001 -.0053 -.001 .001 0 25e-5 30 469 84 0 1 21 26 650 +-.0053 .001 .00075
0000000000012 1346145417358002e-30 0 1 30 26 85 0 9 469 649 0 +-.0091 .001 .0007
50000000000018 1346145417358002e-30 0 1 141 650 647 650 650 469 30 20 992 0 1 64
8 6 651 +-.0053 -.001 .00075000000000001 1346145417358002e-30 0 1 141 651 648 65
1 651 20 16 466 74 0 ?652 646 464 649 0 0 1 17 652 0 217 235 653 59 654 466 0 38
 +15 217 81 0 235 17 0 17 235 0 217 234 652 57 38 236 0 0 +17 653 0 217 652 234
 56 459 457 0 0 -17 654 0 224 655 39 56 652 466 0 653 -17 38 0 29 35 30 59 235 2
36 0 0 -15 224 75 0 41 222 0 17 655 0 224 55 654 52 71 464 0 644 -17 39 0 224 65
4 41 59 35 40 0 652 +17 41 0 224 39 55 28 499 19 0 498 +16 40 389 0 ?39 19 229 2
1 0 0 1 16 19 46 0 ?41 457 40 6 0 0 1 17 55 0 224 41 655 53 644 646 0 499 +17 49
9 0 421 97 498 53 41 19 0 637 -17 97 0 421 106 499 95 637 473 0 635 +17 637 0 58
0 644 635 53 97 473 0 0 -17 644 0 580 645 637 52 55 646 0 0 -16 473 453 0 ?97 24
7 533 471 0 0 1 16 533 588 0 ?115 473 531 536 0 0 1 17 106 0 421 328 97 104 634
 270 0 515 +17 71 0 492 459 63 56 655 464 0 654 +15 492 23 0 459 220 0 17 459 0
 492 66 71 67 653 457 0 234 +17 63 0 492 71 66 52 645 462 0 655 +17 66 0 492 63
 459 64 69 460 0 231 +17 69 0 226 24 231 67 66 460 0 459 -17 234 0 217 653 235 6
7 24 9 0 0 -14 220 24 656 ?487 222 489 4 218 +0 0 487 222 23 81 1 656 1267 200 2
20 657 0 223 658 659 14 487 251 658 ?493 220 483 4 660 -0 0 493 220 23 81 1 658
 1269 200 487 661 0 656 662 663 14 493 256 662 ?664 487 435 4 665 -0 0 664 487 2
3 51 660 279 0 487 666 221 0 +-.008 -1110223024625156e-32 .003224999999999805 0
 0 -1 575e-6 -1 0 0 51 666 280 0 664 665 660 0 +-.007 -954791801177635e-32 .0032
24999999999805 0 0 -1 575e-6 -1 0 0 50 221 278 0 420 660 218 0 +-.007 -.00057500
000000001 .00322499999999984 1301042606982604e-30 -1 0 1 1301042606982606e-30 0
 14 420 266 667 ?406 664 496 4 221 -0 0 406 664 23 81 1 667 1275 200 420 668 0 6
69 419 670 14 664 261 669 ?420 493 671 4 666 -0 0 420 493 23 81 1 669 1273 200 6
64 672 0 662 667 673 15 671 265 0 433 664 0 17 433 0 671 79 497 83 428 434 0 427
 +17 79 0 671 48 433 77 85 449 0 481 +17 497 0 671 433 48 49 453 451 0 428 -17 4
8 0 671 497 79 46 491 478 0 453 +17 453 0 496 477 51 46 497 451 0 490 +17 477 0
 496 88 453 61 490 456 0 485 +17 490 0 489 491 485 46 477 456 0 0 -80 255 1 200
 0 674 8001 0 0 0 0 3 5 0 0 0 FFFFTFTFFFFFFF2 81 1 672 1272 675 664 0 669 676 66
8 677 81 1 662 1271 200 493 676 0 658 669 678 83 255 3 673 .5960784 .6666667 .68
62745 81 1 676 1270 675 493 0 662 661 672 679 83 3 678 .5960784 .6666667 .686274
5 80 1 675 680 681 8015 0 0 0 0 3 5 0 0 0 FFFFTFFFFFFFFF2 81 1 661 1268 675 487
 0 658 657 676 682 83 1 679 0 81 1 657 1266 675 220 0 656 683 661 684 83 1 682 0
 81 1 683 1264 675 222 0 223 227 657 685 83 1 684 0 81 1 223 1265 200 222 683 0
 225 656 686 81 1 227 1262 675 216 0 225 687 683 688 83 1 685 0 81 1 687 1260 67
5 17 0 214 213 227 689 83 1 688 0 81 1 214 1261 200 17 687 0 211 225 690 81 1 21
3 1258 675 15 0 211 0 687 691 83 1 689 0 83 1 691 0 83 3 690 .5960784 .6666667 .
6862745 83 3 686 .5960784 .6666667 .6862745 79 255 21 681 SDL/TYSA_TRANSLUCENCY8
1 1 668 1274 675 420 0 667 672 692 693 83 1 677 0 81 1 692 1276 675 406 0 419 66
8 694 695 83 1 693 0 81 1 419 1277 200 406 692 0 667 425 696 81 1 694 1278 675 2
42 0 425 692 424 697 83 1 695 0 81 1 425 1279 200 242 694 0 419 422 698 81 1 424
 1280 675 407 0 422 694 699 700 83 1 697 0 81 1 699 1282 675 404 0 409 424 408 7
01 83 1 700 0 81 1 409 1283 200 404 699 0 422 402 702 81 1 408 1284 675 401 0 40
2 699 703 704 83 1 701 0 81 1 703 1286 675 403 0 410 408 705 706 83 1 704 0 81 1
 410 1287 200 403 703 0 402 707 708 81 1 705 1288 675 412 0 707 703 709 710 83 1
 706 0 14 412 720 707 ?252 403 331 4 711 +0 0 252 403 23 81 1 707 1289 200 412 7
05 0 410 631 712 81 1 709 1290 675 252 0 631 705 630 713 83 1 710 0 81 1 631 129
1 200 252 709 0 707 628 714 81 1 630 1292 675 415 0 628 709 715 716 83 1 713 0 8
1 1 715 1294 675 624 0 626 630 717 718 83 1 716 0 81 1 626 1295 200 624 715 0 62
8 623 719 81 1 717 1296 675 620 0 623 715 720 721 83 1 718 0 81 1 623 1297 200 6
20 717 0 626 619 722 81 1 720 1298 675 616 0 619 717 723 724 83 1 721 0 81 1 619
 1299 200 616 720 0 623 615 725 81 1 723 1300 675 612 0 615 720 726 727 83 1 724
 0 81 1 615 1301 200 612 723 0 619 611 728 81 1 726 1302 675 608 0 611 723 729 7
30 83 1 727 0 81 1 611 1303 200 608 726 0 615 607 731 81 1 729 1304 675 604 0 60
7 726 732 733 83 1 730 0 81 1 607 1305 200 604 729 0 611 603 734 81 1 732 1306 6
75 600 0 603 729 735 736 83 1 733 0 81 1 603 1307 200 600 732 0 607 599 737 81 1
 735 1308 675 596 0 599 732 738 739 83 1 736 0 81 1 599 1309 200 596 735 0 603 5
95 740 81 1 738 1310 675 592 0 595 735 741 742 83 1 739 0 81 1 595 1311 200 592
 738 0 599 591 743 81 1 741 1312 675 588 0 591 738 744 745 83 1 742 0 81 1 591 1
313 200 588 741 0 595 587 746 81 1 744 1314 675 584 0 587 741 747 748 83 1 745 0
 81 1 587 1315 200 584 744 0 591 583 749 81 1 747 1316 675 579 0 583 744 750 751
 83 1 748 0 81 1 583 1317 200 579 747 0 587 578 752 81 1 750 1318 675 572 0 578
 747 753 754 83 1 751 0 81 1 578 1319 200 572 750 0 583 571 755 81 1 753 1320 67
5 381 0 571 750 756 757 83 1 754 0 81 1 571 1321 200 381 753 0 578 577 758 81 1
 756 1322 675 554 0 577 753 759 760 83 1 757 0 81 1 577 1323 200 554 756 0 571 5
75 761 81 1 759 1324 675 567 0 575 756 762 763 83 1 760 0 81 1 575 1325 200 567
 759 0 577 563 764 81 1 762 1326 675 506 0 563 759 562 765 83 1 763 0 81 1 563 1
327 200 506 762 0 575 560 766 81 1 562 1328 675 551 0 560 762 767 768 83 1 765 0
 81 1 767 1330 675 390 0 564 562 769 770 83 1 768 0 81 1 564 1331 200 390 767 0
 560 771 772 81 1 769 1332 675 386 0 771 767 773 774 83 1 770 0 14 386 847 771 ?
400 390 384 4 775 -0 0 400 390 23 81 1 771 1333 200 386 769 0 564 776 777 81 1 7
73 1334 675 400 0 776 769 778 779 83 1 774 0 14 400 852 776 ?395 386 397 4 780 -
0 0 395 386 23 81 1 776 1335 200 400 773 0 771 781 782 81 1 778 1336 675 395 0 7
81 773 783 784 83 1 779 0 14 395 857 781 ?785 400 391 4 569 -0 0 785 400 23 81 1
 781 1337 200 395 778 0 776 786 787 81 1 783 1338 675 785 0 786 778 788 789 83 1
 784 0 14 785 1063 786 ?790 395 791 4 792 -0 0 790 395 23 81 1 786 1339 200 785
 783 0 781 793 794 81 1 788 1340 675 790 0 793 783 795 796 83 1 789 0 14 790 107
0 793 ?797 785 350 4 798 -0 0 797 785 23 81 1 793 1341 200 790 788 0 786 799 800
 81 1 795 1342 675 797 0 799 788 801 802 83 1 796 0 14 797 1100 799 ?803 790 804
 4 805 -0 0 803 790 23 81 1 799 1343 200 797 795 0 793 806 807 81 1 801 1344 675
 803 0 806 795 808 809 83 1 802 0 14 803 1107 806 ?810 797 811 4 812 -0 0 810 79
7 23 81 1 806 1345 200 803 801 0 799 813 814 81 1 808 1346 675 810 0 813 801 815
 816 83 1 809 0 14 810 1133 813 ?817 803 818 4 819 -0 0 817 803 23 81 1 813 1347
 200 810 808 0 806 820 821 81 1 815 1348 675 817 0 820 808 822 823 83 1 816 0 14
 817 1140 820 ?824 810 825 4 826 -0 0 824 810 23 81 1 820 1349 200 817 815 0 813
 827 828 81 1 822 1350 675 824 0 827 815 829 830 83 1 823 0 14 824 1166 827 ?831
 817 832 4 833 -0 0 831 817 23 81 1 827 1351 200 824 822 0 820 834 835 81 1 829
 1352 675 831 0 834 822 836 837 83 1 830 0 14 831 1173 834 ?207 824 838 4 839 -0
 0 207 824 23 81 1 834 1353 200 831 829 0 827 840 841 81 1 836 1354 675 207 0 84
0 829 842 843 83 1 837 0 14 207 1199 840 ?197 831 844 4 845 -0 0 197 831 23 81 1
 840 1355 200 207 836 0 834 202 846 81 1 842 1356 675 197 0 202 836 201 847 83 1
 843 0 81 1 202 1357 200 197 842 0 840 195 848 81 1 201 1358 675 194 0 195 842 8
49 850 83 1 847 0 81 1 849 1360 675 196 0 203 201 0 851 83 1 850 0 81 1 203 1361
 200 196 849 0 195 0 852 83 1 851 0 83 3 852 .5960784 .6666667 .6862745 83 3 848
 .5960784 .6666667 .6862745 83 3 846 .5960784 .6666667 .6862745 15 844 1201 0 85
3 207 854 52 845 1214 0 207 206 209 0 +.004330127018922175 -.0025 .0218 -7267268
01491042e-30 -1072864513835562e-30 1 65e-5 .857167300702112 .515038074910054 -.5
 -.866025403784438 -129249132454596e-29 51 206 1245 0 196 199 845 0 +.0043301270
1892221 .00249999999999997 .0248 -619418615866958e-30 1134818923691876e-30 -1 65
e-5 -.5 .866025403784439 129249132454596e-29 51 209 1212 0 197 845 833 0 +.00433
0127018922175 -.0025 .0248 726726801491042e-30 1072864513835562e-30 -1 65e-5 .5
 .866025403784438 129249132454596e-29 52 833 1181 0 824 209 839 0 +-312888603914
9855e-32 -.005 .0218 -1346145417358e-27 1239088197126294e-31 1 65e-5 .8571673007
02112 .515038074910054 -1 3885780586188045e-31 -1346145417358e-27 51 839 1179 0
 831 833 819 0 +-3532729664357255e-32 -.005 .0248 1346145417358e-27 -12390881971
26294e-31 -1 65e-5 1 -3885780586188045e-31 1346145417358e-27 52 819 1148 0 810 8
39 826 0 +-.00433012701892221 -.00249999999999997 .0218 -619418615866958e-30 125
8727743404506e-30 1 65e-5 .857167300702112 .515038074910054 -.5 .866025403784439
 -1399799510170042e-30 51 826 1146 0 817 819 805 0 +-.00433012701892221 -.002499
99999999997 .0248 619418615866958e-30 -1258727743404506e-30 -1 65e-5 .5 -.866025
403784439 1399799510170042e-30 52 805 1115 0 797 826 812 0 +-.00433012701892218
 .0025 .0218 726726801491042e-30 119677333354819e-29 1 65e-5 .857167300702112 .5
15038074910054 .5 .866025403784439 -1399799510170042e-30 51 812 1113 0 803 805 7
92 0 +-.004330127018922175 .0025 .0248 -726726801491042e-30 -119677333354819e-29
 -1 65e-5 -.5 -.866025403784439 1399799510170042e-30 52 792 1078 0 785 812 798 0
 +293459700984045e-31 .005 .0218 1346145417358e-27 0 1 65e-5 .857167300702112 .5
15038074910054 1 0 -1346145417358e-27 51 798 1076 0 790 792 775 0 +3338440635047
85e-31 .005 .0248 -1346145417358e-27 0 -1 65e-5 -1 0 1346145417358e-27 50 775 89
0 0 386 798 780 0 +.008 .000574999999999989 .003224999999999845 1409462824231156
e-30 1 0 1 -1409462824231156e-30 0 51 780 889 0 400 775 566 0 +.007 -95479180117
7635e-32 .003224999999999805 0 0 -1 575e-6 1 0 0 51 566 888 0 390 780 569 0 +.00
8 -1110223024625156e-32 .003224999999999805 0 0 -1 575e-6 1 0 0 17 853 0 844 853
 853 0 855 856 0 0 -15 854 1202 0 190 207 0 17 190 0 854 190 190 188 0 0 0 0 ?17
 855 0 208 855 855 0 853 856 0 0 +16 856 1196 0 ?855 857 858 859 0 0 1 16 857 11
64 0 ?860 861 856 862 0 0 1 16 858 1197 0 ?863 856 864 865 0 0 1 31 859 1216 0 8
56 866 865 0 +.004330127018922175 -.0025 .0218 726726801491042e-30 1072864513835
562e-30 -1 .5 .866025403784438 129249132454596e-29 65e-5 31 866 1248 0 867 868 8
59 0 +.00433012701892221 .00249999999999997 .0248 -619418615866958e-30 113481892
3691876e-30 -1 -.5 .866025403784439 129249132454596e-29 65e-5 31 865 1215 0 858
 859 869 0 +.004330127018922175 -.0025 .0248 726726801491042e-30 107286451383556
2e-30 -1 .5 .866025403784438 129249132454596e-29 65e-5 31 869 1183 0 861 865 862
 0 +-3128886039149855e-32 -.005 .0218 1346145417358e-27 -1239088197126294e-31 -1
 1 -3885780586188045e-31 1346145417358e-27 65e-5 16 861 1163 0 ?870 871 857 869
 0 0 1 31 862 1182 0 857 869 872 0 +-3532729664357255e-32 -.005 .0248 1346145417
358e-27 -1239088197126294e-31 -1 1 -3885780586188045e-31 1346145417358e-27 65e-5
 31 872 1150 0 873 862 874 0 +-.00433012701892221 -.00249999999999997 .0218 6194
18615866958e-30 -1258727743404506e-30 -1 .5 -.866025403784439 1399799510170042e-
30 65e-5 16 873 1130 0 ?875 356 871 872 0 0 1 31 874 1149 0 871 872 357 0 +-.004
33012701892221 -.00249999999999997 .0248 619418615866958e-30 -1258727743404506e-
30 -1 .5 -.866025403784439 1399799510170042e-30 65e-5 16 871 1131 0 ?876 873 861
 874 0 0 1 31 357 1117 0 353 874 355 0 +-.00433012701892218 .0025 .0218 -7267268
01491042e-30 -119677333354819e-29 -1 -.5 -.866025403784439 1399799510170042e-30
 65e-5 16 353 1097 0 ?877 348 356 357 0 0 1 17 877 0 811 877 877 0 878 353 0 0 +
16 356 1098 0 ?879 353 873 355 0 0 1 17 879 0 880 879 879 0 881 356 0 0 +15 880
 1089 0 879 588 882 17 881 0 883 881 881 0 879 356 0 0 -15 883 1110 0 881 803 0
 15 882 1052 0 352 588 884 17 352 0 882 352 352 0 885 348 0 0 +15 884 795 0 303
 588 886 17 303 0 884 303 303 0 887 301 0 0 +15 886 796 0 888 588 0 17 888 0 886
 888 888 0 300 298 0 0 -17 300 0 597 300 300 0 888 298 0 0 +15 597 789 0 300 592
 889 15 889 790 0 890 592 0 17 890 0 889 890 890 0 297 295 0 0 -17 297 0 601 297
 297 0 890 295 0 0 +15 601 783 0 297 596 891 15 891 784 0 892 596 0 17 892 0 891
 892 892 0 294 292 0 0 -17 294 0 605 294 294 0 892 292 0 0 +15 605 777 0 294 600
 893 15 893 778 0 894 600 0 17 894 0 893 894 894 0 291 289 0 0 -17 291 0 609 291
 291 0 894 289 0 0 +15 609 771 0 291 604 895 15 895 772 0 896 604 0 17 896 0 895
 896 896 0 288 286 0 0 -17 288 0 613 288 288 0 896 286 0 0 +15 613 765 0 288 608
 897 15 897 766 0 898 608 0 17 898 0 897 898 898 0 285 283 0 0 -17 285 0 617 285
 285 0 898 283 0 0 +15 617 759 0 285 612 899 15 899 760 0 900 612 0 17 900 0 899
 900 900 0 282 280 0 0 -17 282 0 621 282 282 0 900 280 0 0 +15 621 753 0 282 616
 901 15 901 754 0 902 616 0 17 902 0 901 902 902 0 279 277 0 0 -17 279 0 625 279
 279 0 902 277 0 0 +15 625 748 0 279 620 0 17 887 0 903 887 887 0 303 301 0 0 -1
5 903 802 0 887 584 0 17 885 0 904 885 885 0 352 348 0 0 -15 904 1073 0 885 790
 0 15 811 1109 0 877 803 883 17 878 0 804 878 878 0 877 353 0 0 -15 804 1102 0 8
78 797 905 15 905 1103 0 181 797 0 17 181 0 905 181 181 179 0 0 0 0 ?17 876 0 90
6 876 876 0 907 871 0 0 +15 906 1122 0 876 588 880 17 907 0 908 907 907 0 876 87
1 0 0 -15 908 1143 0 907 817 0 17 875 0 825 875 875 0 909 873 0 0 +15 825 1142 0
 875 817 908 17 909 0 818 909 909 0 875 873 0 0 -15 818 1135 0 909 810 910 15 91
0 1136 0 184 810 0 17 184 0 910 184 184 182 0 0 0 0 ?17 870 0 838 870 870 0 911
 861 0 0 +15 838 1175 0 870 831 912 17 911 0 832 911 911 0 870 861 0 0 -15 832 1
168 0 911 824 913 15 913 1169 0 187 824 0 17 187 0 913 187 187 185 0 0 0 0 ?15 9
12 1176 0 914 831 0 17 914 0 912 914 914 0 860 857 0 0 -17 860 0 915 860 860 0 9
14 857 0 0 +15 915 1155 0 860 588 906 16 867 1230 0 ?916 864 0 866 0 0 1 31 868
 1249 0 864 0 866 0 +.00433012701892221 .002499999999999975 .0218 -6194186158669
58e-30 1134818923691876e-30 -1 -.5 .866025403784439 129249132454596e-29 65e-5 16
 864 1229 0 ?917 858 867 868 0 0 1 17 917 0 205 917 917 0 210 864 0 0 +15 205 12
41 0 917 196 918 17 210 0 198 210 210 0 917 864 0 0 -15 918 1242 0 919 196 0 17
 919 0 918 919 919 0 916 867 0 0 -17 916 0 593 916 916 0 919 867 0 0 +15 593 122
1 0 916 588 920 15 920 1188 0 863 588 915 17 863 0 920 863 863 0 921 858 0 0 +17
 921 0 922 921 921 0 863 858 0 0 -15 922 1209 0 921 197 0 15 208 1208 0 855 197
 922 83 3 841 .5960784 .6666667 .6862745 83 3 835 .5960784 .6666667 .6862745 83
 3 828 .5960784 .6666667 .6862745 83 3 821 .5960784 .6666667 .6862745 83 3 814 .
5960784 .6666667 .6862745 83 3 807 .5960784 .6666667 .6862745 83 3 800 .5960784
 .6666667 .6862745 15 350 1072 0 347 790 904 83 3 794 .5960784 .6666667 .6862745
 15 791 1065 0 351 785 923 17 351 0 791 351 351 0 347 342 0 0 -15 923 1066 0 178
 785 0 17 178 0 923 178 178 176 0 0 0 0 ?83 3 787 .5960784 .6666667 .6862745 83
 3 782 .5960784 .6666667 .6862745 83 3 777 .5960784 .6666667 .6862745 83 3 772 .
5960784 .6666667 .6862745 83 3 766 .5960784 .6666667 .6862745 83 3 764 .5960784
 .6666667 .6862745 83 3 761 .5960784 .6666667 .6862745 83 3 758 .5960784 .666666
7 .6862745 83 3 755 .5960784 .6666667 .6862745 83 3 752 .5960784 .6666667 .68627
45 83 3 749 .5960784 .6666667 .6862745 83 3 746 .5960784 .6666667 .6862745 83 3
 743 .5960784 .6666667 .6862745 83 3 740 .5960784 .6666667 .6862745 83 3 737 .59
60784 .6666667 .6862745 83 3 734 .5960784 .6666667 .6862745 83 3 731 .5960784 .6
666667 .6862745 83 3 728 .5960784 .6666667 .6862745 83 3 725 .5960784 .6666667 .
6862745 83 3 722 .5960784 .6666667 .6862745 83 3 719 .5960784 .6666667 .6862745
 83 3 714 .5960784 .6666667 .6862745 83 3 712 .5960784 .6666667 .6862745 15 331
 724 0 329 412 924 50 711 864 0 412 418 665 0 +-2338491242753465e-32 .0079 .0226
 1346145417358002e-30 0 1 1 0 -1346145417358002e-30 51 418 865 0 252 405 711 0 +
0 0 0 1346145417358002e-30 0 1 .008 1 0 -1346145417358002e-30 50 665 281 0 493 7
11 666 0 +-.008 .000574999999999989 .003224999999999845 -1409462824231156e-30 1
 0 -1 -1409462824231156e-30 0 15 924 725 0 925 412 0 17 925 0 924 925 925 0 309
 307 0 0 -17 309 0 585 309 309 0 925 307 0 0 +15 585 807 0 309 579 926 15 926 80
8 0 927 579 0 17 927 0 926 927 927 0 306 304 0 0 -17 306 0 589 306 306 0 927 304
 0 0 +15 589 801 0 306 584 903 83 3 708 .5960784 .6666667 .6862745 83 3 702 .596
0784 .6666667 .6862745 83 3 698 .5960784 .6666667 .6862745 83 3 696 .5960784 .66
66667 .6862745 79 15 674 SDL/TYSA_COLOUR83 3 670 .5960784 .6666667 .6862745 83 3
 663 .5960784 .6666667 .6862745 83 3 659 .5960784 .6666667 .6862745 17 546 0 629
 634 109 104 312 310 0 0 -17 642 0 416 544 315 138 103 319 0 0 -17 544 0 416 545
 642 151 140 534 0 0 -17 103 0 238 246 243 101 642 319 0 315 +16 319 470 0 ?103
 316 317 324 0 0 1 17 243 0 238 103 239 138 121 249 0 642 +17 121 0 542 555 140
 119 243 249 0 383 -15 542 830 0 555 567 0 17 555 0 542 552 121 142 383 513 0 50
2 -17 383 0 343 127 502 119 555 513 0 239 +17 552 0 542 543 555 154 144 531 0 51
8 -17 543 0 542 140 552 151 156 519 0 544 +30 323 925 0 540 536 321 0 +-.0053 -.
003762977544445365 -702981419891694e-47 1346145417358002e-30 0 1 83 3 632 .59607
84 .6666667 .6862745 83 3 565 .5960784 .6666667 .6862745 17 153 0 549 156 150 15
1 545 547 0 543 -141 528 327 528 528 522 141 470 6 470 470 21 83 3 426 .5960784
 .6666667 .6862745 83 3 411 .5960784 .6666667 .6862745 17 269 0 336 333 377 128
 255 262 0 265 -17 332 0 253 332 332 0 329 259 0 0 -15 253 731 0 332 252 0 83 3
 228 .5960784 .6666667 .6862745 83 3 215 .5960784 .6666667 .6862745 83 3 204 .59
60784 .6666667 .6862745 19 16 92 0 1 0 8 4 S74 4 CI16 index_map_offset0 0 1 dCCZ
20 14 3 0 0 2 849 203 0 0 0 0 0 0 0 0 0 0 0 0 0 0 0 0 0 80 2 11 928 929 8004 0 0
 0 0 3 5 0 0 0 FFTFFFFFFFFFFF2 3 83 1 12 7830.64 84 255 8 13 Kg/Cu M 79 16 929 S
DL/TYSA_DENSITY1 0 
